<mxfile host="65bd71144e">
    <diagram name="Copy of Page-1" id="U6vu3DpVYjQUDyryLUsp">
        <mxGraphModel dx="832" dy="394" grid="1" gridSize="10" guides="1" tooltips="1" connect="1" arrows="1" fold="1" page="1" pageScale="1" pageWidth="850" pageHeight="1100" math="0" shadow="0">
            <root>
                <mxCell id="ZqZqqDHpZdhVjMUOQdLO-0"/>
                <mxCell id="ZqZqqDHpZdhVjMUOQdLO-1" parent="ZqZqqDHpZdhVjMUOQdLO-0"/>
                <mxCell id="ZqZqqDHpZdhVjMUOQdLO-2" value="" style="rounded=0;whiteSpace=wrap;html=1;fillColor=none;dashed=1;strokeColor=#3399FF;" vertex="1" parent="ZqZqqDHpZdhVjMUOQdLO-1">
                    <mxGeometry x="170" y="250" width="480" height="320" as="geometry"/>
                </mxCell>
                <mxCell id="ZqZqqDHpZdhVjMUOQdLO-5" style="edgeStyle=orthogonalEdgeStyle;rounded=0;orthogonalLoop=1;jettySize=auto;html=1;exitX=1;exitY=0.5;exitDx=0;exitDy=0;entryX=0;entryY=0.5;entryDx=0;entryDy=0;strokeColor=#0E8088;" edge="1" parent="ZqZqqDHpZdhVjMUOQdLO-1">
                    <mxGeometry relative="1" as="geometry">
                        <Array as="points">
                            <mxPoint x="258.69" y="233"/>
                        </Array>
                        <mxPoint x="251.44000000000005" y="232.66499999999996" as="sourcePoint"/>
                    </mxGeometry>
                </mxCell>
                <mxCell id="ZqZqqDHpZdhVjMUOQdLO-10" style="edgeStyle=orthogonalEdgeStyle;rounded=0;orthogonalLoop=1;jettySize=auto;html=1;entryX=1;entryY=0.5;entryDx=0;entryDy=0;" edge="1" parent="ZqZqqDHpZdhVjMUOQdLO-1">
                    <mxGeometry relative="1" as="geometry">
                        <mxPoint x="755" y="299.9142857142857" as="sourcePoint"/>
                    </mxGeometry>
                </mxCell>
                <mxCell id="QRMWilzC_tfbdQ8QkiML-7" style="edgeStyle=orthogonalEdgeStyle;rounded=0;orthogonalLoop=1;jettySize=auto;html=1;entryX=1;entryY=0.25;entryDx=0;entryDy=0;strokeColor=#C73500;exitX=0.5;exitY=0;exitDx=0;exitDy=0;" edge="1" parent="ZqZqqDHpZdhVjMUOQdLO-1" source="ZqZqqDHpZdhVjMUOQdLO-12" target="bEOxu-37LqY8me0hwXk0-1">
                    <mxGeometry relative="1" as="geometry">
                        <mxPoint x="100" y="250" as="sourcePoint"/>
                        <Array as="points">
                            <mxPoint x="113" y="240"/>
                            <mxPoint x="740" y="240"/>
                            <mxPoint x="740" y="418"/>
                        </Array>
                    </mxGeometry>
                </mxCell>
                <mxCell id="ZqZqqDHpZdhVjMUOQdLO-12" value="" style="shape=image;verticalLabelPosition=bottom;labelBackgroundColor=#ffffff;verticalAlign=top;aspect=fixed;imageAspect=0;image=data:image/svg+xml,PHN2ZyB4bWxucz0iaHR0cDovL3d3dy53My5vcmcvMjAwMC9zdmciIGlkPSJlMjQ2NzFmNi1mNTAxLTQ5NTItYTJkYi04YjBiMWQzMjljMTciIHdpZHRoPSIxNi4zNTYyMDMwNzkyMjM2MzMiIGhlaWdodD0iMTgiIHZpZXdCb3g9IjAuODIxNTQ3MzI5NDI1ODExOCAwIDE2LjM1NjIwMzA3OTIyMzYzMyAxOCI+CiAgPGRlZnM+CiAgICA8bGluZWFyR3JhZGllbnQgaWQ9ImJlOTI5MDFiLWVjMzMtNGM2NS1hZGYxLTliMGVlZDA2ZDY3NyIgeDE9IjkiIHkxPSI2Ljg4IiB4Mj0iOSIgeTI9IjIwLjQ1IiBncmFkaWVudFVuaXRzPSJ1c2VyU3BhY2VPblVzZSI+CiAgICAgIDxzdG9wIG9mZnNldD0iMC4yMiIgc3RvcC1jb2xvcj0iIzMyZDRmNSIvPgogICAgICA8c3RvcCBvZmZzZXQ9IjEiIHN0b3AtY29sb3I9IiMxOThhYjMiLz4KICAgIDwvbGluZWFyR3JhZGllbnQ+CiAgICA8bGluZWFyR3JhZGllbnQgaWQ9ImI0NmZjMjQ2LTI1ZDgtNDM5OC04Nzc5LTEwNDJlOGNhY2FlNyIgeDE9IjguNjEiIHkxPSItMC40IiB4Mj0iOS42IiB5Mj0iMTEuOTIiIGdyYWRpZW50VW5pdHM9InVzZXJTcGFjZU9uVXNlIj4KICAgICAgPHN0b3Agb2Zmc2V0PSIwLjIyIiBzdG9wLWNvbG9yPSIjMzJkNGY1Ii8+CiAgICAgIDxzdG9wIG9mZnNldD0iMSIgc3RvcC1jb2xvcj0iIzE5OGFiMyIvPgogICAgPC9saW5lYXJHcmFkaWVudD4KICA8L2RlZnM+CiAgPHRpdGxlPkljb24taWRlbnRpdHktMjMwPC90aXRsZT4KICA8cGF0aCBkPSJNMTUuNzIsMThhMS40NSwxLjQ1LDAsMCwwLDEuNDUtMS40NS40Ny40NywwLDAsMCwwLS4xN0MxNi41OSwxMS44MSwxNCw4LjA5LDksOC4wOVMxLjM0LDExLjI0LjgzLDE2LjM5QTEuNDYsMS40NiwwLDAsMCwyLjE0LDE4SDE1LjcyWiIgZmlsbD0idXJsKCNiZTkyOTAxYi1lYzMzLTRjNjUtYWRmMS05YjBlZWQwNmQ2NzcpIi8+CiAgPHBhdGggZD0iTTksOS4xN2E0LjU5LDQuNTksMCwwLDEtMi40OC0uNzNMOSwxNC44NmwyLjQ0LTYuMzhBNC41Myw0LjUzLDAsMCwxLDksOS4xN1oiIGZpbGw9IiNmZmYiIG9wYWNpdHk9IjAuOCIvPgogIDxjaXJjbGUgY3g9IjkuMDEiIGN5PSI0LjU4IiByPSI0LjU4IiBmaWxsPSJ1cmwoI2I0NmZjMjQ2LTI1ZDgtNDM5OC04Nzc5LTEwNDJlOGNhY2FlNykiLz4KPC9zdmc+;" vertex="1" parent="ZqZqqDHpZdhVjMUOQdLO-1">
                    <mxGeometry x="100" y="300" width="26.62" height="30" as="geometry"/>
                </mxCell>
                <mxCell id="ZqZqqDHpZdhVjMUOQdLO-19" value="&lt;font style=&quot;font-size: 8px&quot;&gt;&lt;b&gt;External User&lt;/b&gt;&lt;/font&gt;" style="text;html=1;resizable=0;autosize=1;align=center;verticalAlign=middle;points=[];fillColor=none;strokeColor=none;rounded=0;" vertex="1" parent="ZqZqqDHpZdhVjMUOQdLO-1">
                    <mxGeometry x="78.31" y="330" width="70" height="20" as="geometry"/>
                </mxCell>
                <mxCell id="ZqZqqDHpZdhVjMUOQdLO-26" style="edgeStyle=orthogonalEdgeStyle;rounded=0;orthogonalLoop=1;jettySize=auto;html=1;fillColor=#d5e8d4;strokeColor=#82b366;" edge="1" parent="ZqZqqDHpZdhVjMUOQdLO-1">
                    <mxGeometry relative="1" as="geometry">
                        <mxPoint x="801.000901250874" y="288.65517241379314" as="sourcePoint"/>
                    </mxGeometry>
                </mxCell>
                <mxCell id="7oM09b4IGg1jH9TIV0pM-0" value="&lt;font style=&quot;font-size: 8px&quot;&gt;&lt;b&gt;Application Gateway Subnet&lt;/b&gt;&lt;/font&gt;" style="text;html=1;resizable=0;autosize=1;align=center;verticalAlign=middle;points=[];fillColor=none;strokeColor=none;rounded=0;" vertex="1" parent="ZqZqqDHpZdhVjMUOQdLO-1">
                    <mxGeometry x="180" y="260" width="120" height="20" as="geometry"/>
                </mxCell>
                <mxCell id="7oM09b4IGg1jH9TIV0pM-1" value="" style="whiteSpace=wrap;html=1;fillColor=#E6E6E6;" vertex="1" parent="ZqZqqDHpZdhVjMUOQdLO-1">
                    <mxGeometry x="196.5" y="280.57" width="87" height="74" as="geometry"/>
                </mxCell>
                <mxCell id="7oM09b4IGg1jH9TIV0pM-2" value="" style="shape=image;verticalLabelPosition=bottom;labelBackgroundColor=#ffffff;verticalAlign=top;aspect=fixed;imageAspect=0;image=data:image/svg+xml,PHN2ZyB4bWxucz0iaHR0cDovL3d3dy53My5vcmcvMjAwMC9zdmciIHhtbG5zOnhsaW5rPSJodHRwOi8vd3d3LnczLm9yZy8xOTk5L3hsaW5rIiB2ZXJzaW9uPSIxLjEiIGlkPSJMYXllcl8xIiB4PSIwcHgiIHk9IjBweCIgd2lkdGg9IjUwLjA5OTk5ODQ3NDEyMTA5NCIgaGVpZ2h0PSI1MCIgdmlld0JveD0iMCAwIDUwLjA5OTk5ODQ3NDEyMTA5NCA1MCIgZW5hYmxlLWJhY2tncm91bmQ9Im5ldyAwIDAgNTAgNTAiIHhtbDpzcGFjZT0icHJlc2VydmUiPiYjeGE7PHBhdGggZmlsbD0iIzdGQkEwMCIgZD0iTTI1LDUwYy0xLjIsMC0yLjQtMC41LTMuMy0xLjRMMS40LDI4LjNDMC41LDI3LjQsMCwyNi4yLDAsMjVzMC41LTIuNCwxLjQtMy4zTDIxLjcsMS40JiMxMDsmIzk7QzIyLjYsMC41LDIzLjgsMCwyNSwwczIuNCwwLjUsMy4zLDEuNGwyMC40LDIwLjRjMC45LDAuOSwxLjQsMiwxLjQsMy4zYzAsMS4yLTAuNSwyLjQtMS40LDMuM0wyOC4zLDQ4LjZDMjcuNCw0OS41LDI2LjIsNTAsMjUsNTAiLz4mI3hhOzxwYXRoIGZpbGw9IiNGRkZGRkYiIGQ9Ik0yOS43MzgsMTguNTg0Yy0xLjM5OCwxLjA2OS0zLjA0NCwxLjU4OS00LjY4LDEuNTg5Yy0yLjMyLDAtNC42MTQtMS4wNDItNi4xMzEtMy4wMjUmIzEwOyYjOTtjLTIuNTktMy4zODItMS45NTEtOC4yMTksMS40MzctMTAuODExYzEuMzk3LTEuMDc1LDMuMDQ2LTEuNTg4LDQuNjc5LTEuNTg4YzIuMzIsMCw0LjYxNSwxLjA0Miw2LjEzMSwzLjAyNiYjMTA7JiM5O0MzMy43NjUsMTEuMTU4LDMzLjExOSwxNS45OTYsMjkuNzM4LDE4LjU4NCIvPiYjeGE7PHBhdGggb3BhY2l0eT0iMC4xNSIgZmlsbD0iI0ZGRkZGRiIgZW5hYmxlLWJhY2tncm91bmQ9Im5ldyAgICAiIGQ9Ik0yOC4zLDEuNEMyNy40LDAuNSwyNi4yLDAsMjUsMHMtMi40LDAuNS0zLjMsMS40TDEuNCwyMS43JiMxMDsmIzk7QzAuNSwyMi42LDAsMjMuOCwwLDI1czAuNSwyLjQsMS40LDMuM2wxMS41LDExLjVMMzQuNiw3LjdMMjguMywxLjR6Ii8+JiN4YTs8cG9seWdvbiBmaWxsPSIjRkZGRkZGIiBwb2ludHM9IjI1LDQ1LjYgMzEuNiwzOSAyNi45LDM5IDI2LjksMTkuMTQ5IDIzLDE5LjE0OSAyMywzOSAxOC40LDM5ICIvPiYjeGE7PHBvbHlnb24gZmlsbD0iI0ZGRkZGRiIgcG9pbnRzPSIzOS4zMywzMy40OCAzOS4zMywyNC4xNDYgMzYuMDc3LDI3LjM5OSAyNy42MzMsMTguOTU1IDI0LjgwNSwyMS43ODMgMzMuMjQ5LDMwLjIyNyAyOS45OTYsMzMuNDggJiMxMDsmIzk7Ii8+JiN4YTs8cG9seWdvbiBmaWxsPSIjRkZGRkZGIiBwb2ludHM9IjEwLjY4NSwzMy41MTUgMjAuMDE4LDMzLjUxNSAxNi43NjYsMzAuMjYzIDI1LjQ0NywyMS41ODIgMjIuNjE4LDE4Ljc1MyAxMy45MzcsMjcuNDM0ICYjMTA7JiM5OzEwLjY4NSwyNC4xODIgIi8+JiN4YTs8cGF0aCBmaWxsPSIjNTlCNEQ5IiBkPSJNMjkuMTE1LDE3Ljc3MWMtMS4yMTIsMC45MjctMi42NCwxLjM3OC00LjA1OCwxLjM3OGMtMi4wMTIsMC00LjAwMi0wLjkwMy01LjMxNi0yLjYyMyYjMTA7JiM5O2MtMi4yNDYtMi45MzMtMS42OTItNy4xMjcsMS4yNDYtOS4zNzVjMS4yMTItMC45MzIsMi42NDEtMS4zNzcsNC4wNTctMS4zNzdjMi4wMTIsMCw0LjAwMiwwLjkwMyw1LjMxNiwyLjYyNCYjMTA7JiM5O0MzMi42MDgsMTEuMzMxLDMyLjA0OCwxNS41MjYsMjkuMTE1LDE3Ljc3MSIvPiYjeGE7PHBhdGggZmlsbD0iI0ZGRkZGRiIgZD0iTTI3Ljg4NiwxMy42MzVjMC40ODYsMC42MzQsMS4zODgsMC43NDgsMi4wMTgsMC4yNjljMC4wMzMtMC4wMjUsMC4wNTgtMC4wNTYsMC4wODgtMC4wODMmIzEwOyYjOTtjMC42NDUsMC40NTQsMS4wOTIsMC43NTQsMS4zNDQsMC45MjVjMC4wNzUtMC4xOTMsMC4xMjYtMC4zNzksMC4xNzktMC41NzNjLTAuMjY2LTAuMTk4LTAuNjI3LTAuNDc2LTEuMTQ4LTAuODk4JiMxMDsmIzk7YzAuMTcxLTAuNDQ5LDAuMTE3LTAuOTc0LTAuMTk1LTEuMzg0Yy0wLjQ0Ny0wLjU3OC0xLjIzOC0wLjcyNS0xLjg1Ni0wLjM2OGMtMC42ODEtMC42MTEtMS40My0xLjMxMi0yLjIxOS0yLjA5NiYjMTA7JiM5O2MyLjQ1Mi0xLjMxOSw0LjE5NC0xLjEyNiw0LjE5NC0xLjEyNmMtMC4yOTEtMC4zNzEtMC42MTctMC42OTYtMC45NjUtMC45ODljLTEuMDM0LTAuMTYtMi42NC0wLjE0Mi00LjQ3NiwwLjgzNGwtMC4wMDEtMC4wMDFoMCYjMTA7JiM5O2MtMC42MTItMC42NC0xLjIzNC0xLjMyNy0xLjg2OC0yLjA2M2MtMC4zMDMsMC4wOTctMC42LDAuMjE3LTAuODg2LDAuMzZjMC40NjgsMC43NjYsMS4wOTgsMS41MzgsMS44MDcsMi4yOTJsMCwwJiMxMDsmIzk7YzAuMDAxLDAuMDAyLDAuMDAzLDAuMDAzLDAuMDA1LDAuMDA1Yy0wLjU5MiwwLjQxNC0xLjI1LDAuOTY3LTEuODU4LDEuNjA5Yy0wLjA3OCwwLjA4My0wLjE1MiwwLjE2Ni0wLjIyNSwwLjI0OSYjMTA7JiM5O2MtMC4zNjMtMC4wNzYtMC43NDUtMC4wNTQtMS4xMDIsMC4wNzVjLTAuNjA2LTEuMzA3LTAuNTU3LTIuMzU3LTAuNDYxLTIuODk4Yy0wLjI2MywwLjI3Ni0wLjUwOSwwLjU2NS0wLjcyLDAuODc0JiMxMDsmIzk7Yy0wLjE1OCwwLjY0Ni0wLjIwMywxLjU3OCwwLjI2NCwyLjcwMWMtMC41NCwwLjcwNy0wLjU2NiwxLjcwOS0wLjAwMSwyLjQ0OWMwLjA0NywwLjA2MSwwLjA5NywwLjExOCwwLjE1LDAuMTczJiMxMDsmIzk7Yy0wLjI0NiwwLjgzOS0wLjM1NywxLjY0OS0wLjM5MSwyLjM0NGMwLjA2MywwLjA4NiwwLjA2MywwLjE1NiwwLjEyNiwwLjI0YzAuMzIxLDAuNDExLDAuNzI0LDAuNzU4LDEuMTEzLDEuMDcyJiMxMDsmIzk7Yy0wLjA0OC0wLjczNiwwLjAwNC0xLjgyMSwwLjQ1OS0zLjA0M2MwLjMxNCwwLjAyNCwwLjYzMy0wLjAyNiwwLjkzMi0wLjE1MWMwLjE3MSwwLjE1MSwwLjM1LDAuMzAzLDAuNTQyLDAuNDU4JiMxMDsmIzk7YzAuNjU2LDAuNTIsMS4zMTEsMC45MjQsMS45NDksMS4yNDJjLTAuMDMzLDAuMzI1LDAuMDQ4LDAuNjYyLDAuMjU5LDAuOTQxYzAuNDUxLDAuNTgyLDEuMjg2LDAuNjkxLDEuODY4LDAuMjQ2JiMxMDsmIzk7YzAuMTIxLTAuMDkzLDAuMjE3LTAuMjA1LDAuMjk2LTAuMzI1YzEuMDQxLDAuMjMyLDEuOTUsMC4yNzMsMi42MjQsMC4yNzNjMC4xMDMsMCwwLjU4Mi0wLjY1MiwwLjg1Ny0xLjA1NiYjMTA7JiM5O2MtMC40MSwwLjA4Ni0xLjYyOCwwLjI1My0zLjI5MS0wLjIyNWMtMC4wNC0wLjE4Ny0wLjExNy0wLjM2OC0wLjI0LTAuNTNjLTAuNDIyLTAuNTU0LTEuMTk1LTAuNjc0LTEuNzcxLTAuMzAzJiMxMDsmIzk7Yy0wLjU3OC0wLjMxNC0xLjE4NC0wLjcwNy0xLjgwOC0xLjIwMWMtMC4xMjYtMC4xLTAuMjQ3LTAuMTk5LTAuMzY0LTAuMjk5YzAuMzgyLTAuNjAxLDAuNDIyLTEuMzcyLDAuMDg1LTIuMDImIzEwOyYjOTtjMC4wNzctMC4wNzcsMC4xNTItMC4xNTMsMC4yMzMtMC4yMjljMC42MTgtMC41NzgsMS4yLTEuMDQsMS43NDQtMS40MTFjLTAuMDIyLTAuMDItMC4wNDItMC4wNDItMC4wNjMtMC4wNjImIzEwOyYjOTtjMC4wMjIsMC4wMiwwLjA0MiwwLjA0MSwwLjA2NCwwLjA2MWMwLDAsMCwwLTAuMDAxLDBjMC44MzUsMC43NzIsMS43MiwxLjUwNCwyLjU1OSwyLjE1OCYjMTA7JiM5O0MyNy41MTQsMTIuNjIxLDI3LjU0OSwxMy4xOTQsMjcuODg2LDEzLjYzNXoiLz4mI3hhOzwvc3ZnPg==;" vertex="1" parent="ZqZqqDHpZdhVjMUOQdLO-1">
                    <mxGeometry x="225" y="301.57" width="30" height="30" as="geometry"/>
                </mxCell>
                <mxCell id="abE22VppWr-YHlOL8psd-0" value="&lt;font style=&quot;font-size: 8px&quot;&gt;&lt;b&gt;API Management Subnet&lt;/b&gt;&lt;/font&gt;" style="text;html=1;resizable=0;autosize=1;align=center;verticalAlign=middle;points=[];fillColor=none;strokeColor=none;rounded=0;" vertex="1" parent="ZqZqqDHpZdhVjMUOQdLO-1">
                    <mxGeometry x="350" y="261" width="110" height="20" as="geometry"/>
                </mxCell>
                <mxCell id="abE22VppWr-YHlOL8psd-1" value="" style="whiteSpace=wrap;html=1;fillColor=#E6E6E6;" vertex="1" parent="ZqZqqDHpZdhVjMUOQdLO-1">
                    <mxGeometry x="365.15999999999997" y="280.57" width="87" height="74" as="geometry"/>
                </mxCell>
                <mxCell id="abE22VppWr-YHlOL8psd-2" value="" style="shape=image;verticalLabelPosition=bottom;labelBackgroundColor=#ffffff;verticalAlign=top;aspect=fixed;imageAspect=0;image=data:image/svg+xml,PHN2ZyB4bWxucz0iaHR0cDovL3d3dy53My5vcmcvMjAwMC9zdmciIHhtbG5zOnhsaW5rPSJodHRwOi8vd3d3LnczLm9yZy8xOTk5L3hsaW5rIiB2ZXJzaW9uPSIxLjEiIGlkPSJMYXllcl8xIiB4PSIwcHgiIHk9IjBweCIgd2lkdGg9IjUwLjIwMDAwNDU3NzYzNjcyIiBoZWlnaHQ9IjQxLjcwMDAwMDc2MjkzOTQ1IiB2aWV3Qm94PSIwIDMuOTk5OTk5MDQ2MzI1NjgzNiA1MC4yMDAwMDQ1Nzc2MzY3MiA0MS43MDAwMDA3NjI5Mzk0NSIgZW5hYmxlLWJhY2tncm91bmQ9Im5ldyAwIDAgNTAgNTAiIHhtbDpzcGFjZT0icHJlc2VydmUiPiYjeGE7PHBhdGggZmlsbD0iIzU5QjREOSIgZD0iTTIwLjUsMzIuNWgtOC45bDAsMGMtNC40LDAtOC0zLjYtOC04LjFzMy40LTguMSw4LTguMWMwLjgsMCwxLjcsMC4yLDIuNywwLjNsMS43LDAuNWwwLjUtMS43JiMxMDsmIzk7QzE4LjEsMTAuMiwyMy4xLDcsMjguOCw3YzYuOSwwLDEyLjIsNS4zLDEyLjIsMTIuMmMwLDEuMS0wLjIsMi4yLTAuNSwzLjNMMzkuOCwyNWwyLjctMC4zYzAuMiwwLDAuMywwLDAuNSwwYzIsMCwzLjYsMS43LDMuNiwzLjYmIzEwOyYjOTtzLTEuNCwzLjMtMy4xLDMuNmMwLDAtOC42LDAtOC45LDBjLTAuMy0yLjUtMS42LTQuNy0zLjMtNi40QzI5LjEsMjMuMywyNi4xLDIyLDIzLDIyYy0yLjIsMC00LjQsMC42LTYuMSwxLjdsMS45LDMmIzEwOyYjOTtjMS40LTAuOCwyLjgtMS4xLDQuNC0xLjFjMi4yLDAsNC40LDAuOCw1LjgsMi41YzEuNiwxLjYsMi41LDMuNiwyLjUsNS44cy0wLjgsNC40LTIuNSw1LjhjLTEuNiwxLjctMy42LDIuNS01LjgsMi41JiMxMDsmIzk7Yy0xLjYsMC0zLjEtMC41LTQuNC0xLjRsLTEuOSwzYzEuOSwxLjEsNC4xLDEuOSw2LjEsMS45YzMuMSwwLDYuMS0xLjEsOC4zLTMuNGMxLjktMS45LDMtNC40LDMuMy03YzAuNSwwLDkuMSwwLDkuMSwwaDAuMiYjMTA7JiM5O2MzLjYtMC4zLDYuMy0zLjQsNi4zLTcuMmMwLTMtMi44LTUuOC02LjEtNi40YzAuMi0wLjYsMC4yLTAuOSwwLjItMS45YzAtOC44LTYuMi0xNS44LTE2LjEtMTUuOGwwLDBjLTYuMywwLTExLjksMy42LTE0LjIsOS40JiMxMDsmIzk7Yy0wLjgsMC0xLjQtMC4zLTIuMy0wLjNDNS4yLDEzLDAsMTgsMCwyNC40YzAsNi4zLDUuMiwxMS4zLDExLjQsMTEuM2g5LjhMMjAuNSwzMi41eiIvPiYjeGE7PGNpcmNsZSBmaWxsPSIjNjgyMTdBIiBjeD0iMjIuOCIgY3k9IjMzLjgiIHI9IjUuNiIvPiYjeGE7PC9zdmc+;" vertex="1" parent="ZqZqqDHpZdhVjMUOQdLO-1">
                    <mxGeometry x="390.1" y="301.57" width="36.13" height="30.35" as="geometry"/>
                </mxCell>
                <mxCell id="abE22VppWr-YHlOL8psd-4" value="" style="endArrow=classic;html=1;exitX=1;exitY=0.5;exitDx=0;exitDy=0;fillColor=#dae8fc;strokeColor=#33FF33;" edge="1" parent="ZqZqqDHpZdhVjMUOQdLO-1" source="7oM09b4IGg1jH9TIV0pM-2">
                    <mxGeometry width="50" height="50" relative="1" as="geometry">
                        <mxPoint x="470" y="350" as="sourcePoint"/>
                        <mxPoint x="390" y="317" as="targetPoint"/>
                    </mxGeometry>
                </mxCell>
                <mxCell id="xUE4tL3KbNDIao92wFKX-0" value="&lt;font style=&quot;font-size: 8px&quot;&gt;&lt;b&gt;App Service Integration Subnet&lt;/b&gt;&lt;/font&gt;" style="text;html=1;resizable=0;autosize=1;align=center;verticalAlign=middle;points=[];fillColor=none;strokeColor=none;rounded=0;" vertex="1" parent="ZqZqqDHpZdhVjMUOQdLO-1">
                    <mxGeometry x="498.5" y="261" width="130" height="20" as="geometry"/>
                </mxCell>
                <mxCell id="xUE4tL3KbNDIao92wFKX-1" value="" style="whiteSpace=wrap;html=1;fillColor=#E6E6E6;" vertex="1" parent="ZqZqqDHpZdhVjMUOQdLO-1">
                    <mxGeometry x="520" y="281" width="87" height="74" as="geometry"/>
                </mxCell>
                <mxCell id="I9RZGy3JFJHDkG1NXH_Y-0" value="" style="shape=image;imageAspect=0;aspect=fixed;verticalLabelPosition=bottom;verticalAlign=top;image=data:image/svg+xml,PHN2ZyB4bWxucz0iaHR0cDovL3d3dy53My5vcmcvMjAwMC9zdmciIHdpZHRoPSIxNy40NjgxMzk2NDg0Mzc1IiBoZWlnaHQ9IjEwLjQwOTgxODY0OTI5MTk5MiIgdmlld0JveD0iMC4yNjYyNTUxOTk5MDkyMTAyIDMuNzk1NjE5NzI2MTgxMDMwMyAxNy40NjgxMzk2NDg0Mzc1IDEwLjQwOTgxODY0OTI5MTk5MiI+JiN4YTsgIDxkZWZzPiYjeGE7ICAgIDxsaW5lYXJHcmFkaWVudCBpZD0iYmNlYjYwZGQtOGI4Yy00MDk4LTk0ZjgtYWViNGRiMmVkYWVmIiB4MT0iOS4wMzMiIHkxPSIxMC4zMDUiIHgyPSI5LjAzMyIgeTI9IjcuNjk1IiBncmFkaWVudFVuaXRzPSJ1c2VyU3BhY2VPblVzZSI+JiN4YTsgICAgICA8c3RvcCBvZmZzZXQ9IjAiIHN0b3AtY29sb3I9IiM1ZTk2MjQiLz4mI3hhOyAgICAgIDxzdG9wIG9mZnNldD0iMC4yNDEiIHN0b3AtY29sb3I9IiM2ZmIwMmEiLz4mI3hhOyAgICAgIDxzdG9wIG9mZnNldD0iMC41MDEiIHN0b3AtY29sb3I9IiM3Y2M1MmYiLz4mI3hhOyAgICAgIDxzdG9wIG9mZnNldD0iMC43NTYiIHN0b3AtY29sb3I9IiM4M2QyMzIiLz4mI3hhOyAgICAgIDxzdG9wIG9mZnNldD0iMSIgc3RvcC1jb2xvcj0iIzg2ZDYzMyIvPiYjeGE7ICAgIDwvbGluZWFyR3JhZGllbnQ+JiN4YTsgIDwvZGVmcz4mI3hhOyAgPGcgaWQ9ImFjNzVjMjFlLTJhOTMtNDY0Zi04MDQ4LWYxNTE4ZGFiOGI3NSI+JiN4YTsgICAgPGc+JiN4YTsgICAgICA8cGF0aCBkPSJNOS4wMzEsNy43QTEuMzA1LDEuMzA1LDAsMSwwLDEwLjMzOCw5LDEuMzA1LDEuMzA1LDAsMCwwLDkuMDMxLDcuN1oiIGZpbGw9InVybCgjYmNlYjYwZGQtOGI4Yy00MDk4LTk0ZjgtYWViNGRiMmVkYWVmKSIvPiYjeGE7ICAgICAgPGc+JiN4YTsgICAgICAgIDxwYXRoIGQ9Ik0yLjk2MSw3LjM3NGguODg4YS4yODQuMjg0LDAsMCwxLC4yODQuMjg0djYuNTUxYS41NjguNTY4LDAsMCwxLS41NjguNTY4SDIuNjc3YTAsMCwwLDAsMSwwLDBWNy42NTlBLjI4NC4yODQsMCwwLDEsMi45NjEsNy4zNzRaIiB0cmFuc2Zvcm09InRyYW5zbGF0ZSgxMy42NTMgMTYuNDg1KSByb3RhdGUoMTM0LjkxOSkiIGZpbGw9IiM1MGU2ZmYiLz4mI3hhOyAgICAgICAgPHBhdGggZD0iTTIuOTEzLDMuMjQ0SDMuOGEuMjg0LjI4NCwwLDAsMSwuMjg0LjI4NHY3LjAxNWEwLDAsMCwwLDEsMCwwSDMuMmEuNTY4LjU2OCwwLDAsMS0uNTY4LS41NjhWMy41MjhhLjI4NC4yODQsMCwwLDEsLjI4NC0uMjg0WiIgdHJhbnNmb3JtPSJ0cmFuc2xhdGUoNS44NDcgLTAuMzU4KSByb3RhdGUoNDQuOTE5KSIgZmlsbD0iIzE0OTBkZiIvPiYjeGE7ICAgICAgICA8cGF0aCBkPSJNMTMuODY3LDcuMzc0aC44ODhhLjU2OC41NjgsMCwwLDEsLjU2OC41Njh2Ni41NTFhLjI4NC4yODQsMCwwLDEtLjI4NC4yODRoLS44ODhhLjI4NC4yODQsMCwwLDEtLjI4NC0uMjg0VjcuMzc0YTAsMCwwLDAsMSwwLDBaIiB0cmFuc2Zvcm09InRyYW5zbGF0ZSgxMi4xMzIgLTcuMDc5KSByb3RhdGUoNDUuMDgxKSIgZmlsbD0iIzUwZTZmZiIvPiYjeGE7ICAgICAgICA8cGF0aCBkPSJNMTQuNDgzLDMuMjQ0aC44ODhhMCwwLDAsMCwxLDAsMHY3LjAxNWEuMjg0LjI4NCwwLDAsMS0uMjg0LjI4NEgxNC4yYS4yODQuMjg0LDAsMCwxLS4yODQtLjI4NFYzLjgxMmEuNTY4LjU2OCwwLDAsMSwuNTY4LS41NjhaIiB0cmFuc2Zvcm09InRyYW5zbGF0ZSgyOS44NzkgMS40MzUpIHJvdGF0ZSgxMzUuMDgxKSIgZmlsbD0iIzE0OTBkZiIvPiYjeGE7ICAgICAgPC9nPiYjeGE7ICAgIDwvZz4mI3hhOyAgPC9nPiYjeGE7PC9zdmc+;" vertex="1" parent="ZqZqqDHpZdhVjMUOQdLO-1">
                    <mxGeometry x="253.50000000000006" y="355.0000000000001" width="30" height="17.65" as="geometry"/>
                </mxCell>
                <mxCell id="I9RZGy3JFJHDkG1NXH_Y-1" value="" style="shape=image;imageAspect=0;aspect=fixed;verticalLabelPosition=bottom;verticalAlign=top;image=data:image/svg+xml,PHN2ZyB4bWxucz0iaHR0cDovL3d3dy53My5vcmcvMjAwMC9zdmciIHdpZHRoPSIxNy40NjgxMzk2NDg0Mzc1IiBoZWlnaHQ9IjEwLjQwOTgxODY0OTI5MTk5MiIgdmlld0JveD0iMC4yNjYyNTUxOTk5MDkyMTAyIDMuNzk1NjE5NzI2MTgxMDMwMyAxNy40NjgxMzk2NDg0Mzc1IDEwLjQwOTgxODY0OTI5MTk5MiI+JiN4YTsgIDxkZWZzPiYjeGE7ICAgIDxsaW5lYXJHcmFkaWVudCBpZD0iYmNlYjYwZGQtOGI4Yy00MDk4LTk0ZjgtYWViNGRiMmVkYWVmIiB4MT0iOS4wMzMiIHkxPSIxMC4zMDUiIHgyPSI5LjAzMyIgeTI9IjcuNjk1IiBncmFkaWVudFVuaXRzPSJ1c2VyU3BhY2VPblVzZSI+JiN4YTsgICAgICA8c3RvcCBvZmZzZXQ9IjAiIHN0b3AtY29sb3I9IiM1ZTk2MjQiLz4mI3hhOyAgICAgIDxzdG9wIG9mZnNldD0iMC4yNDEiIHN0b3AtY29sb3I9IiM2ZmIwMmEiLz4mI3hhOyAgICAgIDxzdG9wIG9mZnNldD0iMC41MDEiIHN0b3AtY29sb3I9IiM3Y2M1MmYiLz4mI3hhOyAgICAgIDxzdG9wIG9mZnNldD0iMC43NTYiIHN0b3AtY29sb3I9IiM4M2QyMzIiLz4mI3hhOyAgICAgIDxzdG9wIG9mZnNldD0iMSIgc3RvcC1jb2xvcj0iIzg2ZDYzMyIvPiYjeGE7ICAgIDwvbGluZWFyR3JhZGllbnQ+JiN4YTsgIDwvZGVmcz4mI3hhOyAgPGcgaWQ9ImFjNzVjMjFlLTJhOTMtNDY0Zi04MDQ4LWYxNTE4ZGFiOGI3NSI+JiN4YTsgICAgPGc+JiN4YTsgICAgICA8cGF0aCBkPSJNOS4wMzEsNy43QTEuMzA1LDEuMzA1LDAsMSwwLDEwLjMzOCw5LDEuMzA1LDEuMzA1LDAsMCwwLDkuMDMxLDcuN1oiIGZpbGw9InVybCgjYmNlYjYwZGQtOGI4Yy00MDk4LTk0ZjgtYWViNGRiMmVkYWVmKSIvPiYjeGE7ICAgICAgPGc+JiN4YTsgICAgICAgIDxwYXRoIGQ9Ik0yLjk2MSw3LjM3NGguODg4YS4yODQuMjg0LDAsMCwxLC4yODQuMjg0djYuNTUxYS41NjguNTY4LDAsMCwxLS41NjguNTY4SDIuNjc3YTAsMCwwLDAsMSwwLDBWNy42NTlBLjI4NC4yODQsMCwwLDEsMi45NjEsNy4zNzRaIiB0cmFuc2Zvcm09InRyYW5zbGF0ZSgxMy42NTMgMTYuNDg1KSByb3RhdGUoMTM0LjkxOSkiIGZpbGw9IiM1MGU2ZmYiLz4mI3hhOyAgICAgICAgPHBhdGggZD0iTTIuOTEzLDMuMjQ0SDMuOGEuMjg0LjI4NCwwLDAsMSwuMjg0LjI4NHY3LjAxNWEwLDAsMCwwLDEsMCwwSDMuMmEuNTY4LjU2OCwwLDAsMS0uNTY4LS41NjhWMy41MjhhLjI4NC4yODQsMCwwLDEsLjI4NC0uMjg0WiIgdHJhbnNmb3JtPSJ0cmFuc2xhdGUoNS44NDcgLTAuMzU4KSByb3RhdGUoNDQuOTE5KSIgZmlsbD0iIzE0OTBkZiIvPiYjeGE7ICAgICAgICA8cGF0aCBkPSJNMTMuODY3LDcuMzc0aC44ODhhLjU2OC41NjgsMCwwLDEsLjU2OC41Njh2Ni41NTFhLjI4NC4yODQsMCwwLDEtLjI4NC4yODRoLS44ODhhLjI4NC4yODQsMCwwLDEtLjI4NC0uMjg0VjcuMzc0YTAsMCwwLDAsMSwwLDBaIiB0cmFuc2Zvcm09InRyYW5zbGF0ZSgxMi4xMzIgLTcuMDc5KSByb3RhdGUoNDUuMDgxKSIgZmlsbD0iIzUwZTZmZiIvPiYjeGE7ICAgICAgICA8cGF0aCBkPSJNMTQuNDgzLDMuMjQ0aC44ODhhMCwwLDAsMCwxLDAsMHY3LjAxNWEuMjg0LjI4NCwwLDAsMS0uMjg0LjI4NEgxNC4yYS4yODQuMjg0LDAsMCwxLS4yODQtLjI4NFYzLjgxMmEuNTY4LjU2OCwwLDAsMSwuNTY4LS41NjhaIiB0cmFuc2Zvcm09InRyYW5zbGF0ZSgyOS44NzkgMS40MzUpIHJvdGF0ZSgxMzUuMDgxKSIgZmlsbD0iIzE0OTBkZiIvPiYjeGE7ICAgICAgPC9nPiYjeGE7ICAgIDwvZz4mI3hhOyAgPC9nPiYjeGE7PC9zdmc+;" vertex="1" parent="ZqZqqDHpZdhVjMUOQdLO-1">
                    <mxGeometry x="422.1600000000001" y="355.0000000000001" width="30" height="17.65" as="geometry"/>
                </mxCell>
                <mxCell id="I9RZGy3JFJHDkG1NXH_Y-2" value="" style="shape=image;imageAspect=0;aspect=fixed;verticalLabelPosition=bottom;verticalAlign=top;image=data:image/svg+xml,PHN2ZyB4bWxucz0iaHR0cDovL3d3dy53My5vcmcvMjAwMC9zdmciIHdpZHRoPSIxNy40NjgxMzk2NDg0Mzc1IiBoZWlnaHQ9IjEwLjQwOTgxODY0OTI5MTk5MiIgdmlld0JveD0iMC4yNjYyNTUxOTk5MDkyMTAyIDMuNzk1NjE5NzI2MTgxMDMwMyAxNy40NjgxMzk2NDg0Mzc1IDEwLjQwOTgxODY0OTI5MTk5MiI+JiN4YTsgIDxkZWZzPiYjeGE7ICAgIDxsaW5lYXJHcmFkaWVudCBpZD0iYmNlYjYwZGQtOGI4Yy00MDk4LTk0ZjgtYWViNGRiMmVkYWVmIiB4MT0iOS4wMzMiIHkxPSIxMC4zMDUiIHgyPSI5LjAzMyIgeTI9IjcuNjk1IiBncmFkaWVudFVuaXRzPSJ1c2VyU3BhY2VPblVzZSI+JiN4YTsgICAgICA8c3RvcCBvZmZzZXQ9IjAiIHN0b3AtY29sb3I9IiM1ZTk2MjQiLz4mI3hhOyAgICAgIDxzdG9wIG9mZnNldD0iMC4yNDEiIHN0b3AtY29sb3I9IiM2ZmIwMmEiLz4mI3hhOyAgICAgIDxzdG9wIG9mZnNldD0iMC41MDEiIHN0b3AtY29sb3I9IiM3Y2M1MmYiLz4mI3hhOyAgICAgIDxzdG9wIG9mZnNldD0iMC43NTYiIHN0b3AtY29sb3I9IiM4M2QyMzIiLz4mI3hhOyAgICAgIDxzdG9wIG9mZnNldD0iMSIgc3RvcC1jb2xvcj0iIzg2ZDYzMyIvPiYjeGE7ICAgIDwvbGluZWFyR3JhZGllbnQ+JiN4YTsgIDwvZGVmcz4mI3hhOyAgPGcgaWQ9ImFjNzVjMjFlLTJhOTMtNDY0Zi04MDQ4LWYxNTE4ZGFiOGI3NSI+JiN4YTsgICAgPGc+JiN4YTsgICAgICA8cGF0aCBkPSJNOS4wMzEsNy43QTEuMzA1LDEuMzA1LDAsMSwwLDEwLjMzOCw5LDEuMzA1LDEuMzA1LDAsMCwwLDkuMDMxLDcuN1oiIGZpbGw9InVybCgjYmNlYjYwZGQtOGI4Yy00MDk4LTk0ZjgtYWViNGRiMmVkYWVmKSIvPiYjeGE7ICAgICAgPGc+JiN4YTsgICAgICAgIDxwYXRoIGQ9Ik0yLjk2MSw3LjM3NGguODg4YS4yODQuMjg0LDAsMCwxLC4yODQuMjg0djYuNTUxYS41NjguNTY4LDAsMCwxLS41NjguNTY4SDIuNjc3YTAsMCwwLDAsMSwwLDBWNy42NTlBLjI4NC4yODQsMCwwLDEsMi45NjEsNy4zNzRaIiB0cmFuc2Zvcm09InRyYW5zbGF0ZSgxMy42NTMgMTYuNDg1KSByb3RhdGUoMTM0LjkxOSkiIGZpbGw9IiM1MGU2ZmYiLz4mI3hhOyAgICAgICAgPHBhdGggZD0iTTIuOTEzLDMuMjQ0SDMuOGEuMjg0LjI4NCwwLDAsMSwuMjg0LjI4NHY3LjAxNWEwLDAsMCwwLDEsMCwwSDMuMmEuNTY4LjU2OCwwLDAsMS0uNTY4LS41NjhWMy41MjhhLjI4NC4yODQsMCwwLDEsLjI4NC0uMjg0WiIgdHJhbnNmb3JtPSJ0cmFuc2xhdGUoNS44NDcgLTAuMzU4KSByb3RhdGUoNDQuOTE5KSIgZmlsbD0iIzE0OTBkZiIvPiYjeGE7ICAgICAgICA8cGF0aCBkPSJNMTMuODY3LDcuMzc0aC44ODhhLjU2OC41NjgsMCwwLDEsLjU2OC41Njh2Ni41NTFhLjI4NC4yODQsMCwwLDEtLjI4NC4yODRoLS44ODhhLjI4NC4yODQsMCwwLDEtLjI4NC0uMjg0VjcuMzc0YTAsMCwwLDAsMSwwLDBaIiB0cmFuc2Zvcm09InRyYW5zbGF0ZSgxMi4xMzIgLTcuMDc5KSByb3RhdGUoNDUuMDgxKSIgZmlsbD0iIzUwZTZmZiIvPiYjeGE7ICAgICAgICA8cGF0aCBkPSJNMTQuNDgzLDMuMjQ0aC44ODhhMCwwLDAsMCwxLDAsMHY3LjAxNWEuMjg0LjI4NCwwLDAsMS0uMjg0LjI4NEgxNC4yYS4yODQuMjg0LDAsMCwxLS4yODQtLjI4NFYzLjgxMmEuNTY4LjU2OCwwLDAsMSwuNTY4LS41NjhaIiB0cmFuc2Zvcm09InRyYW5zbGF0ZSgyOS44NzkgMS40MzUpIHJvdGF0ZSgxMzUuMDgxKSIgZmlsbD0iIzE0OTBkZiIvPiYjeGE7ICAgICAgPC9nPiYjeGE7ICAgIDwvZz4mI3hhOyAgPC9nPiYjeGE7PC9zdmc+;" vertex="1" parent="ZqZqqDHpZdhVjMUOQdLO-1">
                    <mxGeometry x="577" y="355.0000000000001" width="30" height="17.65" as="geometry"/>
                </mxCell>
                <mxCell id="V95llRUBYu9JeHYfuBcx-0" value="" style="shape=image;imageAspect=0;aspect=fixed;verticalLabelPosition=bottom;verticalAlign=top;image=data:image/svg+xml,PHN2ZyB4bWxucz0iaHR0cDovL3d3dy53My5vcmcvMjAwMC9zdmciIGlkPSJhMTYwNmE1Mi1mYjE0LTQ2MzctODdkZS00ZDUyNGJiYTE4MjkiIHdpZHRoPSIxOC41MDMwODAzNjgwNDE5OTIiIGhlaWdodD0iMTEuMDMyODQ0NTQzNDU3MDMxIiB2aWV3Qm94PSItMC4yNTI4MTE4Nzg5MTk2MDE0NCAzLjQ4Mjc3MjExMTg5MjcgMTguNTAzMDgwMzY4MDQxOTkyIDExLjAzMjg0NDU0MzQ1NzAzMSI+JiN4YTsgIDxkZWZzPiYjeGE7ICAgIDxsaW5lYXJHcmFkaWVudCBpZD0iZjAyMGZiN2UtMjI0My00NTAxLTgxNTMtNWQ2OWJkM2MzNGY3IiB4MT0iOS44OCIgeTE9IjguNTkiIHgyPSIxMS41MiIgeTI9IjEwLjIzIiBncmFkaWVudFRyYW5zZm9ybT0idHJhbnNsYXRlKDIuMDMgLTAuNCkgcm90YXRlKC0wLjA4KSIgZ3JhZGllbnRVbml0cz0idXNlclNwYWNlT25Vc2UiPiYjeGE7ICAgICAgPHN0b3Agb2Zmc2V0PSIwIiBzdG9wLWNvbG9yPSIjODZkNjMzIi8+JiN4YTsgICAgICA8c3RvcCBvZmZzZXQ9IjEiIHN0b3AtY29sb3I9IiM1ZTk2MjQiLz4mI3hhOyAgICA8L2xpbmVhckdyYWRpZW50PiYjeGE7ICAgIDxsaW5lYXJHcmFkaWVudCBpZD0iYjNjMmJjOTQtOGM3Yy00OGEyLTk3MTktNmVlODk5YTQzYTk3IiB4MT0iNi4xOCIgeTE9IjguNTkiIHgyPSI3LjgxIiB5Mj0iMTAuMjMiIGdyYWRpZW50VW5pdHM9InVzZXJTcGFjZU9uVXNlIj4mI3hhOyAgICAgIDxzdG9wIG9mZnNldD0iMCIgc3RvcC1jb2xvcj0iIzg2ZDYzMyIvPiYjeGE7ICAgICAgPHN0b3Agb2Zmc2V0PSIxIiBzdG9wLWNvbG9yPSIjNWU5NjI0Ii8+JiN4YTsgICAgPC9saW5lYXJHcmFkaWVudD4mI3hhOyAgICA8bGluZWFyR3JhZGllbnQgaWQ9ImU5MDBjMzVkLTA5NTgtNGQ0Zi1iMjhmLTMwMmVlYWFmNTJmNSIgeDE9IjIuNDgiIHkxPSI4LjU5IiB4Mj0iNC4xMSIgeTI9IjEwLjIzIiBncmFkaWVudFVuaXRzPSJ1c2VyU3BhY2VPblVzZSI+JiN4YTsgICAgICA8c3RvcCBvZmZzZXQ9IjAiIHN0b3AtY29sb3I9IiM4NmQ2MzMiLz4mI3hhOyAgICAgIDxzdG9wIG9mZnNldD0iMSIgc3RvcC1jb2xvcj0iIzVlOTYyNCIvPiYjeGE7ICAgIDwvbGluZWFyR3JhZGllbnQ+JiN4YTsgIDwvZGVmcz4mI3hhOyAgPHRpdGxlPkljb24tbmV0d29ya2luZy02MTwvdGl0bGU+JiN4YTsgIDxjaXJjbGUgY3g9IjEyLjc0IiBjeT0iOC45OSIgcj0iMS4xNiIgZmlsbD0idXJsKCNmMDIwZmI3ZS0yMjQzLTQ1MDEtODE1My01ZDY5YmQzYzM0ZjcpIi8+JiN4YTsgIDxjaXJjbGUgY3g9IjkuMDQiIGN5PSI5IiByPSIxLjE2IiBmaWxsPSJ1cmwoI2IzYzJiYzk0LThjN2MtNDhhMi05NzE5LTZlZTg5OWE0M2E5NykiLz4mI3hhOyAgPGNpcmNsZSBjeD0iNS4zNCIgY3k9IjkiIHI9IjEuMTYiIGZpbGw9InVybCgjZTkwMGMzNWQtMDk1OC00ZDRmLWIyOGYtMzAyZWVhYWY1MmY1KSIvPiYjeGE7ICA8cGF0aCBkPSJNMi42MSw3LjI4aC45NGEuMy4zLDAsMCwxLC4zLjN2Ni45NGEuNi42LDAsMCwxLS42LjZIMi4zMWEwLDAsMCwwLDEsMCwwVjcuNThhLjMuMywwLDAsMSwuMy0uM1oiIHRyYW5zZm9ybT0idHJhbnNsYXRlKDEzLjE4IDE2LjkzKSByb3RhdGUoMTM0LjkyKSIgZmlsbD0iIzUwZTZmZiIvPiYjeGE7ICA8cGF0aCBkPSJNMi41NiwyLjkxSDMuNWEuMy4zLDAsMCwxLC4zLjN2Ny40M2EwLDAsMCwwLDEsMCwwSDIuODZhLjYuNiwwLDAsMS0uNi0uNlYzLjIxYS4zLjMsMCwwLDEsLjMtLjNaIiB0cmFuc2Zvcm09InRyYW5zbGF0ZSg1LjY2IC0wLjE2KSByb3RhdGUoNDQuOTIpIiBmaWxsPSIjMTQ5MGRmIi8+JiN4YTsgIDxwYXRoIGQ9Ik0xNC4xNSw3LjI4aC45NGEuNi42LDAsMCwxLC42LjZ2Ni45NGEuMy4zLDAsMCwxLS4zLjNoLS45NGEuMy4zLDAsMCwxLS4zLS4zVjcuMjhhMCwwLDAsMCwxLDAsMFoiIHRyYW5zZm9ybT0idHJhbnNsYXRlKDEyLjMyIC03LjI4KSByb3RhdGUoNDUuMDgpIiBmaWxsPSIjNTBlNmZmIi8+JiN4YTsgIDxwYXRoIGQ9Ik0xNC44MSwyLjkxaC45NGEwLDAsMCwwLDEsMCwwdjcuNDNhLjMuMywwLDAsMS0uMy4zSDE0LjVhLjMuMywwLDAsMS0uMy0uM1YzLjUxYS42LjYsMCwwLDEsLjYtLjZaIiB0cmFuc2Zvcm09InRyYW5zbGF0ZSgzMC4zNiAwLjk5KSByb3RhdGUoMTM1LjA4KSIgZmlsbD0iIzE0OTBkZiIvPiYjeGE7PC9zdmc+;" vertex="1" parent="ZqZqqDHpZdhVjMUOQdLO-1">
                    <mxGeometry x="170" y="570" width="30" height="17.37" as="geometry"/>
                </mxCell>
                <mxCell id="V95llRUBYu9JeHYfuBcx-1" value="" style="endArrow=classic;html=1;exitX=1;exitY=0.5;exitDx=0;exitDy=0;entryX=0;entryY=0.5;entryDx=0;entryDy=0;fillColor=#d5e8d4;strokeColor=#33FF33;" edge="1" parent="ZqZqqDHpZdhVjMUOQdLO-1" source="ZqZqqDHpZdhVjMUOQdLO-12" target="bWdz6HQkHHCMQT0irS8N-7">
                    <mxGeometry width="50" height="50" relative="1" as="geometry">
                        <mxPoint x="470" y="350" as="sourcePoint"/>
                        <mxPoint x="200" y="315" as="targetPoint"/>
                    </mxGeometry>
                </mxCell>
                <mxCell id="r7a0kl2h0PLFbgiQuw1v-0" value="&lt;font style=&quot;font-size: 8px&quot;&gt;&lt;b&gt;Private Endpoint Subnet&lt;/b&gt;&lt;/font&gt;" style="text;html=1;resizable=0;autosize=1;align=center;verticalAlign=middle;points=[];fillColor=none;strokeColor=none;rounded=0;" vertex="1" parent="ZqZqqDHpZdhVjMUOQdLO-1">
                    <mxGeometry x="353.00000000000006" y="491.02" width="110" height="20" as="geometry"/>
                </mxCell>
                <mxCell id="r7a0kl2h0PLFbgiQuw1v-1" value="" style="whiteSpace=wrap;html=1;fillColor=#E6E6E6;" vertex="1" parent="ZqZqqDHpZdhVjMUOQdLO-1">
                    <mxGeometry x="364.50000000000006" y="417.02" width="87" height="74" as="geometry"/>
                </mxCell>
                <mxCell id="n7aZ79Zm80IVVNKO_jWL-1" value="" style="edgeStyle=orthogonalEdgeStyle;rounded=0;orthogonalLoop=1;jettySize=auto;html=1;exitX=0;exitY=0.5;exitDx=0;exitDy=0;" edge="1" parent="ZqZqqDHpZdhVjMUOQdLO-1" source="bEOxu-37LqY8me0hwXk0-1" target="ETExZQm32kGbXtFIYkIX-0">
                    <mxGeometry relative="1" as="geometry"/>
                </mxCell>
                <mxCell id="bEOxu-37LqY8me0hwXk0-0" value="" style="shape=image;imageAspect=0;aspect=fixed;verticalLabelPosition=bottom;verticalAlign=top;image=data:image/svg+xml,PHN2ZyB4bWxucz0iaHR0cDovL3d3dy53My5vcmcvMjAwMC9zdmciIGlkPSJiYzkzMTY5YS0yNGM0LTQ2ODYtOWYzNy1jN2U0ZjUzYjNkMzQiIHdpZHRoPSIxNyIgaGVpZ2h0PSIxNyIgdmlld0JveD0iMC41MDAwMDA0NzY4MzcxNTgyIDAuNSAxNyAxNyI+JiN4YTsgIDxkZWZzPiYjeGE7ICAgIDxyYWRpYWxHcmFkaWVudCBpZD0iZmIxMTRjOTMtN2MxNi00NTQwLTg5OWEtMDc5NjA0MTYyOWU2IiBjeD0iOSIgY3k9IjkiIHI9IjguNSIgZ3JhZGllbnRVbml0cz0idXNlclNwYWNlT25Vc2UiPiYjeGE7ICAgICAgPHN0b3Agb2Zmc2V0PSIwLjE4IiBzdG9wLWNvbG9yPSIjNWVhMGVmIi8+JiN4YTsgICAgICA8c3RvcCBvZmZzZXQ9IjAuNTYiIHN0b3AtY29sb3I9IiM1YzlmZWUiLz4mI3hhOyAgICAgIDxzdG9wIG9mZnNldD0iMC42OSIgc3RvcC1jb2xvcj0iIzU1OWNlZCIvPiYjeGE7ICAgICAgPHN0b3Agb2Zmc2V0PSIwLjc4IiBzdG9wLWNvbG9yPSIjNGE5N2U5Ii8+JiN4YTsgICAgICA8c3RvcCBvZmZzZXQ9IjAuODYiIHN0b3AtY29sb3I9IiMzOTkwZTQiLz4mI3hhOyAgICAgIDxzdG9wIG9mZnNldD0iMC45MyIgc3RvcC1jb2xvcj0iIzIzODdkZSIvPiYjeGE7ICAgICAgPHN0b3Agb2Zmc2V0PSIwLjk5IiBzdG9wLWNvbG9yPSIjMDg3YmQ2Ii8+JiN4YTsgICAgICA8c3RvcCBvZmZzZXQ9IjEiIHN0b3AtY29sb3I9IiMwMDc4ZDQiLz4mI3hhOyAgICA8L3JhZGlhbEdyYWRpZW50PiYjeGE7ICAgIDxyYWRpYWxHcmFkaWVudCBpZD0iZWM0NzhiZDMtNWIzOC00ZTdmLWI2NjEtMTFmMzU1NTc4YmZmIiBjeD0iMzguOTUiIGN5PSIxODIuMDciIHI9IjkuODgiIGdyYWRpZW50VHJhbnNmb3JtPSJ0cmFuc2xhdGUoLTI4LjcxIC0xNjMuMjQpIHNjYWxlKDAuOTQgMC45NCkiIGdyYWRpZW50VW5pdHM9InVzZXJTcGFjZU9uVXNlIj4mI3hhOyAgICAgIDxzdG9wIG9mZnNldD0iMC4yNyIgc3RvcC1jb2xvcj0iI2ZmZDcwZiIvPiYjeGE7ICAgICAgPHN0b3Agb2Zmc2V0PSIwLjQ5IiBzdG9wLWNvbG9yPSIjZmZjYjEyIi8+JiN4YTsgICAgICA8c3RvcCBvZmZzZXQ9IjAuODgiIHN0b3AtY29sb3I9IiNmZWFjMTkiLz4mI3hhOyAgICAgIDxzdG9wIG9mZnNldD0iMSIgc3RvcC1jb2xvcj0iI2ZlYTExYiIvPiYjeGE7ICAgIDwvcmFkaWFsR3JhZGllbnQ+JiN4YTsgIDwvZGVmcz4mI3hhOyAgPHRpdGxlPkljb24tc2VjdXJpdHktMjQ1PC90aXRsZT4mI3hhOyAgPHBhdGggaWQ9ImFhY2Y4MzExLWEzMTctNDAwZi1iNjEzLTc0YmQwMGRhNWNlMyIgZD0iTTksLjVBOC41LDguNSwwLDEsMCwxNy41LDksOC41MSw4LjUxLDAsMCwwLDksLjVaTTksMTYuMzRBNy4zNCw3LjM0LDAsMSwxLDE2LjM0LDksNy4zNCw3LjM0LDAsMCwxLDksMTYuMzRaIiBmaWxsPSJ1cmwoI2ZiMTE0YzkzLTdjMTYtNDU0MC04OTlhLTA3OTYwNDE2MjllNikiLz4mI3hhOyAgPGNpcmNsZSBjeD0iOSIgY3k9IjkiIHI9IjcuMzQiIGZpbGw9IiNmZmYiLz4mI3hhOyAgPGc+JiN4YTsgICAgPHBhdGggaWQ9ImJkOTgzYzQxLWRiNzMtNDBlYy1hNGY0LWRhMTIxM2ZjOTkyNCIgZD0iTTEzLjQ0LDcuMzNhMS44NCwxLjg0LDAsMCwwLDAtMi41OWgwTDEwLjI5LDEuNThhMS44MywxLjgzLDAsMCwwLTIuNTgsMGgwTDQuNTYsNC43NGExLjg0LDEuODQsMCwwLDAsMCwyLjU5TDcuMTgsMTBhLjUxLjUxLDAsMCwxLC4xNS4zNnY0Ljg4YS42My42MywwLDAsMCwuMTguNDRsMS4yLDEuMmEuNDEuNDEsMCwwLDAsLjU4LDBsMS4xNi0xLjE2aDBsLjY4LS42OGEuMjUuMjUsMCwwLDAsMC0uMzRsLS40OS0uNDlhLjI3LjI3LDAsMCwxLDAtLjM3bC40OS0uNDlhLjI1LjI1LDAsMCwwLDAtLjM0bC0uNDktLjQ5YS4yNy4yNywwLDAsMSwwLS4zN2wuNDktLjQ5YS4yNS4yNSwwLDAsMCwwLS4zNGwtLjY4LS42OXYtLjI1Wk05LDIuMzVBMSwxLDAsMCwxLDksNC40MiwxLDEsMCwxLDEsOSwyLjM1WiIgZmlsbD0idXJsKCNlYzQ3OGJkMy01YjM4LTRlN2YtYjY2MS0xMWYzNTU1NzhiZmYpIi8+JiN4YTsgICAgPHBhdGggaWQ9ImFkMmU3ZTQ0LTliZmQtNDc3NS04YmY0LThlZjI2YTU0NDkyMSIgZD0iTTguMTgsMTUuM2gwYS4yMy4yMywwLDAsMCwuMzgtLjE3di00YS4yNC4yNCwwLDAsMC0uMTEtLjJoMGEuMjIuMjIsMCwwLDAtLjM0LjJ2NEEuMjguMjgsMCwwLDAsOC4xOCwxNS4zWiIgZmlsbD0iI2ZmOTMwMCIgb3BhY2l0eT0iMC43NSIvPiYjeGE7ICAgIDxyZWN0IGlkPSJhOTk2ZmJmZi0zOTM2LTRiMjQtYjQwNy0zNjkzMzZjMTQzYmEiIHg9IjYuNDgiIHk9IjUuNzkiIHdpZHRoPSI1LjE3IiBoZWlnaHQ9IjAuNjEiIHJ4PSIwLjI4IiBmaWxsPSIjZmY5MzAwIiBvcGFjaXR5PSIwLjc1Ii8+JiN4YTsgICAgPHJlY3QgaWQ9ImJiMTJkMzFjLTMzNTItNGExOC04N2RkLWExNjlhNGE4NzIxZCIgeD0iNi40OCIgeT0iNi43OCIgd2lkdGg9IjUuMTciIGhlaWdodD0iMC42MSIgcng9IjAuMjgiIGZpbGw9IiNmZjkzMDAiIG9wYWNpdHk9IjAuNzUiLz4mI3hhOyAgPC9nPiYjeGE7PC9zdmc+;" vertex="1" parent="ZqZqqDHpZdhVjMUOQdLO-1">
                    <mxGeometry x="689.9999999999999" y="469.30999999999995" width="30" height="30" as="geometry"/>
                </mxCell>
                <mxCell id="n7aZ79Zm80IVVNKO_jWL-2" value="" style="edgeStyle=orthogonalEdgeStyle;rounded=0;orthogonalLoop=1;jettySize=auto;html=1;exitX=0;exitY=0.5;exitDx=0;exitDy=0;" edge="1" parent="ZqZqqDHpZdhVjMUOQdLO-1" source="bEOxu-37LqY8me0hwXk0-0" target="n7aZ79Zm80IVVNKO_jWL-0">
                    <mxGeometry relative="1" as="geometry"/>
                </mxCell>
                <mxCell id="OqwR63_7DlpEkzlskBYJ-1" value="" style="edgeStyle=orthogonalEdgeStyle;rounded=0;orthogonalLoop=1;jettySize=auto;html=1;strokeColor=#33FF33;" edge="1" parent="ZqZqqDHpZdhVjMUOQdLO-1" source="bEOxu-37LqY8me0hwXk0-1" target="OqwR63_7DlpEkzlskBYJ-0">
                    <mxGeometry relative="1" as="geometry"/>
                </mxCell>
                <mxCell id="bEOxu-37LqY8me0hwXk0-1" value="" style="shape=image;verticalLabelPosition=bottom;labelBackgroundColor=#ffffff;verticalAlign=top;aspect=fixed;imageAspect=0;image=data:image/svg+xml,PHN2ZyB4bWxucz0iaHR0cDovL3d3dy53My5vcmcvMjAwMC9zdmciIGlkPSJiNzBhY2YwYS0zNGI0LTRiZGYtOTAyNC03NDk2MDQzZmY5MTUiIHdpZHRoPSIxNi45Njc2MjQ2NjQzMDY2NCIgaGVpZ2h0PSIxNi45NzE1MTk0NzAyMTQ4NDQiIHZpZXdCb3g9IjAuNDk2OTEyNzQ3NjIxNTM2MjUgMC41MzE1Njk0MjEyOTEzNTEzIDE2Ljk2NzYyNDY2NDMwNjY0IDE2Ljk3MTUxOTQ3MDIxNDg0NCI+CiAgPGRlZnM+CiAgICA8cmFkaWFsR3JhZGllbnQgaWQ9ImUyY2Y4NzQ2LWM5YTgtNGVlZS04NmMyLTQ5NTE5ODNjNjAzMiIgY3g9IjEzNDI4LjgxIiBjeT0iMzUxOC44NiIgcj0iNTYuNjciIGdyYWRpZW50VHJhbnNmb3JtPSJ0cmFuc2xhdGUoLTIwMDUuMzMgLTUxOC44Mykgc2NhbGUoMC4xNSkiIGdyYWRpZW50VW5pdHM9InVzZXJTcGFjZU9uVXNlIj4KICAgICAgPHN0b3Agb2Zmc2V0PSIwLjE4IiBzdG9wLWNvbG9yPSIjNWVhMGVmIi8+CiAgICAgIDxzdG9wIG9mZnNldD0iMSIgc3RvcC1jb2xvcj0iIzAwNzhkNCIvPgogICAgPC9yYWRpYWxHcmFkaWVudD4KICAgIDxsaW5lYXJHcmFkaWVudCBpZD0iYmRkMjEzZGQtZDMxMy00NzNjLThmZjQtMDEzM2ZkM2E5MDMzIiB4MT0iNC40IiB5MT0iMTEuNDgiIHgyPSI0LjM3IiB5Mj0iNy41MyIgZ3JhZGllbnRVbml0cz0idXNlclNwYWNlT25Vc2UiPgogICAgICA8c3RvcCBvZmZzZXQ9IjAiIHN0b3AtY29sb3I9IiNjY2MiLz4KICAgICAgPHN0b3Agb2Zmc2V0PSIxIiBzdG9wLWNvbG9yPSIjZmNmY2ZjIi8+CiAgICA8L2xpbmVhckdyYWRpZW50PgogICAgPGxpbmVhckdyYWRpZW50IGlkPSJhZmNjNjNjNS0zNjQ5LTQ0NzYtYTc0Mi1iY2I1M2E1NjlmM2MiIHgxPSIxMC4xMyIgeTE9IjE1LjQ1IiB4Mj0iMTAuMTMiIHkyPSIxMS45IiBncmFkaWVudFVuaXRzPSJ1c2VyU3BhY2VPblVzZSI+CiAgICAgIDxzdG9wIG9mZnNldD0iMCIgc3RvcC1jb2xvcj0iI2NjYyIvPgogICAgICA8c3RvcCBvZmZzZXQ9IjEiIHN0b3AtY29sb3I9IiNmY2ZjZmMiLz4KICAgIDwvbGluZWFyR3JhZGllbnQ+CiAgICA8bGluZWFyR3JhZGllbnQgaWQ9ImJkODczZjBiLTk5NTQtNGFhNS1hM2RmLTlmNGM2NGU4NzI5ZCIgeDE9IjE0LjE4IiB5MT0iMTEuMTUiIHgyPSIxNC4xOCIgeTI9IjcuMzgiIGdyYWRpZW50VW5pdHM9InVzZXJTcGFjZU9uVXNlIj4KICAgICAgPHN0b3Agb2Zmc2V0PSIwIiBzdG9wLWNvbG9yPSIjY2NjIi8+CiAgICAgIDxzdG9wIG9mZnNldD0iMSIgc3RvcC1jb2xvcj0iI2ZjZmNmYyIvPgogICAgPC9saW5lYXJHcmFkaWVudD4KICA8L2RlZnM+CiAgPHRpdGxlPkljb24td2ViLTQxPC90aXRsZT4KICA8cGF0aCBpZD0iZWU3NWRkMDYtMWFjYS00Zjc2LTlkMTEtZDA1YTI4NDAyMGFkIiBkPSJNMTQuMjEsMTUuNzJBOC41LDguNSwwLDAsMSwzLjc5LDIuMjhsLjA5LS4wNmE4LjUsOC41LDAsMCwxLDEwLjMzLDEzLjUiIGZpbGw9InVybCgjZTJjZjg3NDYtYzlhOC00ZWVlLTg2YzItNDk1MTk4M2M2MDMyKSIvPgogIDxwYXRoIGQ9Ik02LjY5LDcuMjNBMTMsMTMsMCwwLDEsMTUuNiwzLjY1YTguNDcsOC40NywwLDAsMC0xLjQ5LTEuNDQsMTQuMzQsMTQuMzQsMCwwLDAtNC42OSwxLjFBMTIuNTQsMTIuNTQsMCwwLDAsNS4zNCw2LjEzLDIuNzYsMi43NiwwLDAsMSw2LjY5LDcuMjNaIiBmaWxsPSIjZmZmIiBvcGFjaXR5PSIwLjYiLz4KICA8cGF0aCBkPSJNMi40OCwxMC42NWExNy44NiwxNy44NiwwLDAsMC0uODMsMi42Miw3LjgyLDcuODIsMCwwLDAsLjYyLjkyYy4xOC4yMy4zNS40NC41NS42NUExNy45NCwxNy45NCwwLDAsMSwzLjksMTEuMzcsMi43NiwyLjc2LDAsMCwxLDIuNDgsMTAuNjVaIiBmaWxsPSIjZmZmIiBvcGFjaXR5PSIwLjYiLz4KICA8cGF0aCBkPSJNMy40Niw2LjExYTEyLDEyLDAsMCwxLS42OS0yLjk0LDguMTUsOC4xNSwwLDAsMC0xLjEsMS40NUExMi42OSwxMi42OSwwLDAsMCwyLjI0LDcsMi42OSwyLjY5LDAsMCwxLDMuNDYsNi4xMVoiIGZpbGw9IiNmMmYyZjIiIG9wYWNpdHk9IjAuNTUiLz4KICA8Y2lyY2xlIGN4PSI0LjM4IiBjeT0iOC42OCIgcj0iMi43MyIgZmlsbD0idXJsKCNiZGQyMTNkZC1kMzEzLTQ3M2MtOGZmNC0wMTMzZmQzYTkwMzMpIi8+CiAgPHBhdGggZD0iTTguMzYsMTMuNjdBMS43NywxLjc3LDAsMCwxLDguOSwxMi40YTExLjg4LDExLjg4LDAsMCwxLTIuNTMtMS44NiwyLjc0LDIuNzQsMCwwLDEtMS40OS44MywxMy4xLDEzLjEsMCwwLDAsMS40NSwxLjI4QTEyLjEyLDEyLjEyLDAsMCwwLDguMzgsMTMuOSwxLjc5LDEuNzksMCwwLDEsOC4zNiwxMy42N1oiIGZpbGw9IiNmMmYyZjIiIG9wYWNpdHk9IjAuNTUiLz4KICA8cGF0aCBkPSJNMTQuNjYsMTMuODhhMTIsMTIsMCwwLDEtMi43Ni0uMzIuNDEuNDEsMCwwLDEsMCwuMTEsMS43NSwxLjc1LDAsMCwxLS41MSwxLjI0LDEzLjY5LDEzLjY5LDAsMCwwLDMuNDIuMjRBOC4yMSw4LjIxLDAsMCwwLDE2LDEzLjgxLDExLjUsMTEuNSwwLDAsMSwxNC42NiwxMy44OFoiIGZpbGw9IiNmMmYyZjIiIG9wYWNpdHk9IjAuNTUiLz4KICA8Y2lyY2xlIGN4PSIxMC4xMyIgY3k9IjEzLjY3IiByPSIxLjc4IiBmaWxsPSJ1cmwoI2FmY2M2M2M1LTM2NDktNDQ3Ni1hNzQyLWJjYjUzYTU2OWYzYykiLz4KICA8cGF0aCBkPSJNMTIuMzIsOC45M2ExLjgzLDEuODMsMCwwLDEsLjYxLTFBMjUuNSwyNS41LDAsMCwxLDguNDcsMy43OWExNi45MSwxNi45MSwwLDAsMS0yLTIuOTIsNy42NCw3LjY0LDAsMCwwLTEuMDkuNDJBMTguMTQsMTguMTQsMCwwLDAsNy41Myw0LjQ3LDI2LjQ0LDI2LjQ0LDAsMCwwLDEyLjMyLDguOTNaIiBmaWxsPSIjZjJmMmYyIiBvcGFjaXR5PSIwLjciLz4KICA8Y2lyY2xlIGN4PSIxNC4xOCIgY3k9IjkuMjciIHI9IjEuODkiIGZpbGw9InVybCgjYmQ4NzNmMGItOTk1NC00YWE1LWEzZGYtOWY0YzY0ZTg3MjlkKSIvPgogIDxwYXRoIGQ9Ik0xNy4zNSwxMC41NCwxNywxMC4zN2wwLDAtLjMtLjE2LS4wNiwwTDE2LjM4LDEwbC0uMDcsMEwxNiw5LjhhMS43NiwxLjc2LDAsMCwxLS42NC45MmMuMTIuMDguMjUuMTUuMzguMjJsLjA4LjA1LjM1LjE5LDAsMCwuODYuNDVoMGE4LjYzLDguNjMsMCwwLDAsLjI5LTEuMTFaIiBmaWxsPSIjZjJmMmYyIiBvcGFjaXR5PSIwLjU1Ii8+CiAgPGNpcmNsZSBjeD0iNC4zOCIgY3k9IjguNjgiIHI9IjIuNzMiIGZpbGw9InVybCgjYmRkMjEzZGQtZDMxMy00NzNjLThmZjQtMDEzM2ZkM2E5MDMzKSIvPgogIDxjaXJjbGUgY3g9IjEwLjEzIiBjeT0iMTMuNjciIHI9IjEuNzgiIGZpbGw9InVybCgjYWZjYzYzYzUtMzY0OS00NDc2LWE3NDItYmNiNTNhNTY5ZjNjKSIvPgo8L3N2Zz4=;" vertex="1" parent="ZqZqqDHpZdhVjMUOQdLO-1">
                    <mxGeometry x="690.15" y="410.73" width="29.85" height="29.85" as="geometry"/>
                </mxCell>
                <mxCell id="SSvgXQnE2tYXqkWJwbKO-2" value="" style="edgeStyle=orthogonalEdgeStyle;rounded=0;orthogonalLoop=1;jettySize=auto;html=1;strokeColor=#000000;entryX=1;entryY=0.75;entryDx=0;entryDy=0;" edge="1" parent="ZqZqqDHpZdhVjMUOQdLO-1" source="ETExZQm32kGbXtFIYkIX-0" target="SSvgXQnE2tYXqkWJwbKO-1">
                    <mxGeometry relative="1" as="geometry"/>
                </mxCell>
                <mxCell id="ETExZQm32kGbXtFIYkIX-0" value="" style="shape=image;imageAspect=0;aspect=fixed;verticalLabelPosition=bottom;verticalAlign=top;image=data:image/svg+xml,PHN2ZyB4bWxucz0iaHR0cDovL3d3dy53My5vcmcvMjAwMC9zdmciIHdpZHRoPSIxOC4wMDA4NjAyMTQyMzM0IiBoZWlnaHQ9IjEwLjQyMDkxODQ2NDY2MDY0NSIgdmlld0JveD0iLTAuMDAxNTU1NDk4ODA1ODI4MzkyNSAzLjc5NDMwNDEzMjQ2MTU0OCAxOC4wMDA4NjAyMTQyMzM0IDEwLjQyMDkxODQ2NDY2MDY0NSI+JiN4YTsgIDxkZWZzPiYjeGE7ICAgIDxsaW5lYXJHcmFkaWVudCBpZD0iZWUzOTVkN2QtOWUxMS00MDkzLWI0NTUtOWI2Y2E5ZTE1YTYzIiB4MT0iNy42OTkiIHkxPSI5NTYuMDc2IiB4Mj0iNy42OTkiIHkyPSI5NjAuNTY3IiBncmFkaWVudFRyYW5zZm9ybT0idHJhbnNsYXRlKDAgLTk1MCkiIGdyYWRpZW50VW5pdHM9InVzZXJTcGFjZU9uVXNlIj4mI3hhOyAgICAgIDxzdG9wIG9mZnNldD0iMC4yMyIgc3RvcC1jb2xvcj0iIzVlYTBlZiIvPiYjeGE7ICAgICAgPHN0b3Agb2Zmc2V0PSIwLjkzIiBzdG9wLWNvbG9yPSIjMTI3ZmQ5Ii8+JiN4YTsgICAgPC9saW5lYXJHcmFkaWVudD4mI3hhOyAgICA8bGluZWFyR3JhZGllbnQgaWQ9ImI4MTA1MzI4LWMyYzQtNDkyMy04ZDE4LTZjODQ0ZThhMzg5ZSIgeDE9IjkuOTI3IiB5MT0iOTU3Ljk0NyIgeDI9IjkuOTI3IiB5Mj0iOTYyLjQzOCIgZ3JhZGllbnRUcmFuc2Zvcm09InRyYW5zbGF0ZSgwIC05NTApIiBncmFkaWVudFVuaXRzPSJ1c2VyU3BhY2VPblVzZSI+JiN4YTsgICAgICA8c3RvcCBvZmZzZXQ9IjAuMDIiIHN0b3AtY29sb3I9IiM1ZWEwZWYiLz4mI3hhOyAgICAgIDxzdG9wIG9mZnNldD0iMC45MyIgc3RvcC1jb2xvcj0iIzEyN2ZkOSIvPiYjeGE7ICAgIDwvbGluZWFyR3JhZGllbnQ+JiN4YTsgIDwvZGVmcz4mI3hhOyAgPGcgaWQ9ImE1MjI5ZTdhLTJjNzgtNGRiOS05OWNjLWNhN2ZiZTY0MzY4YiI+JiN4YTsgICAgPGc+JiN4YTsgICAgICA8cGF0aCBkPSJNOC41ODgsNi4wNzZoLTEuOGEyLjI0NiwyLjI0NiwwLDAsMC0uMzQ4LDQuNDYxQTIuNDA5LDIuNDA5LDAsMCwxLDYuNDY2LDkuN2ExLjQxOCwxLjQxOCwwLDAsMSwuMzI2LTIuOGgxLjhhMS40MjIsMS40MjIsMCwwLDEsMCwyLjg0NEg4LjA5NGExLjA3LDEuMDcsMCwwLDAtLjEuNDQ5LDEuMDE4LDEuMDE4LDAsMCwwLC4wNzEuMzc0aC41MjdhMi4yNDYsMi4yNDYsMCwxLDAsMC00LjQ5MVoiIGZpbGw9InVybCgjZWUzOTVkN2QtOWUxMS00MDkzLWI0NTUtOWI2Y2E5ZTE1YTYzKSIvPiYjeGE7ICAgICAgPHBhdGggZD0iTTExLjE4Miw3Ljk3N2EyLjY0NCwyLjY0NCwwLDAsMSwuMDI2LjM0NSwyLjMwOCwyLjMwOCwwLDAsMS0uMDQ5LjQ5LDEuNDE4LDEuNDE4LDAsMCwxLS4zMjUsMi44aC0xLjhhMS40MjIsMS40MjIsMCwwLDEsMC0yLjg0NGguNDk0YTEuMDQ1LDEuMDQ1LDAsMCwwLC4xLS40NDksMS4wMjgsMS4wMjgsMCwwLDAtLjA3MS0uMzc1SDkuMDM3YTIuMjQ2LDIuMjQ2LDAsMCwwLDAsNC40OTFoMS44YTIuMjQ2LDIuMjQ2LDAsMCwwLC4zNDgtNC40NjFaIiBmaWxsPSJ1cmwoI2I4MTA1MzI4LWMyYzQtNDkyMy04ZDE4LTZjODQ0ZThhMzg5ZSkiLz4mI3hhOyAgICAgIDxwYXRoIGQ9Ik01LjU4LDEzLjM4MWwtLjQxMi40MTZhLjI4Mi4yODIsMCwwLDEtLjQsMEwuMTY0LDkuMmEuNTY2LjU2NiwwLDAsMSwwLS44TC41OCw3Ljk5Mmw1LDQuOTkzYS4yNzYuMjc2LDAsMCwxLDAsLjM5MWgwWiIgZmlsbD0iIzUwZTZmZiIvPiYjeGE7ICAgICAgPHBhdGggZD0iTTUuMDgyLDMuODc2bC40Ni40NmEuMjgyLjI4MiwwLDAsMSwwLC40TC42MjUsOS42NjUuMTY0LDkuMjA5YS41NjYuNTY2LDAsMCwxLDAtLjhMNC42ODUsMy44NzZBLjI4Mi4yODIsMCwwLDEsNS4wODIsMy44NzZaIiBmaWxsPSIjMTQ5MGRmIi8+JiN4YTsgICAgICA8cGF0aCBkPSJNMTIuNDE3LDEzLjcwN2EuMjc2LjI3NiwwLDAsMS0uMDA2LS4zOTFoMGwuMDA2LDAsNS00Ljk4OC40MTYuNDE1YS41NjYuNTY2LDAsMCwxLDAsLjhsLTQuNjExLDQuNTg4YS4yNzYuMjc2LDAsMCwxLS4zOTEuMDA2aDBsLS4wMDYtLjAwNVoiIGZpbGw9IiM1MGU2ZmYiLz4mI3hhOyAgICAgIDxwYXRoIGQ9Ik0xMy4zMTEsNC4yMDVsNC41MjUsNC41MzZhLjU2My41NjMsMCwwLDEsMCwuNzkzbC0uNDYxLjQ2TDEyLjQ1NCw1LjA2MmEuMjg3LjI4NywwLDAsMSwwLS40bC40Ni0uNDU3QS4yODIuMjgyLDAsMCwxLDEzLjMxMSw0LjIwNVoiIGZpbGw9IiMxNDkwZGYiLz4mI3hhOyAgICA8L2c+JiN4YTsgIDwvZz4mI3hhOzwvc3ZnPg==;" vertex="1" parent="ZqZqqDHpZdhVjMUOQdLO-1">
                    <mxGeometry x="595.19" y="417.02" width="33.31" height="18.51" as="geometry"/>
                </mxCell>
                <mxCell id="SSvgXQnE2tYXqkWJwbKO-3" value="" style="edgeStyle=orthogonalEdgeStyle;rounded=0;orthogonalLoop=1;jettySize=auto;html=1;strokeColor=#000000;entryX=1;entryY=0.75;entryDx=0;entryDy=0;" edge="1" parent="ZqZqqDHpZdhVjMUOQdLO-1" source="n7aZ79Zm80IVVNKO_jWL-0" target="SSvgXQnE2tYXqkWJwbKO-0">
                    <mxGeometry relative="1" as="geometry"/>
                </mxCell>
                <mxCell id="n7aZ79Zm80IVVNKO_jWL-0" value="" style="shape=image;imageAspect=0;aspect=fixed;verticalLabelPosition=bottom;verticalAlign=top;image=data:image/svg+xml,PHN2ZyB4bWxucz0iaHR0cDovL3d3dy53My5vcmcvMjAwMC9zdmciIHdpZHRoPSIxOC4wMDA4NjAyMTQyMzM0IiBoZWlnaHQ9IjEwLjQyMDkxODQ2NDY2MDY0NSIgdmlld0JveD0iLTAuMDAxNTU1NDk4ODA1ODI4MzkyNSAzLjc5NDMwNDEzMjQ2MTU0OCAxOC4wMDA4NjAyMTQyMzM0IDEwLjQyMDkxODQ2NDY2MDY0NSI+JiN4YTsgIDxkZWZzPiYjeGE7ICAgIDxsaW5lYXJHcmFkaWVudCBpZD0iZWUzOTVkN2QtOWUxMS00MDkzLWI0NTUtOWI2Y2E5ZTE1YTYzIiB4MT0iNy42OTkiIHkxPSI5NTYuMDc2IiB4Mj0iNy42OTkiIHkyPSI5NjAuNTY3IiBncmFkaWVudFRyYW5zZm9ybT0idHJhbnNsYXRlKDAgLTk1MCkiIGdyYWRpZW50VW5pdHM9InVzZXJTcGFjZU9uVXNlIj4mI3hhOyAgICAgIDxzdG9wIG9mZnNldD0iMC4yMyIgc3RvcC1jb2xvcj0iIzVlYTBlZiIvPiYjeGE7ICAgICAgPHN0b3Agb2Zmc2V0PSIwLjkzIiBzdG9wLWNvbG9yPSIjMTI3ZmQ5Ii8+JiN4YTsgICAgPC9saW5lYXJHcmFkaWVudD4mI3hhOyAgICA8bGluZWFyR3JhZGllbnQgaWQ9ImI4MTA1MzI4LWMyYzQtNDkyMy04ZDE4LTZjODQ0ZThhMzg5ZSIgeDE9IjkuOTI3IiB5MT0iOTU3Ljk0NyIgeDI9IjkuOTI3IiB5Mj0iOTYyLjQzOCIgZ3JhZGllbnRUcmFuc2Zvcm09InRyYW5zbGF0ZSgwIC05NTApIiBncmFkaWVudFVuaXRzPSJ1c2VyU3BhY2VPblVzZSI+JiN4YTsgICAgICA8c3RvcCBvZmZzZXQ9IjAuMDIiIHN0b3AtY29sb3I9IiM1ZWEwZWYiLz4mI3hhOyAgICAgIDxzdG9wIG9mZnNldD0iMC45MyIgc3RvcC1jb2xvcj0iIzEyN2ZkOSIvPiYjeGE7ICAgIDwvbGluZWFyR3JhZGllbnQ+JiN4YTsgIDwvZGVmcz4mI3hhOyAgPGcgaWQ9ImE1MjI5ZTdhLTJjNzgtNGRiOS05OWNjLWNhN2ZiZTY0MzY4YiI+JiN4YTsgICAgPGc+JiN4YTsgICAgICA8cGF0aCBkPSJNOC41ODgsNi4wNzZoLTEuOGEyLjI0NiwyLjI0NiwwLDAsMC0uMzQ4LDQuNDYxQTIuNDA5LDIuNDA5LDAsMCwxLDYuNDY2LDkuN2ExLjQxOCwxLjQxOCwwLDAsMSwuMzI2LTIuOGgxLjhhMS40MjIsMS40MjIsMCwwLDEsMCwyLjg0NEg4LjA5NGExLjA3LDEuMDcsMCwwLDAtLjEuNDQ5LDEuMDE4LDEuMDE4LDAsMCwwLC4wNzEuMzc0aC41MjdhMi4yNDYsMi4yNDYsMCwxLDAsMC00LjQ5MVoiIGZpbGw9InVybCgjZWUzOTVkN2QtOWUxMS00MDkzLWI0NTUtOWI2Y2E5ZTE1YTYzKSIvPiYjeGE7ICAgICAgPHBhdGggZD0iTTExLjE4Miw3Ljk3N2EyLjY0NCwyLjY0NCwwLDAsMSwuMDI2LjM0NSwyLjMwOCwyLjMwOCwwLDAsMS0uMDQ5LjQ5LDEuNDE4LDEuNDE4LDAsMCwxLS4zMjUsMi44aC0xLjhhMS40MjIsMS40MjIsMCwwLDEsMC0yLjg0NGguNDk0YTEuMDQ1LDEuMDQ1LDAsMCwwLC4xLS40NDksMS4wMjgsMS4wMjgsMCwwLDAtLjA3MS0uMzc1SDkuMDM3YTIuMjQ2LDIuMjQ2LDAsMCwwLDAsNC40OTFoMS44YTIuMjQ2LDIuMjQ2LDAsMCwwLC4zNDgtNC40NjFaIiBmaWxsPSJ1cmwoI2I4MTA1MzI4LWMyYzQtNDkyMy04ZDE4LTZjODQ0ZThhMzg5ZSkiLz4mI3hhOyAgICAgIDxwYXRoIGQ9Ik01LjU4LDEzLjM4MWwtLjQxMi40MTZhLjI4Mi4yODIsMCwwLDEtLjQsMEwuMTY0LDkuMmEuNTY2LjU2NiwwLDAsMSwwLS44TC41OCw3Ljk5Mmw1LDQuOTkzYS4yNzYuMjc2LDAsMCwxLDAsLjM5MWgwWiIgZmlsbD0iIzUwZTZmZiIvPiYjeGE7ICAgICAgPHBhdGggZD0iTTUuMDgyLDMuODc2bC40Ni40NmEuMjgyLjI4MiwwLDAsMSwwLC40TC42MjUsOS42NjUuMTY0LDkuMjA5YS41NjYuNTY2LDAsMCwxLDAtLjhMNC42ODUsMy44NzZBLjI4Mi4yODIsMCwwLDEsNS4wODIsMy44NzZaIiBmaWxsPSIjMTQ5MGRmIi8+JiN4YTsgICAgICA8cGF0aCBkPSJNMTIuNDE3LDEzLjcwN2EuMjc2LjI3NiwwLDAsMS0uMDA2LS4zOTFoMGwuMDA2LDAsNS00Ljk4OC40MTYuNDE1YS41NjYuNTY2LDAsMCwxLDAsLjhsLTQuNjExLDQuNTg4YS4yNzYuMjc2LDAsMCwxLS4zOTEuMDA2aDBsLS4wMDYtLjAwNVoiIGZpbGw9IiM1MGU2ZmYiLz4mI3hhOyAgICAgIDxwYXRoIGQ9Ik0xMy4zMTEsNC4yMDVsNC41MjUsNC41MzZhLjU2My41NjMsMCwwLDEsMCwuNzkzbC0uNDYxLjQ2TDEyLjQ1NCw1LjA2MmEuMjg3LjI4NywwLDAsMSwwLS40bC40Ni0uNDU3QS4yODIuMjgyLDAsMCwxLDEzLjMxMSw0LjIwNVoiIGZpbGw9IiMxNDkwZGYiLz4mI3hhOyAgICA8L2c+JiN4YTsgIDwvZz4mI3hhOzwvc3ZnPg==;" vertex="1" parent="ZqZqqDHpZdhVjMUOQdLO-1">
                    <mxGeometry x="595.19" y="475.66999999999996" width="33.31" height="18.51" as="geometry"/>
                </mxCell>
                <mxCell id="SSvgXQnE2tYXqkWJwbKO-0" value="" style="shape=image;imageAspect=0;aspect=fixed;verticalLabelPosition=bottom;verticalAlign=top;image=data:image/svg+xml,PHN2ZyB4bWxucz0iaHR0cDovL3d3dy53My5vcmcvMjAwMC9zdmciIHdpZHRoPSIxOC4wMDM4NjA0NzM2MzI4MTIiIGhlaWdodD0iMTYuNzA3ODA5NDQ4MjQyMTg4IiB2aWV3Qm94PSItMC4wMDQ1NTU5ODA2NzQ5MjI0NjYgMC42NDk5OTk2NzgxMzQ5MTgyIDE4LjAwMzg2MDQ3MzYzMjgxMiAxNi43MDc4MDk0NDgyNDIxODgiPiYjeGE7ICA8ZGVmcz4mI3hhOyAgICA8bGluZWFyR3JhZGllbnQgaWQ9ImZkMDYxMjI4LTIyYmUtNDI1ZS05MTMxLTBiOGNjYTBlNWQxNyIgeDE9IjcuNjk5IiB5MT0iMjU5LjIyIiB4Mj0iNy42OTkiIHkyPSIyNjMuNzExIiBncmFkaWVudFRyYW5zZm9ybT0idHJhbnNsYXRlKDAgLTI1MCkiIGdyYWRpZW50VW5pdHM9InVzZXJTcGFjZU9uVXNlIj4mI3hhOyAgICAgIDxzdG9wIG9mZnNldD0iMC4yMyIgc3RvcC1jb2xvcj0iIzVlYTBlZiIvPiYjeGE7ICAgICAgPHN0b3Agb2Zmc2V0PSIwLjMyIiBzdG9wLWNvbG9yPSIjNWI5ZmVlIi8+JiN4YTsgICAgICA8c3RvcCBvZmZzZXQ9IjAuNDgiIHN0b3AtY29sb3I9IiM1MDlhZWIiLz4mI3hhOyAgICAgIDxzdG9wIG9mZnNldD0iMC41NyIgc3RvcC1jb2xvcj0iIzNmOTJlNiIvPiYjeGE7ICAgICAgPHN0b3Agb2Zmc2V0PSIwLjc1IiBzdG9wLWNvbG9yPSIjMjY4OGRmIi8+JiN4YTsgICAgICA8c3RvcCBvZmZzZXQ9IjAuOTMiIHN0b3AtY29sb3I9IiMxMjdmZDkiLz4mI3hhOyAgICA8L2xpbmVhckdyYWRpZW50PiYjeGE7ICAgIDxsaW5lYXJHcmFkaWVudCBpZD0iZWE5NjQ5YTYtMDRiNS00N2Q2LTgyNDctZWQzYWI5ZmY5ZDA2IiB4MT0iOS45MjciIHkxPSIyNjEuMDkxIiB4Mj0iOS45MjciIHkyPSIyNjUuNTgyIiBncmFkaWVudFRyYW5zZm9ybT0idHJhbnNsYXRlKDAgLTI1MCkiIGdyYWRpZW50VW5pdHM9InVzZXJTcGFjZU9uVXNlIj4mI3hhOyAgICAgIDxzdG9wIG9mZnNldD0iMC4wMiIgc3RvcC1jb2xvcj0iIzVlYTBlZiIvPiYjeGE7ICAgICAgPHN0b3Agb2Zmc2V0PSIwLjE0IiBzdG9wLWNvbG9yPSIjNWI5ZmVlIi8+JiN4YTsgICAgICA8c3RvcCBvZmZzZXQ9IjAuMjMiIHN0b3AtY29sb3I9IiM1YjlmZWUiLz4mI3hhOyAgICAgIDxzdG9wIG9mZnNldD0iMC4zNCIgc3RvcC1jb2xvcj0iIzUwOWFlYiIvPiYjeGE7ICAgICAgPHN0b3Agb2Zmc2V0PSIwLjQ0IiBzdG9wLWNvbG9yPSIjM2Y5MmU2Ii8+JiN4YTsgICAgICA8c3RvcCBvZmZzZXQ9IjAuNjMiIHN0b3AtY29sb3I9IiMyNjg4ZGYiLz4mI3hhOyAgICAgIDxzdG9wIG9mZnNldD0iMC45MyIgc3RvcC1jb2xvcj0iIzEyN2ZkOSIvPiYjeGE7ICAgIDwvbGluZWFyR3JhZGllbnQ+JiN4YTsgIDwvZGVmcz4mI3hhOyAgPHBhdGggZD0iTTguMjUyLDIuNTIxSDkuMzc0VjkuNTk0SDguMjUyWiIgZmlsbD0iIzdhN2E3YSIvPiYjeGE7ICA8cGF0aCBkPSJNMTAuNDU5LDIuM0ExLjY0NywxLjY0NywwLDEsMSw4LjgxMy42NWgwQTEuNjQ2LDEuNjQ2LDAsMCwxLDEwLjQ1OSwyLjNaIiBmaWxsPSIjMTQ5MGRmIi8+JiN4YTsgIDxwYXRoIGQ9Ik04LjU4OCw5LjIyaC0xLjhhMi4yNDYsMi4yNDYsMCwwLDAtLjM0OCw0LjQ2MSwyLjQxNSwyLjQxNSwwLDAsMSwuMDIyLS44MzUsMS40MTgsMS40MTgsMCwwLDEsLjMyNi0yLjhoMS44YTEuNDIyLDEuNDIyLDAsMCwxLDAsMi44NDRIOC4wOTRhMS4wNzgsMS4wNzgsMCwwLDAtLjEuNDUsMS4wMjIsMS4wMjIsMCwwLDAsLjA3MS4zNzRoLjUyN2EyLjI0NiwyLjI0NiwwLDEsMCwwLTQuNDkxWiIgZmlsbD0idXJsKCNmZDA2MTIyOC0yMmJlLTQyNWUtOTEzMS0wYjhjY2EwZTVkMTcpIi8+JiN4YTsgIDxwYXRoIGQ9Ik0xMS4xODIsMTEuMTIxYTIuNjQyLDIuNjQyLDAsMCwxLC4wMjYuMzQ0LDIuMzE3LDIuMzE3LDAsMCwxLS4wNDkuNDkxLDEuNDE4LDEuNDE4LDAsMCwxLS4zMjUsMi44aC0xLjhhMS40MjMsMS40MjMsMCwwLDEsMC0yLjg0NWguNDk0YTEuMDQyLDEuMDQyLDAsMCwwLC4xLS40NDksMS4wMTgsMS4wMTgsMCwwLDAtLjA3MS0uMzc0SDkuMDM3YTIuMjQ2LDIuMjQ2LDAsMCwwLDAsNC40OTFoMS44YTIuMjQ2LDIuMjQ2LDAsMCwwLC4zNDgtNC40NjFaIiBmaWxsPSJ1cmwoI2VhOTY0OWE2LTA0YjUtNDdkNi04MjQ3LWVkM2FiOWZmOWQwNikiLz4mI3hhOyAgPHBhdGggZD0iTTUuNTgsMTYuNTI1bC0uNDEyLjQxNWEuMjguMjgsMCwwLDEtLjQsMGwtNC42MDctNC42YS41NjYuNTY2LDAsMCwxLDAtLjhsLjQxNi0uNDEyLDUsNC45OTJhLjI3Ni4yNzYsMCwwLDEsMCwuMzkxaDBaIiBmaWxsPSIjNTBlNmZmIi8+JiN4YTsgIDxwYXRoIGQ9Ik01LjA4Miw3LjAybC40Ni40NmEuMjgyLjI4MiwwLDAsMSwwLC40TC42MjUsMTIuODA5bC0uNDYxLS40NTdhLjU2Ni41NjYsMCwwLDEsMC0uOEw0LjY4NSw3LjAyQS4yOC4yOCwwLDAsMSw1LjA4Miw3LjAyWiIgZmlsbD0iIzE0OTBkZiIvPiYjeGE7ICA8cGF0aCBkPSJNMTIuNDE3LDE2Ljg1MWEuMjc4LjI3OCwwLDAsMS0uMDA2LS4zOTJoMGwuMDA2LDAsNS00Ljk4OS40MTYuNDE2YS41NjYuNTY2LDAsMCwxLDAsLjhsLTQuNjExLDQuNTg4YS4yNzcuMjc3LDAsMCwxLS4zOTEuMDA2aDBsLS4wMDYtLjAwNVoiIGZpbGw9IiM1MGU2ZmYiLz4mI3hhOyAgPHBhdGggZD0iTTEzLjMxMSw3LjM0OWw0LjUyNSw0LjUzNmEuNTYzLjU2MywwLDAsMSwwLC43OTNsLS40NjEuNDZMMTIuNDU0LDguMjA2YS4yODkuMjg5LDAsMCwxLDAtLjRsLjQ2LS40NTZBLjI4Mi4yODIsMCwwLDEsMTMuMzExLDcuMzQ5WiIgZmlsbD0iIzE0OTBkZiIvPiYjeGE7PC9zdmc+;" vertex="1" parent="ZqZqqDHpZdhVjMUOQdLO-1">
                    <mxGeometry x="395.2999999999999" y="457.02" width="25.41" height="24" as="geometry"/>
                </mxCell>
                <mxCell id="SSvgXQnE2tYXqkWJwbKO-1" value="" style="shape=image;imageAspect=0;aspect=fixed;verticalLabelPosition=bottom;verticalAlign=top;image=data:image/svg+xml,PHN2ZyB4bWxucz0iaHR0cDovL3d3dy53My5vcmcvMjAwMC9zdmciIHdpZHRoPSIxOC4wMDM4NjA0NzM2MzI4MTIiIGhlaWdodD0iMTYuNzA3ODA5NDQ4MjQyMTg4IiB2aWV3Qm94PSItMC4wMDQ1NTU5ODA2NzQ5MjI0NjYgMC42NDk5OTk2NzgxMzQ5MTgyIDE4LjAwMzg2MDQ3MzYzMjgxMiAxNi43MDc4MDk0NDgyNDIxODgiPiYjeGE7ICA8ZGVmcz4mI3hhOyAgICA8bGluZWFyR3JhZGllbnQgaWQ9ImZkMDYxMjI4LTIyYmUtNDI1ZS05MTMxLTBiOGNjYTBlNWQxNyIgeDE9IjcuNjk5IiB5MT0iMjU5LjIyIiB4Mj0iNy42OTkiIHkyPSIyNjMuNzExIiBncmFkaWVudFRyYW5zZm9ybT0idHJhbnNsYXRlKDAgLTI1MCkiIGdyYWRpZW50VW5pdHM9InVzZXJTcGFjZU9uVXNlIj4mI3hhOyAgICAgIDxzdG9wIG9mZnNldD0iMC4yMyIgc3RvcC1jb2xvcj0iIzVlYTBlZiIvPiYjeGE7ICAgICAgPHN0b3Agb2Zmc2V0PSIwLjMyIiBzdG9wLWNvbG9yPSIjNWI5ZmVlIi8+JiN4YTsgICAgICA8c3RvcCBvZmZzZXQ9IjAuNDgiIHN0b3AtY29sb3I9IiM1MDlhZWIiLz4mI3hhOyAgICAgIDxzdG9wIG9mZnNldD0iMC41NyIgc3RvcC1jb2xvcj0iIzNmOTJlNiIvPiYjeGE7ICAgICAgPHN0b3Agb2Zmc2V0PSIwLjc1IiBzdG9wLWNvbG9yPSIjMjY4OGRmIi8+JiN4YTsgICAgICA8c3RvcCBvZmZzZXQ9IjAuOTMiIHN0b3AtY29sb3I9IiMxMjdmZDkiLz4mI3hhOyAgICA8L2xpbmVhckdyYWRpZW50PiYjeGE7ICAgIDxsaW5lYXJHcmFkaWVudCBpZD0iZWE5NjQ5YTYtMDRiNS00N2Q2LTgyNDctZWQzYWI5ZmY5ZDA2IiB4MT0iOS45MjciIHkxPSIyNjEuMDkxIiB4Mj0iOS45MjciIHkyPSIyNjUuNTgyIiBncmFkaWVudFRyYW5zZm9ybT0idHJhbnNsYXRlKDAgLTI1MCkiIGdyYWRpZW50VW5pdHM9InVzZXJTcGFjZU9uVXNlIj4mI3hhOyAgICAgIDxzdG9wIG9mZnNldD0iMC4wMiIgc3RvcC1jb2xvcj0iIzVlYTBlZiIvPiYjeGE7ICAgICAgPHN0b3Agb2Zmc2V0PSIwLjE0IiBzdG9wLWNvbG9yPSIjNWI5ZmVlIi8+JiN4YTsgICAgICA8c3RvcCBvZmZzZXQ9IjAuMjMiIHN0b3AtY29sb3I9IiM1YjlmZWUiLz4mI3hhOyAgICAgIDxzdG9wIG9mZnNldD0iMC4zNCIgc3RvcC1jb2xvcj0iIzUwOWFlYiIvPiYjeGE7ICAgICAgPHN0b3Agb2Zmc2V0PSIwLjQ0IiBzdG9wLWNvbG9yPSIjM2Y5MmU2Ii8+JiN4YTsgICAgICA8c3RvcCBvZmZzZXQ9IjAuNjMiIHN0b3AtY29sb3I9IiMyNjg4ZGYiLz4mI3hhOyAgICAgIDxzdG9wIG9mZnNldD0iMC45MyIgc3RvcC1jb2xvcj0iIzEyN2ZkOSIvPiYjeGE7ICAgIDwvbGluZWFyR3JhZGllbnQ+JiN4YTsgIDwvZGVmcz4mI3hhOyAgPHBhdGggZD0iTTguMjUyLDIuNTIxSDkuMzc0VjkuNTk0SDguMjUyWiIgZmlsbD0iIzdhN2E3YSIvPiYjeGE7ICA8cGF0aCBkPSJNMTAuNDU5LDIuM0ExLjY0NywxLjY0NywwLDEsMSw4LjgxMy42NWgwQTEuNjQ2LDEuNjQ2LDAsMCwxLDEwLjQ1OSwyLjNaIiBmaWxsPSIjMTQ5MGRmIi8+JiN4YTsgIDxwYXRoIGQ9Ik04LjU4OCw5LjIyaC0xLjhhMi4yNDYsMi4yNDYsMCwwLDAtLjM0OCw0LjQ2MSwyLjQxNSwyLjQxNSwwLDAsMSwuMDIyLS44MzUsMS40MTgsMS40MTgsMCwwLDEsLjMyNi0yLjhoMS44YTEuNDIyLDEuNDIyLDAsMCwxLDAsMi44NDRIOC4wOTRhMS4wNzgsMS4wNzgsMCwwLDAtLjEuNDUsMS4wMjIsMS4wMjIsMCwwLDAsLjA3MS4zNzRoLjUyN2EyLjI0NiwyLjI0NiwwLDEsMCwwLTQuNDkxWiIgZmlsbD0idXJsKCNmZDA2MTIyOC0yMmJlLTQyNWUtOTEzMS0wYjhjY2EwZTVkMTcpIi8+JiN4YTsgIDxwYXRoIGQ9Ik0xMS4xODIsMTEuMTIxYTIuNjQyLDIuNjQyLDAsMCwxLC4wMjYuMzQ0LDIuMzE3LDIuMzE3LDAsMCwxLS4wNDkuNDkxLDEuNDE4LDEuNDE4LDAsMCwxLS4zMjUsMi44aC0xLjhhMS40MjMsMS40MjMsMCwwLDEsMC0yLjg0NWguNDk0YTEuMDQyLDEuMDQyLDAsMCwwLC4xLS40NDksMS4wMTgsMS4wMTgsMCwwLDAtLjA3MS0uMzc0SDkuMDM3YTIuMjQ2LDIuMjQ2LDAsMCwwLDAsNC40OTFoMS44YTIuMjQ2LDIuMjQ2LDAsMCwwLC4zNDgtNC40NjFaIiBmaWxsPSJ1cmwoI2VhOTY0OWE2LTA0YjUtNDdkNi04MjQ3LWVkM2FiOWZmOWQwNikiLz4mI3hhOyAgPHBhdGggZD0iTTUuNTgsMTYuNTI1bC0uNDEyLjQxNWEuMjguMjgsMCwwLDEtLjQsMGwtNC42MDctNC42YS41NjYuNTY2LDAsMCwxLDAtLjhsLjQxNi0uNDEyLDUsNC45OTJhLjI3Ni4yNzYsMCwwLDEsMCwuMzkxaDBaIiBmaWxsPSIjNTBlNmZmIi8+JiN4YTsgIDxwYXRoIGQ9Ik01LjA4Miw3LjAybC40Ni40NmEuMjgyLjI4MiwwLDAsMSwwLC40TC42MjUsMTIuODA5bC0uNDYxLS40NTdhLjU2Ni41NjYsMCwwLDEsMC0uOEw0LjY4NSw3LjAyQS4yOC4yOCwwLDAsMSw1LjA4Miw3LjAyWiIgZmlsbD0iIzE0OTBkZiIvPiYjeGE7ICA8cGF0aCBkPSJNMTIuNDE3LDE2Ljg1MWEuMjc4LjI3OCwwLDAsMS0uMDA2LS4zOTJoMGwuMDA2LDAsNS00Ljk4OS40MTYuNDE2YS41NjYuNTY2LDAsMCwxLDAsLjhsLTQuNjExLDQuNTg4YS4yNzcuMjc3LDAsMCwxLS4zOTEuMDA2aDBsLS4wMDYtLjAwNVoiIGZpbGw9IiM1MGU2ZmYiLz4mI3hhOyAgPHBhdGggZD0iTTEzLjMxMSw3LjM0OWw0LjUyNSw0LjUzNmEuNTYzLjU2MywwLDAsMSwwLC43OTNsLS40NjEuNDZMMTIuNDU0LDguMjA2YS4yODkuMjg5LDAsMCwxLDAtLjRsLjQ2LS40NTZBLjI4Mi4yODIsMCwwLDEsMTMuMzExLDcuMzQ5WiIgZmlsbD0iIzE0OTBkZiIvPiYjeGE7PC9zdmc+;" vertex="1" parent="ZqZqqDHpZdhVjMUOQdLO-1">
                    <mxGeometry x="395.2999999999999" y="420" width="25.41" height="24" as="geometry"/>
                </mxCell>
                <mxCell id="bWdz6HQkHHCMQT0irS8N-0" value="" style="endArrow=classic;html=1;strokeColor=#000000;exitX=0.5;exitY=0;exitDx=0;exitDy=0;entryX=1.015;entryY=0.554;entryDx=0;entryDy=0;entryPerimeter=0;" edge="1" parent="ZqZqqDHpZdhVjMUOQdLO-1" source="bEOxu-37LqY8me0hwXk0-1" target="xUE4tL3KbNDIao92wFKX-1">
                    <mxGeometry width="50" height="50" relative="1" as="geometry">
                        <mxPoint x="360" y="350" as="sourcePoint"/>
                        <mxPoint x="410" y="300" as="targetPoint"/>
                        <Array as="points">
                            <mxPoint x="705" y="322"/>
                        </Array>
                    </mxGeometry>
                </mxCell>
                <mxCell id="bWdz6HQkHHCMQT0irS8N-1" value="" style="endArrow=classic;html=1;entryX=0.5;entryY=0;entryDx=0;entryDy=0;exitX=0.5;exitY=1;exitDx=0;exitDy=0;strokeColor=#33FF33;" edge="1" parent="ZqZqqDHpZdhVjMUOQdLO-1" source="abE22VppWr-YHlOL8psd-2" target="r7a0kl2h0PLFbgiQuw1v-1">
                    <mxGeometry width="50" height="50" relative="1" as="geometry">
                        <mxPoint x="360" y="380" as="sourcePoint"/>
                        <mxPoint x="410" y="330" as="targetPoint"/>
                    </mxGeometry>
                </mxCell>
                <mxCell id="bWdz6HQkHHCMQT0irS8N-2" value="" style="shape=image;verticalLabelPosition=bottom;labelBackgroundColor=#ffffff;verticalAlign=top;aspect=fixed;imageAspect=0;image=data:image/svg+xml,PHN2ZyB4bWxucz0iaHR0cDovL3d3dy53My5vcmcvMjAwMC9zdmciIGlkPSJlMjQ2NzFmNi1mNTAxLTQ5NTItYTJkYi04YjBiMWQzMjljMTciIHdpZHRoPSIxNi4zNTYyMDMwNzkyMjM2MzMiIGhlaWdodD0iMTgiIHZpZXdCb3g9IjAuODIxNTQ3MzI5NDI1ODExOCAwIDE2LjM1NjIwMzA3OTIyMzYzMyAxOCI+CiAgPGRlZnM+CiAgICA8bGluZWFyR3JhZGllbnQgaWQ9ImJlOTI5MDFiLWVjMzMtNGM2NS1hZGYxLTliMGVlZDA2ZDY3NyIgeDE9IjkiIHkxPSI2Ljg4IiB4Mj0iOSIgeTI9IjIwLjQ1IiBncmFkaWVudFVuaXRzPSJ1c2VyU3BhY2VPblVzZSI+CiAgICAgIDxzdG9wIG9mZnNldD0iMC4yMiIgc3RvcC1jb2xvcj0iIzMyZDRmNSIvPgogICAgICA8c3RvcCBvZmZzZXQ9IjEiIHN0b3AtY29sb3I9IiMxOThhYjMiLz4KICAgIDwvbGluZWFyR3JhZGllbnQ+CiAgICA8bGluZWFyR3JhZGllbnQgaWQ9ImI0NmZjMjQ2LTI1ZDgtNDM5OC04Nzc5LTEwNDJlOGNhY2FlNyIgeDE9IjguNjEiIHkxPSItMC40IiB4Mj0iOS42IiB5Mj0iMTEuOTIiIGdyYWRpZW50VW5pdHM9InVzZXJTcGFjZU9uVXNlIj4KICAgICAgPHN0b3Agb2Zmc2V0PSIwLjIyIiBzdG9wLWNvbG9yPSIjMzJkNGY1Ii8+CiAgICAgIDxzdG9wIG9mZnNldD0iMSIgc3RvcC1jb2xvcj0iIzE5OGFiMyIvPgogICAgPC9saW5lYXJHcmFkaWVudD4KICA8L2RlZnM+CiAgPHRpdGxlPkljb24taWRlbnRpdHktMjMwPC90aXRsZT4KICA8cGF0aCBkPSJNMTUuNzIsMThhMS40NSwxLjQ1LDAsMCwwLDEuNDUtMS40NS40Ny40NywwLDAsMCwwLS4xN0MxNi41OSwxMS44MSwxNCw4LjA5LDksOC4wOVMxLjM0LDExLjI0LjgzLDE2LjM5QTEuNDYsMS40NiwwLDAsMCwyLjE0LDE4SDE1LjcyWiIgZmlsbD0idXJsKCNiZTkyOTAxYi1lYzMzLTRjNjUtYWRmMS05YjBlZWQwNmQ2NzcpIi8+CiAgPHBhdGggZD0iTTksOS4xN2E0LjU5LDQuNTksMCwwLDEtMi40OC0uNzNMOSwxNC44NmwyLjQ0LTYuMzhBNC41Myw0LjUzLDAsMCwxLDksOS4xN1oiIGZpbGw9IiNmZmYiIG9wYWNpdHk9IjAuOCIvPgogIDxjaXJjbGUgY3g9IjkuMDEiIGN5PSI0LjU4IiByPSI0LjU4IiBmaWxsPSJ1cmwoI2I0NmZjMjQ2LTI1ZDgtNDM5OC04Nzc5LTEwNDJlOGNhY2FlNykiLz4KPC9zdmc+;" vertex="1" parent="ZqZqqDHpZdhVjMUOQdLO-1">
                    <mxGeometry x="300" y="400" width="26.62" height="30" as="geometry"/>
                </mxCell>
                <mxCell id="bWdz6HQkHHCMQT0irS8N-3" value="&lt;font style=&quot;font-size: 8px&quot;&gt;&lt;b&gt;Internal User&lt;/b&gt;&lt;/font&gt;" style="text;html=1;resizable=0;autosize=1;align=center;verticalAlign=middle;points=[];fillColor=none;strokeColor=none;rounded=0;" vertex="1" parent="ZqZqqDHpZdhVjMUOQdLO-1">
                    <mxGeometry x="283.5" y="430" width="60" height="20" as="geometry"/>
                </mxCell>
                <mxCell id="bWdz6HQkHHCMQT0irS8N-5" value="" style="endArrow=classic;html=1;exitX=1;exitY=0.5;exitDx=0;exitDy=0;strokeColor=#33FF33;" edge="1" parent="ZqZqqDHpZdhVjMUOQdLO-1" source="bWdz6HQkHHCMQT0irS8N-2">
                    <mxGeometry width="50" height="50" relative="1" as="geometry">
                        <mxPoint x="360" y="380" as="sourcePoint"/>
                        <mxPoint x="390" y="320" as="targetPoint"/>
                        <Array as="points">
                            <mxPoint x="327" y="340"/>
                        </Array>
                    </mxGeometry>
                </mxCell>
                <mxCell id="bWdz6HQkHHCMQT0irS8N-7" value="" style="shape=image;verticalLabelPosition=bottom;labelBackgroundColor=#ffffff;verticalAlign=top;aspect=fixed;imageAspect=0;image=data:image/svg+xml,PHN2ZyB4bWxucz0iaHR0cDovL3d3dy53My5vcmcvMjAwMC9zdmciIGlkPSJiOTBmNzQ4NS1lZGI4LTQ5Y2MtOTExOC1iYzA1NGNmNWMxOGUiIHdpZHRoPSIxNyIgaGVpZ2h0PSIxMy42Njk5OTkxMjI2MTk2MjkiIHZpZXdCb3g9IjAuNSAyLjE3MDAwMDA3NjI5Mzk0NTMgMTcgMTMuNjY5OTk5MTIyNjE5NjI5Ij4KICA8ZGVmcz4KICAgIDxsaW5lYXJHcmFkaWVudCBpZD0iYWQ1MmUzMWUtNzVkZS00NmFmLTliZGMtYmVhMDM4YWI0MjA5IiB4MT0iOSIgeTE9IjE1LjgzIiB4Mj0iOSIgeTI9IjUuNzkiIGdyYWRpZW50VW5pdHM9InVzZXJTcGFjZU9uVXNlIj4KICAgICAgPHN0b3Agb2Zmc2V0PSIwIiBzdG9wLWNvbG9yPSIjMzJiZWRkIi8+CiAgICAgIDxzdG9wIG9mZnNldD0iMC4xOCIgc3RvcC1jb2xvcj0iIzMyY2FlYSIvPgogICAgICA8c3RvcCBvZmZzZXQ9IjAuNDEiIHN0b3AtY29sb3I9IiMzMmQyZjIiLz4KICAgICAgPHN0b3Agb2Zmc2V0PSIwLjc4IiBzdG9wLWNvbG9yPSIjMzJkNGY1Ii8+CiAgICA8L2xpbmVhckdyYWRpZW50PgogIDwvZGVmcz4KICA8dGl0bGU+SWNvbi1uZXR3b3JraW5nLTY5PC90aXRsZT4KICA8cGF0aCBkPSJNLjUsNS43OWgxN2EwLDAsMCwwLDEsMCwwdjkuNDhhLjU3LjU3LDAsMCwxLS41Ny41N0gxLjA3YS41Ny41NywwLDAsMS0uNTctLjU3VjUuNzlBMCwwLDAsMCwxLC41LDUuNzlaIiBmaWxsPSJ1cmwoI2FkNTJlMzFlLTc1ZGUtNDZhZi05YmRjLWJlYTAzOGFiNDIwOSkiLz4KICA8cGF0aCBkPSJNMS4wNywyLjE3SDE2LjkzYS41Ny41NywwLDAsMSwuNTcuNTdWNS43OWEwLDAsMCwwLDEsMCwwSC41YTAsMCwwLDAsMSwwLDBWMi43M0EuNTcuNTcsMCwwLDEsMS4wNywyLjE3WiIgZmlsbD0iIzc2NzY3NiIvPgogIDxjaXJjbGUgY3g9IjEyLjgyIiBjeT0iMTAuMTkiIHI9IjEuMzgiIGZpbGw9IiNmMmYyZjIiLz4KICA8Y2lyY2xlIGN4PSI5LjA2IiBjeT0iMTAuMTkiIHI9IjEuMzgiIGZpbGw9IiNmMmYyZjIiLz4KICA8Y2lyY2xlIGN4PSI1LjE4IiBjeT0iMTAuMTkiIHI9IjEuMzgiIGZpbGw9IiNmMmYyZjIiLz4KICA8cmVjdCB4PSIyLjc5IiB5PSIzLjI1IiB3aWR0aD0iMTIuNDMiIGhlaWdodD0iMS40NiIgcng9IjAuMjgiIGZpbGw9IiNmMmYyZjIiLz4KPC9zdmc+;" vertex="1" parent="ZqZqqDHpZdhVjMUOQdLO-1">
                    <mxGeometry x="200" y="308" width="17" height="14" as="geometry"/>
                </mxCell>
                <mxCell id="OqwR63_7DlpEkzlskBYJ-0" value="" style="shape=image;imageAspect=0;aspect=fixed;verticalLabelPosition=bottom;verticalAlign=top;image=data:image/svg+xml,PHN2ZyB4bWxucz0iaHR0cDovL3d3dy53My5vcmcvMjAwMC9zdmciIGlkPSJiNmY2ZDk5ZS1mMzMwLTQ4MWQtODM2Zi1lYTU4Y2M0MjIxN2YiIHdpZHRoPSIxMS44OTg4Mzg5OTY4ODcyMDciIGhlaWdodD0iMTcuMDAwMjk5NDUzNzM1MzUiIHZpZXdCb3g9IjMuMDUwNTgwNzM5OTc0OTc1NiAwLjQ5OTcwMDI0ODI0MTQyNDU2IDExLjg5ODgzODk5Njg4NzIwNyAxNy4wMDAyOTk0NTM3MzUzNSI+JiN4YTsgIDxkZWZzPiYjeGE7ICAgIDxyYWRpYWxHcmFkaWVudCBpZD0iYTdhMWM0MzEtNmM2ZC00YThmLTlhNjktOGRhNDM3ZTViMGM1IiBjeD0iOSIgY3k9IjcuMzUiIHI9IjYuNDIiIGdyYWRpZW50VW5pdHM9InVzZXJTcGFjZU9uVXNlIj4mI3hhOyAgICAgIDxzdG9wIG9mZnNldD0iMCIgc3RvcC1jb2xvcj0iI2I3N2FmNCIvPiYjeGE7ICAgICAgPHN0b3Agb2Zmc2V0PSIwLjIxIiBzdG9wLWNvbG9yPSIjYjM3OGYyIi8+JiN4YTsgICAgICA8c3RvcCBvZmZzZXQ9IjAuNDMiIHN0b3AtY29sb3I9IiNhNjcyZWQiLz4mI3hhOyAgICAgIDxzdG9wIG9mZnNldD0iMC42NSIgc3RvcC1jb2xvcj0iIzkyNjdlNCIvPiYjeGE7ICAgICAgPHN0b3Agb2Zmc2V0PSIwLjg4IiBzdG9wLWNvbG9yPSIjNzU1OWQ4Ii8+JiN4YTsgICAgICA8c3RvcCBvZmZzZXQ9IjEiIHN0b3AtY29sb3I9IiM2MjRmZDAiLz4mI3hhOyAgICA8L3JhZGlhbEdyYWRpZW50PiYjeGE7ICAgIDxsaW5lYXJHcmFkaWVudCBpZD0iZWMwYzRmMGQtNWM4ZS00ODgyLTk2YTEtODlkNjE4MDhlYjQ5IiB4MT0iOS4wMiIgeTE9IjMuOTEiIHgyPSI5LjA4IiB5Mj0iMTEuNDkiIGdyYWRpZW50VW5pdHM9InVzZXJTcGFjZU9uVXNlIj4mI3hhOyAgICAgIDxzdG9wIG9mZnNldD0iMCIgc3RvcC1jb2xvcj0iI2YyZjJmMiIvPiYjeGE7ICAgICAgPHN0b3Agb2Zmc2V0PSIwLjIzIiBzdG9wLWNvbG9yPSIjZjFmMWYyIiBzdG9wLW9wYWNpdHk9IjAuOTkiLz4mI3hhOyAgICAgIDxzdG9wIG9mZnNldD0iMC4zNyIgc3RvcC1jb2xvcj0iI2VkZWRmMSIgc3RvcC1vcGFjaXR5PSIwLjk1Ii8+JiN4YTsgICAgICA8c3RvcCBvZmZzZXQ9IjAuNDgiIHN0b3AtY29sb3I9IiNlN2U1ZjAiIHN0b3Atb3BhY2l0eT0iMC44OSIvPiYjeGE7ICAgICAgPHN0b3Agb2Zmc2V0PSIwLjU4IiBzdG9wLWNvbG9yPSIjZGVkYmVlIiBzdG9wLW9wYWNpdHk9IjAuODEiLz4mI3hhOyAgICAgIDxzdG9wIG9mZnNldD0iMC42NyIgc3RvcC1jb2xvcj0iI2QzY2VlYiIgc3RvcC1vcGFjaXR5PSIwLjciLz4mI3hhOyAgICAgIDxzdG9wIG9mZnNldD0iMC43NiIgc3RvcC1jb2xvcj0iI2M0YmVlOCIgc3RvcC1vcGFjaXR5PSIwLjU3Ii8+JiN4YTsgICAgICA8c3RvcCBvZmZzZXQ9IjAuODQiIHN0b3AtY29sb3I9IiNiNGFiZTUiIHN0b3Atb3BhY2l0eT0iMC40MSIvPiYjeGE7ICAgICAgPHN0b3Agb2Zmc2V0PSIwLjkyIiBzdG9wLWNvbG9yPSIjYTA5NWUxIiBzdG9wLW9wYWNpdHk9IjAuMjIiLz4mI3hhOyAgICAgIDxzdG9wIG9mZnNldD0iMC45OSIgc3RvcC1jb2xvcj0iIzhiN2RkYyIgc3RvcC1vcGFjaXR5PSIwLjAyIi8+JiN4YTsgICAgICA8c3RvcCBvZmZzZXQ9IjEiIHN0b3AtY29sb3I9IiM4OTdiZGMiIHN0b3Atb3BhY2l0eT0iMCIvPiYjeGE7ICAgIDwvbGluZWFyR3JhZGllbnQ+JiN4YTsgIDwvZGVmcz4mI3hhOyAgPHRpdGxlPkljb24tbWFuYWdlLTMxMDwvdGl0bGU+JiN4YTsgIDxwYXRoIGQ9Ik0xMC4yMywxNy4zOWwuODEtLjg3VjE0LjJIN3YyLjMybC44MS44N0EuMzIuMzIsMCwwLDAsOCwxNy41aDJBLjMyLjMyLDAsMCwwLDEwLjIzLDE3LjM5WiIgZmlsbD0iI2NlY2VjZSIvPiYjeGE7ICA8cGF0aCBkPSJNOSwuNUE1Ljg5LDUuODksMCwwLDAsMy4wOSw3LjA3Yy4yNywyLjQ3LDIuNjIsMy42MiwzLjI5LDYuNzVhLjQ5LjQ5LDAsMCwwLC40Ny4zOGg0LjNhLjQ5LjQ5LDAsMCwwLC40Ny0uMzhjLjY3LTMuMTMsMy00LjI4LDMuMjktNi43NUE1Ljg5LDUuODksMCwwLDAsOSwuNVpNNywxNC4yIiBmaWxsPSJ1cmwoI2E3YTFjNDMxLTZjNmQtNGE4Zi05YTY5LThkYTQzN2U1YjBjNSkiLz4mI3hhOyAgPHBhdGggZD0iTTExLjQ2LDMuNzlhMS40LDEuNCwwLDAsMC0xLjM1LDEuNDRWNkg4VjUuMjNBMS40MSwxLjQxLDAsMCwwLDYuNTksMy43OSwxLjQsMS40LDAsMCwwLDUuMjQsNS4yMywxLjQxLDEuNDEsMCwwLDAsNi41OSw2LjY4aC42NHY2YS4zNi4zNiwwLDAsMCwuNzIsMHYtNmgyLjE2djZhLjM2LjM2LDAsMSwwLC43Miwwdi02aC42M2ExLjQsMS40LDAsMCwwLDEuMzUtMS40NUExLjQsMS40LDAsMCwwLDExLjQ2LDMuNzlaTTcuMjMsNkg2LjU1YS43NC43NCwwLDAsMS0uNjgtLjc3Ljc0Ljc0LDAsMCwxLC42OC0uNzcuNzQuNzQsMCwwLDEsLjY4Ljc3Wm00LjI4LDBoLS42OFY1LjE5YS42OC42OCwwLDEsMSwxLjM1LDBBLjczLjczLDAsMCwxLDExLjUxLDZaIiBmaWxsPSJ1cmwoI2VjMGM0ZjBkLTVjOGUtNDg4Mi05NmExLTg5ZDYxODA4ZWI0OSkiLz4mI3hhOyAgPHBvbHlnb24gcG9pbnRzPSI2Ljk2IDE1LjggMTEuMDQgMTUuMDEgMTEuMDQgMTQuNTYgNi45NiAxNS4zNiA2Ljk2IDE1LjgiIGZpbGw9IiM5OTkiLz4mI3hhOyAgPHBvbHlnb24gcG9pbnRzPSIxMS4wNCAxNi4xMSAxMS4wNCAxNS42NyA2Ljk2IDE2LjQ4IDYuOTYgMTYuNTIgNy4yNyAxNi44NiAxMS4wNCAxNi4xMSIgZmlsbD0iIzk5OSIvPiYjeGE7PC9zdmc+;base64,PHN2ZyB4bWxucz0iaHR0cDovL3d3dy53My5vcmcvMjAwMC9zdmciIGlkPSJhMTYwNmE1Mi1mYjE0LTQ2MzctODdkZS00ZDUyNGJiYTE4MjkiIHdpZHRoPSIxOC41MDMwODAzNjgwNDE5OTIiIGhlaWdodD0iMTEuMDMyODQ0NTQzNDU3MDMxIiB2aWV3Qm94PSItMC4yNTI4MTE4Nzg5MTk2MDE0NCAzLjQ4Mjc3MjExMTg5MjcgMTguNTAzMDgwMzY4MDQxOTkyIDExLjAzMjg0NDU0MzQ1NzAzMSI+JiN4YTsgIDxkZWZzPiYjeGE7ICAgIDxsaW5lYXJHcmFkaWVudCBpZD0iZjAyMGZiN2UtMjI0My00NTAxLTgxNTMtNWQ2OWJkM2MzNGY3IiB4MT0iOS44OCIgeTE9IjguNTkiIHgyPSIxMS41MiIgeTI9IjEwLjIzIiBncmFkaWVudFRyYW5zZm9ybT0idHJhbnNsYXRlKDIuMDMgLTAuNCkgcm90YXRlKC0wLjA4KSIgZ3JhZGllbnRVbml0cz0idXNlclNwYWNlT25Vc2UiPiYjeGE7ICAgICAgPHN0b3Agb2Zmc2V0PSIwIiBzdG9wLWNvbG9yPSIjODZkNjMzIi8+JiN4YTsgICAgICA8c3RvcCBvZmZzZXQ9IjEiIHN0b3AtY29sb3I9IiM1ZTk2MjQiLz4mI3hhOyAgICA8L2xpbmVhckdyYWRpZW50PiYjeGE7ICAgIDxsaW5lYXJHcmFkaWVudCBpZD0iYjNjMmJjOTQtOGM3Yy00OGEyLTk3MTktNmVlODk5YTQzYTk3IiB4MT0iNi4xOCIgeTE9IjguNTkiIHgyPSI3LjgxIiB5Mj0iMTAuMjMiIGdyYWRpZW50VW5pdHM9InVzZXJTcGFjZU9uVXNlIj4mI3hhOyAgICAgIDxzdG9wIG9mZnNldD0iMCIgc3RvcC1jb2xvcj0iIzg2ZDYzMyIvPiYjeGE7ICAgICAgPHN0b3Agb2Zmc2V0PSIxIiBzdG9wLWNvbG9yPSIjNWU5NjI0Ii8+JiN4YTsgICAgPC9saW5lYXJHcmFkaWVudD4mI3hhOyAgICA8bGluZWFyR3JhZGllbnQgaWQ9ImU5MDBjMzVkLTA5NTgtNGQ0Zi1iMjhmLTMwMmVlYWFmNTJmNSIgeDE9IjIuNDgiIHkxPSI4LjU5IiB4Mj0iNC4xMSIgeTI9IjEwLjIzIiBncmFkaWVudFVuaXRzPSJ1c2VyU3BhY2VPblVzZSI+JiN4YTsgICAgICA8c3RvcCBvZmZzZXQ9IjAiIHN0b3AtY29sb3I9IiM4NmQ2MzMiLz4mI3hhOyAgICAgIDxzdG9wIG9mZnNldD0iMSIgc3RvcC1jb2xvcj0iIzVlOTYyNCIvPiYjeGE7ICAgIDwvbGluZWFyR3JhZGllbnQ+JiN4YTsgIDwvZGVmcz4mI3hhOyAgPHRpdGxlPkljb24tbmV0d29ya2luZy02MTwvdGl0bGU+JiN4YTsgIDxjaXJjbGUgY3g9IjEyLjc0IiBjeT0iOC45OSIgcj0iMS4xNiIgZmlsbD0idXJsKCNmMDIwZmI3ZS0yMjQzLTQ1MDEtODE1My01ZDY5YmQzYzM0ZjcpIi8+JiN4YTsgIDxjaXJjbGUgY3g9IjkuMDQiIGN5PSI5IiByPSIxLjE2IiBmaWxsPSJ1cmwoI2IzYzJiYzk0LThjN2MtNDhhMi05NzE5LTZlZTg5OWE0M2E5NykiLz4mI3hhOyAgPGNpcmNsZSBjeD0iNS4zNCIgY3k9IjkiIHI9IjEuMTYiIGZpbGw9InVybCgjZTkwMGMzNWQtMDk1OC00ZDRmLWIyOGYtMzAyZWVhYWY1MmY1KSIvPiYjeGE7ICA8cGF0aCBkPSJNMi42MSw3LjI4aC45NGEuMy4zLDAsMCwxLC4zLjN2Ni45NGEuNi42LDAsMCwxLS42LjZIMi4zMWEwLDAsMCwwLDEsMCwwVjcuNThhLjMuMywwLDAsMSwuMy0uM1oiIHRyYW5zZm9ybT0idHJhbnNsYXRlKDEzLjE4IDE2LjkzKSByb3RhdGUoMTM0LjkyKSIgZmlsbD0iIzUwZTZmZiIvPiYjeGE7ICA8cGF0aCBkPSJNMi41NiwyLjkxSDMuNWEuMy4zLDAsMCwxLC4zLjN2Ny40M2EwLDAsMCwwLDEsMCwwSDIuODZhLjYuNiwwLDAsMS0uNi0uNlYzLjIxYS4zLjMsMCwwLDEsLjMtLjNaIiB0cmFuc2Zvcm09InRyYW5zbGF0ZSg1LjY2IC0wLjE2KSByb3RhdGUoNDQuOTIpIiBmaWxsPSIjMTQ5MGRmIi8+JiN4YTsgIDxwYXRoIGQ9Ik0xNC4xNSw3LjI4aC45NGEuNi42LDAsMCwxLC42LjZ2Ni45NGEuMy4zLDAsMCwxLS4zLjNoLS45NGEuMy4zLDAsMCwxLS4zLS4zVjcuMjhhMCwwLDAsMCwxLDAsMFoiIHRyYW5zZm9ybT0idHJhbnNsYXRlKDEyLjMyIC03LjI4KSByb3RhdGUoNDUuMDgpIiBmaWxsPSIjNTBlNmZmIi8+JiN4YTsgIDxwYXRoIGQ9Ik0xNC44MSwyLjkxaC45NGEwLDAsMCwwLDEsMCwwdjcuNDNhLjMuMywwLDAsMS0uMy4zSDE0LjVhLjMuMywwLDAsMS0uMy0uM1YzLjUxYS42LjYsMCwwLDEsLjYtLjZaIiB0cmFuc2Zvcm09InRyYW5zbGF0ZSgzMC4zNiAwLjk5KSByb3RhdGUoMTM1LjA4KSIgZmlsbD0iIzE0OTBkZiIvPiYjeGE7PC9zdmc+;base64,PHN2ZyB4bWxucz0iaHR0cDovL3d3dy53My5vcmcvMjAwMC9zdmciIHdpZHRoPSIxNy40NjgxMzk2NDg0Mzc1IiBoZWlnaHQ9IjEwLjQwOTgxODY0OTI5MTk5MiIgdmlld0JveD0iMC4yNjYyNTUxOTk5MDkyMTAyIDMuNzk1NjE5NzI2MTgxMDMwMyAxNy40NjgxMzk2NDg0Mzc1IDEwLjQwOTgxODY0OTI5MTk5MiI+JiN4YTsgIDxkZWZzPiYjeGE7ICAgIDxsaW5lYXJHcmFkaWVudCBpZD0iYmNlYjYwZGQtOGI4Yy00MDk4LTk0ZjgtYWViNGRiMmVkYWVmIiB4MT0iOS4wMzMiIHkxPSIxMC4zMDUiIHgyPSI5LjAzMyIgeTI9IjcuNjk1IiBncmFkaWVudFVuaXRzPSJ1c2VyU3BhY2VPblVzZSI+JiN4YTsgICAgICA8c3RvcCBvZmZzZXQ9IjAiIHN0b3AtY29sb3I9IiM1ZTk2MjQiLz4mI3hhOyAgICAgIDxzdG9wIG9mZnNldD0iMC4yNDEiIHN0b3AtY29sb3I9IiM2ZmIwMmEiLz4mI3hhOyAgICAgIDxzdG9wIG9mZnNldD0iMC41MDEiIHN0b3AtY29sb3I9IiM3Y2M1MmYiLz4mI3hhOyAgICAgIDxzdG9wIG9mZnNldD0iMC43NTYiIHN0b3AtY29sb3I9IiM4M2QyMzIiLz4mI3hhOyAgICAgIDxzdG9wIG9mZnNldD0iMSIgc3RvcC1jb2xvcj0iIzg2ZDYzMyIvPiYjeGE7ICAgIDwvbGluZWFyR3JhZGllbnQ+JiN4YTsgIDwvZGVmcz4mI3hhOyAgPGcgaWQ9ImFjNzVjMjFlLTJhOTMtNDY0Zi04MDQ4LWYxNTE4ZGFiOGI3NSI+JiN4YTsgICAgPGc+JiN4YTsgICAgICA8cGF0aCBkPSJNOS4wMzEsNy43QTEuMzA1LDEuMzA1LDAsMSwwLDEwLjMzOCw5LDEuMzA1LDEuMzA1LDAsMCwwLDkuMDMxLDcuN1oiIGZpbGw9InVybCgjYmNlYjYwZGQtOGI4Yy00MDk4LTk0ZjgtYWViNGRiMmVkYWVmKSIvPiYjeGE7ICAgICAgPGc+JiN4YTsgICAgICAgIDxwYXRoIGQ9Ik0yLjk2MSw3LjM3NGguODg4YS4yODQuMjg0LDAsMCwxLC4yODQuMjg0djYuNTUxYS41NjguNTY4LDAsMCwxLS41NjguNTY4SDIuNjc3YTAsMCwwLDAsMSwwLDBWNy42NTlBLjI4NC4yODQsMCwwLDEsMi45NjEsNy4zNzRaIiB0cmFuc2Zvcm09InRyYW5zbGF0ZSgxMy42NTMgMTYuNDg1KSByb3RhdGUoMTM0LjkxOSkiIGZpbGw9IiM1MGU2ZmYiLz4mI3hhOyAgICAgICAgPHBhdGggZD0iTTIuOTEzLDMuMjQ0SDMuOGEuMjg0LjI4NCwwLDAsMSwuMjg0LjI4NHY3LjAxNWEwLDAsMCwwLDEsMCwwSDMuMmEuNTY4LjU2OCwwLDAsMS0uNTY4LS41NjhWMy41MjhhLjI4NC4yODQsMCwwLDEsLjI4NC0uMjg0WiIgdHJhbnNmb3JtPSJ0cmFuc2xhdGUoNS44NDcgLTAuMzU4KSByb3RhdGUoNDQuOTE5KSIgZmlsbD0iIzE0OTBkZiIvPiYjeGE7ICAgICAgICA8cGF0aCBkPSJNMTMuODY3LDcuMzc0aC44ODhhLjU2OC41NjgsMCwwLDEsLjU2OC41Njh2Ni41NTFhLjI4NC4yODQsMCwwLDEtLjI4NC4yODRoLS44ODhhLjI4NC4yODQsMCwwLDEtLjI4NC0uMjg0VjcuMzc0YTAsMCwwLDAsMSwwLDBaIiB0cmFuc2Zvcm09InRyYW5zbGF0ZSgxMi4xMzIgLTcuMDc5KSByb3RhdGUoNDUuMDgxKSIgZmlsbD0iIzUwZTZmZiIvPiYjeGE7ICAgICAgICA8cGF0aCBkPSJNMTQuNDgzLDMuMjQ0aC44ODhhMCwwLDAsMCwxLDAsMHY3LjAxNWEuMjg0LjI4NCwwLDAsMS0uMjg0LjI4NEgxNC4yYS4yODQuMjg0LDAsMCwxLS4yODQtLjI4NFYzLjgxMmEuNTY4LjU2OCwwLDAsMSwuNTY4LS41NjhaIiB0cmFuc2Zvcm09InRyYW5zbGF0ZSgyOS44NzkgMS40MzUpIHJvdGF0ZSgxMzUuMDgxKSIgZmlsbD0iIzE0OTBkZiIvPiYjeGE7ICAgICAgPC9nPiYjeGE7ICAgIDwvZz4mI3hhOyAgPC9nPiYjeGE7PC9zdmc+;base64,PHN2ZyB4bWxucz0iaHR0cDovL3d3dy53My5vcmcvMjAwMC9zdmciIGlkPSJiYzkzMTY5YS0yNGM0LTQ2ODYtOWYzNy1jN2U0ZjUzYjNkMzQiIHdpZHRoPSIxNyIgaGVpZ2h0PSIxNyIgdmlld0JveD0iMC41MDAwMDA0NzY4MzcxNTgyIDAuNSAxNyAxNyI+JiN4YTsgIDxkZWZzPiYjeGE7ICAgIDxyYWRpYWxHcmFkaWVudCBpZD0iZmIxMTRjOTMtN2MxNi00NTQwLTg5OWEtMDc5NjA0MTYyOWU2IiBjeD0iOSIgY3k9IjkiIHI9IjguNSIgZ3JhZGllbnRVbml0cz0idXNlclNwYWNlT25Vc2UiPiYjeGE7ICAgICAgPHN0b3Agb2Zmc2V0PSIwLjE4IiBzdG9wLWNvbG9yPSIjNWVhMGVmIi8+JiN4YTsgICAgICA8c3RvcCBvZmZzZXQ9IjAuNTYiIHN0b3AtY29sb3I9IiM1YzlmZWUiLz4mI3hhOyAgICAgIDxzdG9wIG9mZnNldD0iMC42OSIgc3RvcC1jb2xvcj0iIzU1OWNlZCIvPiYjeGE7ICAgICAgPHN0b3Agb2Zmc2V0PSIwLjc4IiBzdG9wLWNvbG9yPSIjNGE5N2U5Ii8+JiN4YTsgICAgICA8c3RvcCBvZmZzZXQ9IjAuODYiIHN0b3AtY29sb3I9IiMzOTkwZTQiLz4mI3hhOyAgICAgIDxzdG9wIG9mZnNldD0iMC45MyIgc3RvcC1jb2xvcj0iIzIzODdkZSIvPiYjeGE7ICAgICAgPHN0b3Agb2Zmc2V0PSIwLjk5IiBzdG9wLWNvbG9yPSIjMDg3YmQ2Ii8+JiN4YTsgICAgICA8c3RvcCBvZmZzZXQ9IjEiIHN0b3AtY29sb3I9IiMwMDc4ZDQiLz4mI3hhOyAgICA8L3JhZGlhbEdyYWRpZW50PiYjeGE7ICAgIDxyYWRpYWxHcmFkaWVudCBpZD0iZWM0NzhiZDMtNWIzOC00ZTdmLWI2NjEtMTFmMzU1NTc4YmZmIiBjeD0iMzguOTUiIGN5PSIxODIuMDciIHI9IjkuODgiIGdyYWRpZW50VHJhbnNmb3JtPSJ0cmFuc2xhdGUoLTI4LjcxIC0xNjMuMjQpIHNjYWxlKDAuOTQgMC45NCkiIGdyYWRpZW50VW5pdHM9InVzZXJTcGFjZU9uVXNlIj4mI3hhOyAgICAgIDxzdG9wIG9mZnNldD0iMC4yNyIgc3RvcC1jb2xvcj0iI2ZmZDcwZiIvPiYjeGE7ICAgICAgPHN0b3Agb2Zmc2V0PSIwLjQ5IiBzdG9wLWNvbG9yPSIjZmZjYjEyIi8+JiN4YTsgICAgICA8c3RvcCBvZmZzZXQ9IjAuODgiIHN0b3AtY29sb3I9IiNmZWFjMTkiLz4mI3hhOyAgICAgIDxzdG9wIG9mZnNldD0iMSIgc3RvcC1jb2xvcj0iI2ZlYTExYiIvPiYjeGE7ICAgIDwvcmFkaWFsR3JhZGllbnQ+JiN4YTsgIDwvZGVmcz4mI3hhOyAgPHRpdGxlPkljb24tc2VjdXJpdHktMjQ1PC90aXRsZT4mI3hhOyAgPHBhdGggaWQ9ImFhY2Y4MzExLWEzMTctNDAwZi1iNjEzLTc0YmQwMGRhNWNlMyIgZD0iTTksLjVBOC41LDguNSwwLDEsMCwxNy41LDksOC41MSw4LjUxLDAsMCwwLDksLjVaTTksMTYuMzRBNy4zNCw3LjM0LDAsMSwxLDE2LjM0LDksNy4zNCw3LjM0LDAsMCwxLDksMTYuMzRaIiBmaWxsPSJ1cmwoI2ZiMTE0YzkzLTdjMTYtNDU0MC04OTlhLTA3OTYwNDE2MjllNikiLz4mI3hhOyAgPGNpcmNsZSBjeD0iOSIgY3k9IjkiIHI9IjcuMzQiIGZpbGw9IiNmZmYiLz4mI3hhOyAgPGc+JiN4YTsgICAgPHBhdGggaWQ9ImJkOTgzYzQxLWRiNzMtNDBlYy1hNGY0LWRhMTIxM2ZjOTkyNCIgZD0iTTEzLjQ0LDcuMzNhMS44NCwxLjg0LDAsMCwwLDAtMi41OWgwTDEwLjI5LDEuNThhMS44MywxLjgzLDAsMCwwLTIuNTgsMGgwTDQuNTYsNC43NGExLjg0LDEuODQsMCwwLDAsMCwyLjU5TDcuMTgsMTBhLjUxLjUxLDAsMCwxLC4xNS4zNnY0Ljg4YS42My42MywwLDAsMCwuMTguNDRsMS4yLDEuMmEuNDEuNDEsMCwwLDAsLjU4LDBsMS4xNi0xLjE2aDBsLjY4LS42OGEuMjUuMjUsMCwwLDAsMC0uMzRsLS40OS0uNDlhLjI3LjI3LDAsMCwxLDAtLjM3bC40OS0uNDlhLjI1LjI1LDAsMCwwLDAtLjM0bC0uNDktLjQ5YS4yNy4yNywwLDAsMSwwLS4zN2wuNDktLjQ5YS4yNS4yNSwwLDAsMCwwLS4zNGwtLjY4LS42OXYtLjI1Wk05LDIuMzVBMSwxLDAsMCwxLDksNC40MiwxLDEsMCwxLDEsOSwyLjM1WiIgZmlsbD0idXJsKCNlYzQ3OGJkMy01YjM4LTRlN2YtYjY2MS0xMWYzNTU1NzhiZmYpIi8+JiN4YTsgICAgPHBhdGggaWQ9ImFkMmU3ZTQ0LTliZmQtNDc3NS04YmY0LThlZjI2YTU0NDkyMSIgZD0iTTguMTgsMTUuM2gwYS4yMy4yMywwLDAsMCwuMzgtLjE3di00YS4yNC4yNCwwLDAsMC0uMTEtLjJoMGEuMjIuMjIsMCwwLDAtLjM0LjJ2NEEuMjguMjgsMCwwLDAsOC4xOCwxNS4zWiIgZmlsbD0iI2ZmOTMwMCIgb3BhY2l0eT0iMC43NSIvPiYjeGE7ICAgIDxyZWN0IGlkPSJhOTk2ZmJmZi0zOTM2LTRiMjQtYjQwNy0zNjkzMzZjMTQzYmEiIHg9IjYuNDgiIHk9IjUuNzkiIHdpZHRoPSI1LjE3IiBoZWlnaHQ9IjAuNjEiIHJ4PSIwLjI4IiBmaWxsPSIjZmY5MzAwIiBvcGFjaXR5PSIwLjc1Ii8+JiN4YTsgICAgPHJlY3QgaWQ9ImJiMTJkMzFjLTMzNTItNGExOC04N2RkLWExNjlhNGE4NzIxZCIgeD0iNi40OCIgeT0iNi43OCIgd2lkdGg9IjUuMTciIGhlaWdodD0iMC42MSIgcng9IjAuMjgiIGZpbGw9IiNmZjkzMDAiIG9wYWNpdHk9IjAuNzUiLz4mI3hhOyAgPC9nPiYjeGE7PC9zdmc+;base64,PHN2ZyB4bWxucz0iaHR0cDovL3d3dy53My5vcmcvMjAwMC9zdmciIHdpZHRoPSIxOC4wMDM4NjA0NzM2MzI4MTIiIGhlaWdodD0iMTYuNzA3ODA5NDQ4MjQyMTg4IiB2aWV3Qm94PSItMC4wMDQ1NTU5ODA2NzQ5MjI0NjYgMC42NDk5OTk2NzgxMzQ5MTgyIDE4LjAwMzg2MDQ3MzYzMjgxMiAxNi43MDc4MDk0NDgyNDIxODgiPiYjeGE7ICA8ZGVmcz4mI3hhOyAgICA8bGluZWFyR3JhZGllbnQgaWQ9ImZkMDYxMjI4LTIyYmUtNDI1ZS05MTMxLTBiOGNjYTBlNWQxNyIgeDE9IjcuNjk5IiB5MT0iMjU5LjIyIiB4Mj0iNy42OTkiIHkyPSIyNjMuNzExIiBncmFkaWVudFRyYW5zZm9ybT0idHJhbnNsYXRlKDAgLTI1MCkiIGdyYWRpZW50VW5pdHM9InVzZXJTcGFjZU9uVXNlIj4mI3hhOyAgICAgIDxzdG9wIG9mZnNldD0iMC4yMyIgc3RvcC1jb2xvcj0iIzVlYTBlZiIvPiYjeGE7ICAgICAgPHN0b3Agb2Zmc2V0PSIwLjMyIiBzdG9wLWNvbG9yPSIjNWI5ZmVlIi8+JiN4YTsgICAgICA8c3RvcCBvZmZzZXQ9IjAuNDgiIHN0b3AtY29sb3I9IiM1MDlhZWIiLz4mI3hhOyAgICAgIDxzdG9wIG9mZnNldD0iMC41NyIgc3RvcC1jb2xvcj0iIzNmOTJlNiIvPiYjeGE7ICAgICAgPHN0b3Agb2Zmc2V0PSIwLjc1IiBzdG9wLWNvbG9yPSIjMjY4OGRmIi8+JiN4YTsgICAgICA8c3RvcCBvZmZzZXQ9IjAuOTMiIHN0b3AtY29sb3I9IiMxMjdmZDkiLz4mI3hhOyAgICA8L2xpbmVhckdyYWRpZW50PiYjeGE7ICAgIDxsaW5lYXJHcmFkaWVudCBpZD0iZWE5NjQ5YTYtMDRiNS00N2Q2LTgyNDctZWQzYWI5ZmY5ZDA2IiB4MT0iOS45MjciIHkxPSIyNjEuMDkxIiB4Mj0iOS45MjciIHkyPSIyNjUuNTgyIiBncmFkaWVudFRyYW5zZm9ybT0idHJhbnNsYXRlKDAgLTI1MCkiIGdyYWRpZW50VW5pdHM9InVzZXJTcGFjZU9uVXNlIj4mI3hhOyAgICAgIDxzdG9wIG9mZnNldD0iMC4wMiIgc3RvcC1jb2xvcj0iIzVlYTBlZiIvPiYjeGE7ICAgICAgPHN0b3Agb2Zmc2V0PSIwLjE0IiBzdG9wLWNvbG9yPSIjNWI5ZmVlIi8+JiN4YTsgICAgICA8c3RvcCBvZmZzZXQ9IjAuMjMiIHN0b3AtY29sb3I9IiM1YjlmZWUiLz4mI3hhOyAgICAgIDxzdG9wIG9mZnNldD0iMC4zNCIgc3RvcC1jb2xvcj0iIzUwOWFlYiIvPiYjeGE7ICAgICAgPHN0b3Agb2Zmc2V0PSIwLjQ0IiBzdG9wLWNvbG9yPSIjM2Y5MmU2Ii8+JiN4YTsgICAgICA8c3RvcCBvZmZzZXQ9IjAuNjMiIHN0b3AtY29sb3I9IiMyNjg4ZGYiLz4mI3hhOyAgICAgIDxzdG9wIG9mZnNldD0iMC45MyIgc3RvcC1jb2xvcj0iIzEyN2ZkOSIvPiYjeGE7ICAgIDwvbGluZWFyR3JhZGllbnQ+JiN4YTsgIDwvZGVmcz4mI3hhOyAgPHBhdGggZD0iTTguMjUyLDIuNTIxSDkuMzc0VjkuNTk0SDguMjUyWiIgZmlsbD0iIzdhN2E3YSIvPiYjeGE7ICA8cGF0aCBkPSJNMTAuNDU5LDIuM0ExLjY0NywxLjY0NywwLDEsMSw4LjgxMy42NWgwQTEuNjQ2LDEuNjQ2LDAsMCwxLDEwLjQ1OSwyLjNaIiBmaWxsPSIjMTQ5MGRmIi8+JiN4YTsgIDxwYXRoIGQ9Ik04LjU4OCw5LjIyaC0xLjhhMi4yNDYsMi4yNDYsMCwwLDAtLjM0OCw0LjQ2MSwyLjQxNSwyLjQxNSwwLDAsMSwuMDIyLS44MzUsMS40MTgsMS40MTgsMCwwLDEsLjMyNi0yLjhoMS44YTEuNDIyLDEuNDIyLDAsMCwxLDAsMi44NDRIOC4wOTRhMS4wNzgsMS4wNzgsMCwwLDAtLjEuNDUsMS4wMjIsMS4wMjIsMCwwLDAsLjA3MS4zNzRoLjUyN2EyLjI0NiwyLjI0NiwwLDEsMCwwLTQuNDkxWiIgZmlsbD0idXJsKCNmZDA2MTIyOC0yMmJlLTQyNWUtOTEzMS0wYjhjY2EwZTVkMTcpIi8+JiN4YTsgIDxwYXRoIGQ9Ik0xMS4xODIsMTEuMTIxYTIuNjQyLDIuNjQyLDAsMCwxLC4wMjYuMzQ0LDIuMzE3LDIuMzE3LDAsMCwxLS4wNDkuNDkxLDEuNDE4LDEuNDE4LDAsMCwxLS4zMjUsMi44aC0xLjhhMS40MjMsMS40MjMsMCwwLDEsMC0yLjg0NWguNDk0YTEuMDQyLDEuMDQyLDAsMCwwLC4xLS40NDksMS4wMTgsMS4wMTgsMCwwLDAtLjA3MS0uMzc0SDkuMDM3YTIuMjQ2LDIuMjQ2LDAsMCwwLDAsNC40OTFoMS44YTIuMjQ2LDIuMjQ2LDAsMCwwLC4zNDgtNC40NjFaIiBmaWxsPSJ1cmwoI2VhOTY0OWE2LTA0YjUtNDdkNi04MjQ3LWVkM2FiOWZmOWQwNikiLz4mI3hhOyAgPHBhdGggZD0iTTUuNTgsMTYuNTI1bC0uNDEyLjQxNWEuMjguMjgsMCwwLDEtLjQsMGwtNC42MDctNC42YS41NjYuNTY2LDAsMCwxLDAtLjhsLjQxNi0uNDEyLDUsNC45OTJhLjI3Ni4yNzYsMCwwLDEsMCwuMzkxaDBaIiBmaWxsPSIjNTBlNmZmIi8+JiN4YTsgIDxwYXRoIGQ9Ik01LjA4Miw3LjAybC40Ni40NmEuMjgyLjI4MiwwLDAsMSwwLC40TC42MjUsMTIuODA5bC0uNDYxLS40NTdhLjU2Ni41NjYsMCwwLDEsMC0uOEw0LjY4NSw3LjAyQS4yOC4yOCwwLDAsMSw1LjA4Miw3LjAyWiIgZmlsbD0iIzE0OTBkZiIvPiYjeGE7ICA8cGF0aCBkPSJNMTIuNDE3LDE2Ljg1MWEuMjc4LjI3OCwwLDAsMS0uMDA2LS4zOTJoMGwuMDA2LDAsNS00Ljk4OS40MTYuNDE2YS41NjYuNTY2LDAsMCwxLDAsLjhsLTQuNjExLDQuNTg4YS4yNzcuMjc3LDAsMCwxLS4zOTEuMDA2aDBsLS4wMDYtLjAwNVoiIGZpbGw9IiM1MGU2ZmYiLz4mI3hhOyAgPHBhdGggZD0iTTEzLjMxMSw3LjM0OWw0LjUyNSw0LjUzNmEuNTYzLjU2MywwLDAsMSwwLC43OTNsLS40NjEuNDZMMTIuNDU0LDguMjA2YS4yODkuMjg5LDAsMCwxLDAtLjRsLjQ2LS40NTZBLjI4Mi4yODIsMCwwLDEsMTMuMzExLDcuMzQ5WiIgZmlsbD0iIzE0OTBkZiIvPiYjeGE7PC9zdmc+;base64,PHN2ZyB4bWxucz0iaHR0cDovL3d3dy53My5vcmcvMjAwMC9zdmciIHdpZHRoPSIxOC4wMDA4NjAyMTQyMzM0IiBoZWlnaHQ9IjEwLjQyMDkxODQ2NDY2MDY0NSIgdmlld0JveD0iLTAuMDAxNTU1NDk4ODA1ODI4MzkyNSAzLjc5NDMwNDEzMjQ2MTU0OCAxOC4wMDA4NjAyMTQyMzM0IDEwLjQyMDkxODQ2NDY2MDY0NSI+JiN4YTsgIDxkZWZzPiYjeGE7ICAgIDxsaW5lYXJHcmFkaWVudCBpZD0iZWUzOTVkN2QtOWUxMS00MDkzLWI0NTUtOWI2Y2E5ZTE1YTYzIiB4MT0iNy42OTkiIHkxPSI5NTYuMDc2IiB4Mj0iNy42OTkiIHkyPSI5NjAuNTY3IiBncmFkaWVudFRyYW5zZm9ybT0idHJhbnNsYXRlKDAgLTk1MCkiIGdyYWRpZW50VW5pdHM9InVzZXJTcGFjZU9uVXNlIj4mI3hhOyAgICAgIDxzdG9wIG9mZnNldD0iMC4yMyIgc3RvcC1jb2xvcj0iIzVlYTBlZiIvPiYjeGE7ICAgICAgPHN0b3Agb2Zmc2V0PSIwLjkzIiBzdG9wLWNvbG9yPSIjMTI3ZmQ5Ii8+JiN4YTsgICAgPC9saW5lYXJHcmFkaWVudD4mI3hhOyAgICA8bGluZWFyR3JhZGllbnQgaWQ9ImI4MTA1MzI4LWMyYzQtNDkyMy04ZDE4LTZjODQ0ZThhMzg5ZSIgeDE9IjkuOTI3IiB5MT0iOTU3Ljk0NyIgeDI9IjkuOTI3IiB5Mj0iOTYyLjQzOCIgZ3JhZGllbnRUcmFuc2Zvcm09InRyYW5zbGF0ZSgwIC05NTApIiBncmFkaWVudFVuaXRzPSJ1c2VyU3BhY2VPblVzZSI+JiN4YTsgICAgICA8c3RvcCBvZmZzZXQ9IjAuMDIiIHN0b3AtY29sb3I9IiM1ZWEwZWYiLz4mI3hhOyAgICAgIDxzdG9wIG9mZnNldD0iMC45MyIgc3RvcC1jb2xvcj0iIzEyN2ZkOSIvPiYjeGE7ICAgIDwvbGluZWFyR3JhZGllbnQ+JiN4YTsgIDwvZGVmcz4mI3hhOyAgPGcgaWQ9ImE1MjI5ZTdhLTJjNzgtNGRiOS05OWNjLWNhN2ZiZTY0MzY4YiI+JiN4YTsgICAgPGc+JiN4YTsgICAgICA8cGF0aCBkPSJNOC41ODgsNi4wNzZoLTEuOGEyLjI0NiwyLjI0NiwwLDAsMC0uMzQ4LDQuNDYxQTIuNDA5LDIuNDA5LDAsMCwxLDYuNDY2LDkuN2ExLjQxOCwxLjQxOCwwLDAsMSwuMzI2LTIuOGgxLjhhMS40MjIsMS40MjIsMCwwLDEsMCwyLjg0NEg4LjA5NGExLjA3LDEuMDcsMCwwLDAtLjEuNDQ5LDEuMDE4LDEuMDE4LDAsMCwwLC4wNzEuMzc0aC41MjdhMi4yNDYsMi4yNDYsMCwxLDAsMC00LjQ5MVoiIGZpbGw9InVybCgjZWUzOTVkN2QtOWUxMS00MDkzLWI0NTUtOWI2Y2E5ZTE1YTYzKSIvPiYjeGE7ICAgICAgPHBhdGggZD0iTTExLjE4Miw3Ljk3N2EyLjY0NCwyLjY0NCwwLDAsMSwuMDI2LjM0NSwyLjMwOCwyLjMwOCwwLDAsMS0uMDQ5LjQ5LDEuNDE4LDEuNDE4LDAsMCwxLS4zMjUsMi44aC0xLjhhMS40MjIsMS40MjIsMCwwLDEsMC0yLjg0NGguNDk0YTEuMDQ1LDEuMDQ1LDAsMCwwLC4xLS40NDksMS4wMjgsMS4wMjgsMCwwLDAtLjA3MS0uMzc1SDkuMDM3YTIuMjQ2LDIuMjQ2LDAsMCwwLDAsNC40OTFoMS44YTIuMjQ2LDIuMjQ2LDAsMCwwLC4zNDgtNC40NjFaIiBmaWxsPSJ1cmwoI2I4MTA1MzI4LWMyYzQtNDkyMy04ZDE4LTZjODQ0ZThhMzg5ZSkiLz4mI3hhOyAgICAgIDxwYXRoIGQ9Ik01LjU4LDEzLjM4MWwtLjQxMi40MTZhLjI4Mi4yODIsMCwwLDEtLjQsMEwuMTY0LDkuMmEuNTY2LjU2NiwwLDAsMSwwLS44TC41OCw3Ljk5Mmw1LDQuOTkzYS4yNzYuMjc2LDAsMCwxLDAsLjM5MWgwWiIgZmlsbD0iIzUwZTZmZiIvPiYjeGE7ICAgICAgPHBhdGggZD0iTTUuMDgyLDMuODc2bC40Ni40NmEuMjgyLjI4MiwwLDAsMSwwLC40TC42MjUsOS42NjUuMTY0LDkuMjA5YS41NjYuNTY2LDAsMCwxLDAtLjhMNC42ODUsMy44NzZBLjI4Mi4yODIsMCwwLDEsNS4wODIsMy44NzZaIiBmaWxsPSIjMTQ5MGRmIi8+JiN4YTsgICAgICA8cGF0aCBkPSJNMTIuNDE3LDEzLjcwN2EuMjc2LjI3NiwwLDAsMS0uMDA2LS4zOTFoMGwuMDA2LDAsNS00Ljk4OC40MTYuNDE1YS41NjYuNTY2LDAsMCwxLDAsLjhsLTQuNjExLDQuNTg4YS4yNzYuMjc2LDAsMCwxLS4zOTEuMDA2aDBsLS4wMDYtLjAwNVoiIGZpbGw9IiM1MGU2ZmYiLz4mI3hhOyAgICAgIDxwYXRoIGQ9Ik0xMy4zMTEsNC4yMDVsNC41MjUsNC41MzZhLjU2My41NjMsMCwwLDEsMCwuNzkzbC0uNDYxLjQ2TDEyLjQ1NCw1LjA2MmEuMjg3LjI4NywwLDAsMSwwLS40bC40Ni0uNDU3QS4yODIuMjgyLDAsMCwxLDEzLjMxMSw0LjIwNVoiIGZpbGw9IiMxNDkwZGYiLz4mI3hhOyAgICA8L2c+JiN4YTsgIDwvZz4mI3hhOzwvc3ZnPg==;base64,PHN2ZyB4bWxucz0iaHR0cDovL3d3dy53My5vcmcvMjAwMC9zdmciIGlkPSJmMmYwNDM0OS04YWVlLTQ0MTMtODRjOS1hOTA1MzYxMWIzMTkiIHdpZHRoPSIxNyIgaGVpZ2h0PSIxMy42Njk5OTkxMjI2MTk2MjkiIHZpZXdCb3g9IjAuNSAyLjE3MDAwMDA3NjI5Mzk0NTMgMTcgMTMuNjY5OTk5MTIyNjE5NjI5Ij4mI3hhOyAgPGRlZnM+JiN4YTsgICAgPGxpbmVhckdyYWRpZW50IGlkPSJhZDRjNGY5Ni0wOWFhLTRmOTEtYmExMC01Y2I4YWQ1MzBmNzQiIHgxPSI5IiB5MT0iMTUuODMiIHgyPSI5IiB5Mj0iNS43OSIgZ3JhZGllbnRVbml0cz0idXNlclNwYWNlT25Vc2UiPiYjeGE7ICAgICAgPHN0b3Agb2Zmc2V0PSIwIiBzdG9wLWNvbG9yPSIjYjNiM2IzIi8+JiN4YTsgICAgICA8c3RvcCBvZmZzZXQ9IjAuMjYiIHN0b3AtY29sb3I9IiNjMWMxYzEiLz4mI3hhOyAgICAgIDxzdG9wIG9mZnNldD0iMSIgc3RvcC1jb2xvcj0iI2U2ZTZlNiIvPiYjeGE7ICAgIDwvbGluZWFyR3JhZGllbnQ+JiN4YTsgIDwvZGVmcz4mI3hhOyAgPHRpdGxlPkljb24tc3RvcmFnZS04NjwvdGl0bGU+JiN4YTsgIDxwYXRoIGQ9Ik0uNSw1Ljc5aDE3YTAsMCwwLDAsMSwwLDB2OS40OGEuNTcuNTcsMCwwLDEtLjU3LjU3SDEuMDdhLjU3LjU3LDAsMCwxLS41Ny0uNTdWNS43OUEwLDAsMCwwLDEsLjUsNS43OVoiIGZpbGw9InVybCgjYWQ0YzRmOTYtMDlhYS00ZjkxLWJhMTAtNWNiOGFkNTMwZjc0KSIvPiYjeGE7ICA8cGF0aCBkPSJNMS4wNywyLjE3SDE2LjkzYS41Ny41NywwLDAsMSwuNTcuNTdWNS43OWEwLDAsMCwwLDEsMCwwSC41YTAsMCwwLDAsMSwwLDBWMi43M0EuNTcuNTcsMCwwLDEsMS4wNywyLjE3WiIgZmlsbD0iIzM3YzJiMSIvPiYjeGE7ICA8cGF0aCBkPSJNMi44MSw2Ljg5SDE1LjE4YS4yNy4yNywwLDAsMSwuMjYuMjd2MS40YS4yNy4yNywwLDAsMS0uMjYuMjdIMi44MWEuMjcuMjcsMCwwLDEtLjI2LS4yN1Y3LjE2QS4yNy4yNywwLDAsMSwyLjgxLDYuODlaIiBmaWxsPSIjZmZmIi8+JiN4YTsgIDxwYXRoIGQ9Ik0yLjgyLDkuNjhIMTUuMTlhLjI3LjI3LDAsMCwxLC4yNi4yN3YxLjQxYS4yNy4yNywwLDAsMS0uMjYuMjdIMi44MmEuMjcuMjcsMCwwLDEtLjI2LS4yN1YxMEEuMjcuMjcsMCwwLDEsMi44Miw5LjY4WiIgZmlsbD0iIzM3YzJiMSIvPiYjeGE7ICA8cGF0aCBkPSJNMi44MiwxMi41SDE1LjE5YS4yNy4yNywwLDAsMSwuMjYuMjd2MS40MWEuMjcuMjcsMCwwLDEtLjI2LjI3SDIuODJhLjI3LjI3LDAsMCwxLS4yNi0uMjdWMTIuNzdBLjI3LjI3LDAsMCwxLDIuODIsMTIuNVoiIGZpbGw9IiMyNTgyNzciLz4mI3hhOzwvc3ZnPg==;" vertex="1" parent="ZqZqqDHpZdhVjMUOQdLO-1">
                    <mxGeometry x="760" y="410.73" width="20" height="28.34" as="geometry"/>
                </mxCell>
                <mxCell id="QRMWilzC_tfbdQ8QkiML-0" value="" style="shape=image;imageAspect=0;aspect=fixed;verticalLabelPosition=bottom;verticalAlign=top;image=data:image/svg+xml,PHN2ZyB4bWxucz0iaHR0cDovL3d3dy53My5vcmcvMjAwMC9zdmciIGlkPSJhNTQyY2YzOS0yYmE2LTQyMDYtODI3OC02YTRmMWMyNDUyZjUiIHdpZHRoPSIxNi45Njc2MjQ2NjQzMDY2NCIgaGVpZ2h0PSIxNi45NzE1MTk0NzAyMTQ4NDQiIHZpZXdCb3g9IjAuNDk2OTEyNzQ3NjIxNTM2MjUgMC41MzE1Njk0MjEyOTEzNTEzIDE2Ljk2NzYyNDY2NDMwNjY0IDE2Ljk3MTUxOTQ3MDIxNDg0NCI+JiN4YTsgIDxkZWZzPiYjeGE7ICAgIDxyYWRpYWxHcmFkaWVudCBpZD0iZTc1NzlmNGQtMzZhMy00NjkzLWE3MjYtN2E2MDUwYWM1NjcxIiBjeD0iLTY4MTEuNCIgY3k9IjY3MjkuNjkiIHI9IjE3IiBncmFkaWVudFRyYW5zZm9ybT0ibWF0cml4KDAuNSwgMCwgMCwgLTAuNSwgMzQxNC45MSwgMzM3NC4wNSkiIGdyYWRpZW50VW5pdHM9InVzZXJTcGFjZU9uVXNlIj4mI3hhOyAgICAgIDxzdG9wIG9mZnNldD0iMC4xOCIgc3RvcC1jb2xvcj0iIzVlYTBlZiIvPiYjeGE7ICAgICAgPHN0b3Agb2Zmc2V0PSIxIiBzdG9wLWNvbG9yPSIjMDA3OGQ0Ii8+JiN4YTsgICAgPC9yYWRpYWxHcmFkaWVudD4mI3hhOyAgPC9kZWZzPiYjeGE7ICA8dGl0bGU+SWNvbi1uZXR3b3JraW5nLTY0PC90aXRsZT4mI3hhOyAgPHBhdGggaWQ9ImY1N2UxMDVkLTZkMmQtNGFkNy1iOGMzLWMxMDY4NGM5ZjliOCIgZD0iTTE0LjIxLDE1LjcyQTguNSw4LjUsMCwwLDEsMy43OSwyLjI4bC4wOS0uMDZhOC41LDguNSwwLDAsMSwxMC4zMywxMy41IiBmaWxsPSJ1cmwoI2U3NTc5ZjRkLTM2YTMtNDY5My1hNzI2LTdhNjA1MGFjNTY3MSkiLz4mI3hhOyAgPHBhdGggZD0iTTksMS4zMUE3LjY5LDcuNjksMCwxLDAsMTYuNjksOSw3LjcsNy43LDAsMCwwLDksMS4zMVpNMTQuMTUsMy45QTcuMzcsNy4zNywwLDAsMSwxMiw0LjcsOC44Myw4LjgzLDAsMCwwLDEwLjc1LDIsNy4yLDcuMiwwLDAsMSwxNC4xNSwzLjlaTTksMS43NGE2LjU5LDYuNTksMCwwLDEsMS4wOS4wOWgwYTcuNDgsNy40OCwwLDAsMSwxLjUzLDMsMTUuMTIsMTUuMTIsMCwwLDEtNS40NSwwQTcuMzgsNy4zOCwwLDAsMSw3LjY4LDEuODlsMCwwQTcuMzQsNy4zNCwwLDAsMSw5LDEuNzRaTTcsMkE4LjcyLDguNzIsMCwwLDAsNS43Myw0LjY4YTUuNTgsNS41OCwwLDAsMS0xLjktLjc3QTcuMzUsNy4zNSwwLDAsMSw3LDJaTTMuNzIsMTRhNS4yNyw1LjI3LDAsMCwxLDEuNzgtLjc2LDcuMDgsNy4wOCwwLDAsMCwxLjM1LDIuNzJBNy4yNSw3LjI1LDAsMCwxLDMuNzIsMTRabTYuNDEsMi4yQTcuMDgsNy4wOCwwLDAsMSw5LDE2LjI2YTYuODMsNi44MywwLDAsMS0xLjQ0LS4xNWwwLDBhNiw2LDAsMCwxLTEuNjctMywxNC43MywxNC43MywwLDAsMSw1Ljg4LDAsNiw2LDAsMCwxLTEuNjksM1ptLjczLS4xNmE3LjEzLDcuMTMsMCwwLDAsMS4zOC0yLjgsNi42OCw2LjY4LDAsMCwxLDIsLjgzQTcuMTMsNy4xMywwLDAsMSwxMC44NiwxNlptMS40OC0zLjIyYy4wOC0uMzYuMTUtLjczLjItMS4xMmwtLjQ2LjExYy0uMDUuMzEtLjEuNjItLjE3LjkxYTE1LjIzLDE1LjIzLDAsMCwwLTYuMDksMGMtLjA3LS4yNy0uMTItLjU2LS4xNy0uODZhLjI4LjI4LDAsMCwxLDAtLjA5bC0uNDYtLjEzYTIuMzYsMi4zNiwwLDAsMCwwLC4yOGMwLC4zMi4xMS42Mi4xNy45MWE1LjksNS45LDAsMCwwLTIsLjg1LDcuMjQsNy4yNCwwLDAsMSwuMTEtOS40LDYuMjksNi4yOSwwLDAsMCwyLjA4Ljg2Yy0uMDcuMjQtLjEzLjUtLjE4Ljc2czAsLjI1LS4wOC4zN2wuNDctLjExLDAtLjE3Yy4wNi0uMjYuMTItLjUxLjE5LS43NUExNC44OSwxNC44OSwwLDAsMCw5LDUuNDhhMTUsMTUsMCwwLDAsMi43OC0uMjZjLjA3LjI3LjE0LjU2LjIuODVsLjQ2LjExcS0uMTEtLjU0LS4yNC0xYTcuNzMsNy43MywwLDAsMCwyLjMtLjkxLDcuMjIsNy4yMiwwLDAsMSwuMDYsOS40OUE3LjI4LDcuMjgsMCwwLDAsMTIuMzQsMTIuNzlaIiBmaWxsPSIjNWVhMGVmIi8+JiN4YTsgIDxwYXRoIGQ9Ik0zLjY5LDdhNy45Miw3LjkyLDAsMCwxLDEuMTYtLjA4LDIuNDQsMi40NCwwLDAsMSwxLjcxLjUyQTIsMiwwLDAsMSw3LjE1LDguOWEyLjIxLDIuMjEsMCwwLDEtLjYxLDEuNjQsMi42LDIuNiwwLDAsMS0xLjg2LjYxLDkuMTcsOS4xNywwLDAsMS0xLS4wNVptLjU1LDMuNzNhNCw0LDAsMCwwLC41NSwwQTEuNjIsMS42MiwwLDAsMCw2LjU4LDguOTIsMS41LDEuNSwwLDAsMCw0Ljg3LDcuM2EzLjE3LDMuMTcsMCwwLDAtLjYzLDBaIiBmaWxsPSIjZmZmIi8+JiN4YTsgIDxwYXRoIGQ9Ik03Ljg2LDExLjExVjYuOWguNTlMOS44LDlhMTIuMTgsMTIuMTgsMCwwLDEsLjc2LDEuMzdoMGMtLjA1LS41Ni0uMDYtMS4wNy0uMDYtMS43M1Y2LjlIMTF2NC4yMWgtLjU1TDkuMTMsOWMtLjI5LS40Ny0uNTctMS0uNzktMS40aDBjMCwuNTMsMCwxLDAsMS43NHYxLjhaIiBmaWxsPSIjZmZmIi8+JiN4YTsgIDxwYXRoIGQ9Ik0xMS44OSwxMC40NWEyLDIsMCwwLDAsMSwuMjdjLjU2LDAsLjg4LS4yOS44OC0uNzJzLS4yMi0uNjItLjc5LS44My0xLjEyLS42LTEuMTItMS4yYTEuMjIsMS4yMiwwLDAsMSwxLjM3LTEuMTQsMiwyLDAsMCwxLC45My4yTDE0LDcuNDhhMS42MywxLjYzLDAsMCwwLS44LS4yYy0uNTgsMC0uOC4zNC0uOC42M3MuMjYuNTkuODQuODEsMS4wOC42MiwxLjA4LDEuMjQtLjQ4LDEuMjEtMS40OCwxLjIxYTIuMTYsMi4xNiwwLDAsMS0xLjA3LS4yN1oiIGZpbGw9IiNmZmYiLz4mI3hhOzwvc3ZnPg==;" vertex="1" parent="ZqZqqDHpZdhVjMUOQdLO-1">
                    <mxGeometry x="374" y="518.98" width="30" height="30" as="geometry"/>
                </mxCell>
                <mxCell id="QRMWilzC_tfbdQ8QkiML-1" value="&lt;font style=&quot;font-size: 7px&quot;&gt;privatelink.vaultcore.azure.net&lt;/font&gt;" style="text;html=1;resizable=0;autosize=1;align=center;verticalAlign=middle;points=[];fillColor=none;strokeColor=none;rounded=0;" vertex="1" parent="ZqZqqDHpZdhVjMUOQdLO-1">
                    <mxGeometry x="334.00000000000006" y="548.98" width="110" height="20" as="geometry"/>
                </mxCell>
                <mxCell id="QRMWilzC_tfbdQ8QkiML-2" value="" style="shape=image;imageAspect=0;aspect=fixed;verticalLabelPosition=bottom;verticalAlign=top;image=data:image/svg+xml,PHN2ZyB4bWxucz0iaHR0cDovL3d3dy53My5vcmcvMjAwMC9zdmciIGlkPSJhNTQyY2YzOS0yYmE2LTQyMDYtODI3OC02YTRmMWMyNDUyZjUiIHdpZHRoPSIxNi45Njc2MjQ2NjQzMDY2NCIgaGVpZ2h0PSIxNi45NzE1MTk0NzAyMTQ4NDQiIHZpZXdCb3g9IjAuNDk2OTEyNzQ3NjIxNTM2MjUgMC41MzE1Njk0MjEyOTEzNTEzIDE2Ljk2NzYyNDY2NDMwNjY0IDE2Ljk3MTUxOTQ3MDIxNDg0NCI+JiN4YTsgIDxkZWZzPiYjeGE7ICAgIDxyYWRpYWxHcmFkaWVudCBpZD0iZTc1NzlmNGQtMzZhMy00NjkzLWE3MjYtN2E2MDUwYWM1NjcxIiBjeD0iLTY4MTEuNCIgY3k9IjY3MjkuNjkiIHI9IjE3IiBncmFkaWVudFRyYW5zZm9ybT0ibWF0cml4KDAuNSwgMCwgMCwgLTAuNSwgMzQxNC45MSwgMzM3NC4wNSkiIGdyYWRpZW50VW5pdHM9InVzZXJTcGFjZU9uVXNlIj4mI3hhOyAgICAgIDxzdG9wIG9mZnNldD0iMC4xOCIgc3RvcC1jb2xvcj0iIzVlYTBlZiIvPiYjeGE7ICAgICAgPHN0b3Agb2Zmc2V0PSIxIiBzdG9wLWNvbG9yPSIjMDA3OGQ0Ii8+JiN4YTsgICAgPC9yYWRpYWxHcmFkaWVudD4mI3hhOyAgPC9kZWZzPiYjeGE7ICA8dGl0bGU+SWNvbi1uZXR3b3JraW5nLTY0PC90aXRsZT4mI3hhOyAgPHBhdGggaWQ9ImY1N2UxMDVkLTZkMmQtNGFkNy1iOGMzLWMxMDY4NGM5ZjliOCIgZD0iTTE0LjIxLDE1LjcyQTguNSw4LjUsMCwwLDEsMy43OSwyLjI4bC4wOS0uMDZhOC41LDguNSwwLDAsMSwxMC4zMywxMy41IiBmaWxsPSJ1cmwoI2U3NTc5ZjRkLTM2YTMtNDY5My1hNzI2LTdhNjA1MGFjNTY3MSkiLz4mI3hhOyAgPHBhdGggZD0iTTksMS4zMUE3LjY5LDcuNjksMCwxLDAsMTYuNjksOSw3LjcsNy43LDAsMCwwLDksMS4zMVpNMTQuMTUsMy45QTcuMzcsNy4zNywwLDAsMSwxMiw0LjcsOC44Myw4LjgzLDAsMCwwLDEwLjc1LDIsNy4yLDcuMiwwLDAsMSwxNC4xNSwzLjlaTTksMS43NGE2LjU5LDYuNTksMCwwLDEsMS4wOS4wOWgwYTcuNDgsNy40OCwwLDAsMSwxLjUzLDMsMTUuMTIsMTUuMTIsMCwwLDEtNS40NSwwQTcuMzgsNy4zOCwwLDAsMSw3LjY4LDEuODlsMCwwQTcuMzQsNy4zNCwwLDAsMSw5LDEuNzRaTTcsMkE4LjcyLDguNzIsMCwwLDAsNS43Myw0LjY4YTUuNTgsNS41OCwwLDAsMS0xLjktLjc3QTcuMzUsNy4zNSwwLDAsMSw3LDJaTTMuNzIsMTRhNS4yNyw1LjI3LDAsMCwxLDEuNzgtLjc2LDcuMDgsNy4wOCwwLDAsMCwxLjM1LDIuNzJBNy4yNSw3LjI1LDAsMCwxLDMuNzIsMTRabTYuNDEsMi4yQTcuMDgsNy4wOCwwLDAsMSw5LDE2LjI2YTYuODMsNi44MywwLDAsMS0xLjQ0LS4xNWwwLDBhNiw2LDAsMCwxLTEuNjctMywxNC43MywxNC43MywwLDAsMSw1Ljg4LDAsNiw2LDAsMCwxLTEuNjksM1ptLjczLS4xNmE3LjEzLDcuMTMsMCwwLDAsMS4zOC0yLjgsNi42OCw2LjY4LDAsMCwxLDIsLjgzQTcuMTMsNy4xMywwLDAsMSwxMC44NiwxNlptMS40OC0zLjIyYy4wOC0uMzYuMTUtLjczLjItMS4xMmwtLjQ2LjExYy0uMDUuMzEtLjEuNjItLjE3LjkxYTE1LjIzLDE1LjIzLDAsMCwwLTYuMDksMGMtLjA3LS4yNy0uMTItLjU2LS4xNy0uODZhLjI4LjI4LDAsMCwxLDAtLjA5bC0uNDYtLjEzYTIuMzYsMi4zNiwwLDAsMCwwLC4yOGMwLC4zMi4xMS42Mi4xNy45MWE1LjksNS45LDAsMCwwLTIsLjg1LDcuMjQsNy4yNCwwLDAsMSwuMTEtOS40LDYuMjksNi4yOSwwLDAsMCwyLjA4Ljg2Yy0uMDcuMjQtLjEzLjUtLjE4Ljc2czAsLjI1LS4wOC4zN2wuNDctLjExLDAtLjE3Yy4wNi0uMjYuMTItLjUxLjE5LS43NUExNC44OSwxNC44OSwwLDAsMCw5LDUuNDhhMTUsMTUsMCwwLDAsMi43OC0uMjZjLjA3LjI3LjE0LjU2LjIuODVsLjQ2LjExcS0uMTEtLjU0LS4yNC0xYTcuNzMsNy43MywwLDAsMCwyLjMtLjkxLDcuMjIsNy4yMiwwLDAsMSwuMDYsOS40OUE3LjI4LDcuMjgsMCwwLDAsMTIuMzQsMTIuNzlaIiBmaWxsPSIjNWVhMGVmIi8+JiN4YTsgIDxwYXRoIGQ9Ik0zLjY5LDdhNy45Miw3LjkyLDAsMCwxLDEuMTYtLjA4LDIuNDQsMi40NCwwLDAsMSwxLjcxLjUyQTIsMiwwLDAsMSw3LjE1LDguOWEyLjIxLDIuMjEsMCwwLDEtLjYxLDEuNjQsMi42LDIuNiwwLDAsMS0xLjg2LjYxLDkuMTcsOS4xNywwLDAsMS0xLS4wNVptLjU1LDMuNzNhNCw0LDAsMCwwLC41NSwwQTEuNjIsMS42MiwwLDAsMCw2LjU4LDguOTIsMS41LDEuNSwwLDAsMCw0Ljg3LDcuM2EzLjE3LDMuMTcsMCwwLDAtLjYzLDBaIiBmaWxsPSIjZmZmIi8+JiN4YTsgIDxwYXRoIGQ9Ik03Ljg2LDExLjExVjYuOWguNTlMOS44LDlhMTIuMTgsMTIuMTgsMCwwLDEsLjc2LDEuMzdoMGMtLjA1LS41Ni0uMDYtMS4wNy0uMDYtMS43M1Y2LjlIMTF2NC4yMWgtLjU1TDkuMTMsOWMtLjI5LS40Ny0uNTctMS0uNzktMS40aDBjMCwuNTMsMCwxLDAsMS43NHYxLjhaIiBmaWxsPSIjZmZmIi8+JiN4YTsgIDxwYXRoIGQ9Ik0xMS44OSwxMC40NWEyLDIsMCwwLDAsMSwuMjdjLjU2LDAsLjg4LS4yOS44OC0uNzJzLS4yMi0uNjItLjc5LS44My0xLjEyLS42LTEuMTItMS4yYTEuMjIsMS4yMiwwLDAsMSwxLjM3LTEuMTQsMiwyLDAsMCwxLC45My4yTDE0LDcuNDhhMS42MywxLjYzLDAsMCwwLS44LS4yYy0uNTgsMC0uOC4zNC0uOC42M3MuMjYuNTkuODQuODEsMS4wOC42MiwxLjA4LDEuMjQtLjQ4LDEuMjEtMS40OCwxLjIxYTIuMTYsMi4xNiwwLDAsMS0xLjA3LS4yN1oiIGZpbGw9IiNmZmYiLz4mI3hhOzwvc3ZnPg==;" vertex="1" parent="ZqZqqDHpZdhVjMUOQdLO-1">
                    <mxGeometry x="517.49" y="518.98" width="30" height="30" as="geometry"/>
                </mxCell>
                <mxCell id="QRMWilzC_tfbdQ8QkiML-3" value="&lt;font style=&quot;font-size: 7px&quot;&gt;privatelink.azurewebsites.net&lt;/font&gt;" style="text;html=1;resizable=0;autosize=1;align=center;verticalAlign=middle;points=[];fillColor=none;strokeColor=none;rounded=0;" vertex="1" parent="ZqZqqDHpZdhVjMUOQdLO-1">
                    <mxGeometry x="475.5" y="548.98" width="110" height="20" as="geometry"/>
                </mxCell>
                <mxCell id="QRMWilzC_tfbdQ8QkiML-4" value="" style="shape=image;imageAspect=0;aspect=fixed;verticalLabelPosition=bottom;verticalAlign=top;image=data:image/svg+xml,PHN2ZyB4bWxucz0iaHR0cDovL3d3dy53My5vcmcvMjAwMC9zdmciIGlkPSJhNTQyY2YzOS0yYmE2LTQyMDYtODI3OC02YTRmMWMyNDUyZjUiIHdpZHRoPSIxNi45Njc2MjQ2NjQzMDY2NCIgaGVpZ2h0PSIxNi45NzE1MTk0NzAyMTQ4NDQiIHZpZXdCb3g9IjAuNDk2OTEyNzQ3NjIxNTM2MjUgMC41MzE1Njk0MjEyOTEzNTEzIDE2Ljk2NzYyNDY2NDMwNjY0IDE2Ljk3MTUxOTQ3MDIxNDg0NCI+JiN4YTsgIDxkZWZzPiYjeGE7ICAgIDxyYWRpYWxHcmFkaWVudCBpZD0iZTc1NzlmNGQtMzZhMy00NjkzLWE3MjYtN2E2MDUwYWM1NjcxIiBjeD0iLTY4MTEuNCIgY3k9IjY3MjkuNjkiIHI9IjE3IiBncmFkaWVudFRyYW5zZm9ybT0ibWF0cml4KDAuNSwgMCwgMCwgLTAuNSwgMzQxNC45MSwgMzM3NC4wNSkiIGdyYWRpZW50VW5pdHM9InVzZXJTcGFjZU9uVXNlIj4mI3hhOyAgICAgIDxzdG9wIG9mZnNldD0iMC4xOCIgc3RvcC1jb2xvcj0iIzVlYTBlZiIvPiYjeGE7ICAgICAgPHN0b3Agb2Zmc2V0PSIxIiBzdG9wLWNvbG9yPSIjMDA3OGQ0Ii8+JiN4YTsgICAgPC9yYWRpYWxHcmFkaWVudD4mI3hhOyAgPC9kZWZzPiYjeGE7ICA8dGl0bGU+SWNvbi1uZXR3b3JraW5nLTY0PC90aXRsZT4mI3hhOyAgPHBhdGggaWQ9ImY1N2UxMDVkLTZkMmQtNGFkNy1iOGMzLWMxMDY4NGM5ZjliOCIgZD0iTTE0LjIxLDE1LjcyQTguNSw4LjUsMCwwLDEsMy43OSwyLjI4bC4wOS0uMDZhOC41LDguNSwwLDAsMSwxMC4zMywxMy41IiBmaWxsPSJ1cmwoI2U3NTc5ZjRkLTM2YTMtNDY5My1hNzI2LTdhNjA1MGFjNTY3MSkiLz4mI3hhOyAgPHBhdGggZD0iTTksMS4zMUE3LjY5LDcuNjksMCwxLDAsMTYuNjksOSw3LjcsNy43LDAsMCwwLDksMS4zMVpNMTQuMTUsMy45QTcuMzcsNy4zNywwLDAsMSwxMiw0LjcsOC44Myw4LjgzLDAsMCwwLDEwLjc1LDIsNy4yLDcuMiwwLDAsMSwxNC4xNSwzLjlaTTksMS43NGE2LjU5LDYuNTksMCwwLDEsMS4wOS4wOWgwYTcuNDgsNy40OCwwLDAsMSwxLjUzLDMsMTUuMTIsMTUuMTIsMCwwLDEtNS40NSwwQTcuMzgsNy4zOCwwLDAsMSw3LjY4LDEuODlsMCwwQTcuMzQsNy4zNCwwLDAsMSw5LDEuNzRaTTcsMkE4LjcyLDguNzIsMCwwLDAsNS43Myw0LjY4YTUuNTgsNS41OCwwLDAsMS0xLjktLjc3QTcuMzUsNy4zNSwwLDAsMSw3LDJaTTMuNzIsMTRhNS4yNyw1LjI3LDAsMCwxLDEuNzgtLjc2LDcuMDgsNy4wOCwwLDAsMCwxLjM1LDIuNzJBNy4yNSw3LjI1LDAsMCwxLDMuNzIsMTRabTYuNDEsMi4yQTcuMDgsNy4wOCwwLDAsMSw5LDE2LjI2YTYuODMsNi44MywwLDAsMS0xLjQ0LS4xNWwwLDBhNiw2LDAsMCwxLTEuNjctMywxNC43MywxNC43MywwLDAsMSw1Ljg4LDAsNiw2LDAsMCwxLTEuNjksM1ptLjczLS4xNmE3LjEzLDcuMTMsMCwwLDAsMS4zOC0yLjgsNi42OCw2LjY4LDAsMCwxLDIsLjgzQTcuMTMsNy4xMywwLDAsMSwxMC44NiwxNlptMS40OC0zLjIyYy4wOC0uMzYuMTUtLjczLjItMS4xMmwtLjQ2LjExYy0uMDUuMzEtLjEuNjItLjE3LjkxYTE1LjIzLDE1LjIzLDAsMCwwLTYuMDksMGMtLjA3LS4yNy0uMTItLjU2LS4xNy0uODZhLjI4LjI4LDAsMCwxLDAtLjA5bC0uNDYtLjEzYTIuMzYsMi4zNiwwLDAsMCwwLC4yOGMwLC4zMi4xMS42Mi4xNy45MWE1LjksNS45LDAsMCwwLTIsLjg1LDcuMjQsNy4yNCwwLDAsMSwuMTEtOS40LDYuMjksNi4yOSwwLDAsMCwyLjA4Ljg2Yy0uMDcuMjQtLjEzLjUtLjE4Ljc2czAsLjI1LS4wOC4zN2wuNDctLjExLDAtLjE3Yy4wNi0uMjYuMTItLjUxLjE5LS43NUExNC44OSwxNC44OSwwLDAsMCw5LDUuNDhhMTUsMTUsMCwwLDAsMi43OC0uMjZjLjA3LjI3LjE0LjU2LjIuODVsLjQ2LjExcS0uMTEtLjU0LS4yNC0xYTcuNzMsNy43MywwLDAsMCwyLjMtLjkxLDcuMjIsNy4yMiwwLDAsMSwuMDYsOS40OUE3LjI4LDcuMjgsMCwwLDAsMTIuMzQsMTIuNzlaIiBmaWxsPSIjNWVhMGVmIi8+JiN4YTsgIDxwYXRoIGQ9Ik0zLjY5LDdhNy45Miw3LjkyLDAsMCwxLDEuMTYtLjA4LDIuNDQsMi40NCwwLDAsMSwxLjcxLjUyQTIsMiwwLDAsMSw3LjE1LDguOWEyLjIxLDIuMjEsMCwwLDEtLjYxLDEuNjQsMi42LDIuNiwwLDAsMS0xLjg2LjYxLDkuMTcsOS4xNywwLDAsMS0xLS4wNVptLjU1LDMuNzNhNCw0LDAsMCwwLC41NSwwQTEuNjIsMS42MiwwLDAsMCw2LjU4LDguOTIsMS41LDEuNSwwLDAsMCw0Ljg3LDcuM2EzLjE3LDMuMTcsMCwwLDAtLjYzLDBaIiBmaWxsPSIjZmZmIi8+JiN4YTsgIDxwYXRoIGQ9Ik03Ljg2LDExLjExVjYuOWguNTlMOS44LDlhMTIuMTgsMTIuMTgsMCwwLDEsLjc2LDEuMzdoMGMtLjA1LS41Ni0uMDYtMS4wNy0uMDYtMS43M1Y2LjlIMTF2NC4yMWgtLjU1TDkuMTMsOWMtLjI5LS40Ny0uNTctMS0uNzktMS40aDBjMCwuNTMsMCwxLDAsMS43NHYxLjhaIiBmaWxsPSIjZmZmIi8+JiN4YTsgIDxwYXRoIGQ9Ik0xMS44OSwxMC40NWEyLDIsMCwwLDAsMSwuMjdjLjU2LDAsLjg4LS4yOS44OC0uNzJzLS4yMi0uNjItLjc5LS44My0xLjEyLS42LTEuMTItMS4yYTEuMjIsMS4yMiwwLDAsMSwxLjM3LTEuMTQsMiwyLDAsMCwxLC45My4yTDE0LDcuNDhhMS42MywxLjYzLDAsMCwwLS44LS4yYy0uNTgsMC0uOC4zNC0uOC42M3MuMjYuNTkuODQuODEsMS4wOC42MiwxLjA4LDEuMjQtLjQ4LDEuMjEtMS40OCwxLjIxYTIuMTYsMi4xNiwwLDAsMS0xLjA3LS4yN1oiIGZpbGw9IiNmZmYiLz4mI3hhOzwvc3ZnPg==;" vertex="1" parent="ZqZqqDHpZdhVjMUOQdLO-1">
                    <mxGeometry x="261.99" y="520" width="30" height="30" as="geometry"/>
                </mxCell>
                <mxCell id="QRMWilzC_tfbdQ8QkiML-5" value="&lt;font style=&quot;font-size: 7px&quot;&gt;contoso.net&lt;/font&gt;" style="text;html=1;resizable=0;autosize=1;align=center;verticalAlign=middle;points=[];fillColor=none;strokeColor=none;rounded=0;" vertex="1" parent="ZqZqqDHpZdhVjMUOQdLO-1">
                    <mxGeometry x="250" y="550" width="50" height="20" as="geometry"/>
                </mxCell>
                <mxCell id="JLamW3MIxxadbk46ajg9-0" value="" style="shape=image;verticalLabelPosition=bottom;labelBackgroundColor=#ffffff;verticalAlign=top;aspect=fixed;imageAspect=0;image=data:image/svg+xml,PHN2ZyB4bWxucz0iaHR0cDovL3d3dy53My5vcmcvMjAwMC9zdmciIGlkPSJhZDYwNzFkNy1lYjc0LTQ2N2UtODFlZS1lYjRlYTY0MTM3M2IiIHdpZHRoPSIxNiIgaGVpZ2h0PSIxNiIgdmlld0JveD0iMCAwIDE2IDE2Ij4KICA8Y2lyY2xlIGN4PSI4IiBjeT0iOCIgcj0iOCIgZmlsbD0iI2E0MjYyYyIvPgogIDxwYXRoIGQ9Ik0xMyw5LjJWNi44SDNWOS4yWiIgZmlsbD0iI2ZmZiIvPgo8L3N2Zz4=;" vertex="1" parent="ZqZqqDHpZdhVjMUOQdLO-1">
                    <mxGeometry x="101.21000000000001" y="256.8" width="24.2" height="24.2" as="geometry"/>
                </mxCell>
                <mxCell id="JLamW3MIxxadbk46ajg9-3" value="" style="shape=image;imageAspect=0;aspect=fixed;verticalLabelPosition=bottom;verticalAlign=top;image=data:image/svg+xml,PHN2ZyB4bWxucz0iaHR0cDovL3d3dy53My5vcmcvMjAwMC9zdmciIHdpZHRoPSIxNy40NjgxMzk2NDg0Mzc1IiBoZWlnaHQ9IjEwLjQwOTgxODY0OTI5MTk5MiIgdmlld0JveD0iMC4yNjYyNTUxOTk5MDkyMTAyIDMuNzk1NjE5NzI2MTgxMDMwMyAxNy40NjgxMzk2NDg0Mzc1IDEwLjQwOTgxODY0OTI5MTk5MiI+JiN4YTsgIDxkZWZzPiYjeGE7ICAgIDxsaW5lYXJHcmFkaWVudCBpZD0iYmNlYjYwZGQtOGI4Yy00MDk4LTk0ZjgtYWViNGRiMmVkYWVmIiB4MT0iOS4wMzMiIHkxPSIxMC4zMDUiIHgyPSI5LjAzMyIgeTI9IjcuNjk1IiBncmFkaWVudFVuaXRzPSJ1c2VyU3BhY2VPblVzZSI+JiN4YTsgICAgICA8c3RvcCBvZmZzZXQ9IjAiIHN0b3AtY29sb3I9IiM1ZTk2MjQiLz4mI3hhOyAgICAgIDxzdG9wIG9mZnNldD0iMC4yNDEiIHN0b3AtY29sb3I9IiM2ZmIwMmEiLz4mI3hhOyAgICAgIDxzdG9wIG9mZnNldD0iMC41MDEiIHN0b3AtY29sb3I9IiM3Y2M1MmYiLz4mI3hhOyAgICAgIDxzdG9wIG9mZnNldD0iMC43NTYiIHN0b3AtY29sb3I9IiM4M2QyMzIiLz4mI3hhOyAgICAgIDxzdG9wIG9mZnNldD0iMSIgc3RvcC1jb2xvcj0iIzg2ZDYzMyIvPiYjeGE7ICAgIDwvbGluZWFyR3JhZGllbnQ+JiN4YTsgIDwvZGVmcz4mI3hhOyAgPGcgaWQ9ImFjNzVjMjFlLTJhOTMtNDY0Zi04MDQ4LWYxNTE4ZGFiOGI3NSI+JiN4YTsgICAgPGc+JiN4YTsgICAgICA8cGF0aCBkPSJNOS4wMzEsNy43QTEuMzA1LDEuMzA1LDAsMSwwLDEwLjMzOCw5LDEuMzA1LDEuMzA1LDAsMCwwLDkuMDMxLDcuN1oiIGZpbGw9InVybCgjYmNlYjYwZGQtOGI4Yy00MDk4LTk0ZjgtYWViNGRiMmVkYWVmKSIvPiYjeGE7ICAgICAgPGc+JiN4YTsgICAgICAgIDxwYXRoIGQ9Ik0yLjk2MSw3LjM3NGguODg4YS4yODQuMjg0LDAsMCwxLC4yODQuMjg0djYuNTUxYS41NjguNTY4LDAsMCwxLS41NjguNTY4SDIuNjc3YTAsMCwwLDAsMSwwLDBWNy42NTlBLjI4NC4yODQsMCwwLDEsMi45NjEsNy4zNzRaIiB0cmFuc2Zvcm09InRyYW5zbGF0ZSgxMy42NTMgMTYuNDg1KSByb3RhdGUoMTM0LjkxOSkiIGZpbGw9IiM1MGU2ZmYiLz4mI3hhOyAgICAgICAgPHBhdGggZD0iTTIuOTEzLDMuMjQ0SDMuOGEuMjg0LjI4NCwwLDAsMSwuMjg0LjI4NHY3LjAxNWEwLDAsMCwwLDEsMCwwSDMuMmEuNTY4LjU2OCwwLDAsMS0uNTY4LS41NjhWMy41MjhhLjI4NC4yODQsMCwwLDEsLjI4NC0uMjg0WiIgdHJhbnNmb3JtPSJ0cmFuc2xhdGUoNS44NDcgLTAuMzU4KSByb3RhdGUoNDQuOTE5KSIgZmlsbD0iIzE0OTBkZiIvPiYjeGE7ICAgICAgICA8cGF0aCBkPSJNMTMuODY3LDcuMzc0aC44ODhhLjU2OC41NjgsMCwwLDEsLjU2OC41Njh2Ni41NTFhLjI4NC4yODQsMCwwLDEtLjI4NC4yODRoLS44ODhhLjI4NC4yODQsMCwwLDEtLjI4NC0uMjg0VjcuMzc0YTAsMCwwLDAsMSwwLDBaIiB0cmFuc2Zvcm09InRyYW5zbGF0ZSgxMi4xMzIgLTcuMDc5KSByb3RhdGUoNDUuMDgxKSIgZmlsbD0iIzUwZTZmZiIvPiYjeGE7ICAgICAgICA8cGF0aCBkPSJNMTQuNDgzLDMuMjQ0aC44ODhhMCwwLDAsMCwxLDAsMHY3LjAxNWEuMjg0LjI4NCwwLDAsMS0uMjg0LjI4NEgxNC4yYS4yODQuMjg0LDAsMCwxLS4yODQtLjI4NFYzLjgxMmEuNTY4LjU2OCwwLDAsMSwuNTY4LS41NjhaIiB0cmFuc2Zvcm09InRyYW5zbGF0ZSgyOS44NzkgMS40MzUpIHJvdGF0ZSgxMzUuMDgxKSIgZmlsbD0iIzE0OTBkZiIvPiYjeGE7ICAgICAgPC9nPiYjeGE7ICAgIDwvZz4mI3hhOyAgPC9nPiYjeGE7PC9zdmc+;" vertex="1" parent="ZqZqqDHpZdhVjMUOQdLO-1">
                    <mxGeometry x="422.15999999999997" y="399.3700000000001" width="30" height="17.65" as="geometry"/>
                </mxCell>
            </root>
        </mxGraphModel>
    </diagram>
    <diagram id="mPoY7NYj23-wrWcc0Xbl" name="Page-1">
        <mxGraphModel dx="1206" dy="570" grid="1" gridSize="10" guides="1" tooltips="1" connect="1" arrows="1" fold="1" page="1" pageScale="1" pageWidth="850" pageHeight="1100" math="0" shadow="0">
            <root>
                <mxCell id="0"/>
                <mxCell id="1" parent="0"/>
                <mxCell id="60" value="" style="rounded=0;whiteSpace=wrap;html=1;fillColor=none;" parent="1" vertex="1">
                    <mxGeometry x="271.69" y="100" width="403.31" height="290" as="geometry"/>
                </mxCell>
                <mxCell id="29" style="edgeStyle=orthogonalEdgeStyle;rounded=0;orthogonalLoop=1;jettySize=auto;html=1;fillColor=#dae8fc;strokeColor=#6c8ebf;exitX=0.5;exitY=1;exitDx=0;exitDy=0;" parent="1" source="76" target="31" edge="1">
                    <mxGeometry relative="1" as="geometry">
                        <mxPoint x="151.68999999999994" y="342.88" as="sourcePoint"/>
                    </mxGeometry>
                </mxCell>
                <mxCell id="31" value="" style="shape=image;imageAspect=0;aspect=fixed;verticalLabelPosition=bottom;verticalAlign=top;image=data:image/svg+xml,PHN2ZyB4bWxucz0iaHR0cDovL3d3dy53My5vcmcvMjAwMC9zdmciIGlkPSJiNmY2ZDk5ZS1mMzMwLTQ4MWQtODM2Zi1lYTU4Y2M0MjIxN2YiIHdpZHRoPSIxMS44OTg4Mzg5OTY4ODcyMDciIGhlaWdodD0iMTcuMDAwMjk5NDUzNzM1MzUiIHZpZXdCb3g9IjMuMDUwNTgwNzM5OTc0OTc1NiAwLjQ5OTcwMDI0ODI0MTQyNDU2IDExLjg5ODgzODk5Njg4NzIwNyAxNy4wMDAyOTk0NTM3MzUzNSI+JiN4YTsgIDxkZWZzPiYjeGE7ICAgIDxyYWRpYWxHcmFkaWVudCBpZD0iYTdhMWM0MzEtNmM2ZC00YThmLTlhNjktOGRhNDM3ZTViMGM1IiBjeD0iOSIgY3k9IjcuMzUiIHI9IjYuNDIiIGdyYWRpZW50VW5pdHM9InVzZXJTcGFjZU9uVXNlIj4mI3hhOyAgICAgIDxzdG9wIG9mZnNldD0iMCIgc3RvcC1jb2xvcj0iI2I3N2FmNCIvPiYjeGE7ICAgICAgPHN0b3Agb2Zmc2V0PSIwLjIxIiBzdG9wLWNvbG9yPSIjYjM3OGYyIi8+JiN4YTsgICAgICA8c3RvcCBvZmZzZXQ9IjAuNDMiIHN0b3AtY29sb3I9IiNhNjcyZWQiLz4mI3hhOyAgICAgIDxzdG9wIG9mZnNldD0iMC42NSIgc3RvcC1jb2xvcj0iIzkyNjdlNCIvPiYjeGE7ICAgICAgPHN0b3Agb2Zmc2V0PSIwLjg4IiBzdG9wLWNvbG9yPSIjNzU1OWQ4Ii8+JiN4YTsgICAgICA8c3RvcCBvZmZzZXQ9IjEiIHN0b3AtY29sb3I9IiM2MjRmZDAiLz4mI3hhOyAgICA8L3JhZGlhbEdyYWRpZW50PiYjeGE7ICAgIDxsaW5lYXJHcmFkaWVudCBpZD0iZWMwYzRmMGQtNWM4ZS00ODgyLTk2YTEtODlkNjE4MDhlYjQ5IiB4MT0iOS4wMiIgeTE9IjMuOTEiIHgyPSI5LjA4IiB5Mj0iMTEuNDkiIGdyYWRpZW50VW5pdHM9InVzZXJTcGFjZU9uVXNlIj4mI3hhOyAgICAgIDxzdG9wIG9mZnNldD0iMCIgc3RvcC1jb2xvcj0iI2YyZjJmMiIvPiYjeGE7ICAgICAgPHN0b3Agb2Zmc2V0PSIwLjIzIiBzdG9wLWNvbG9yPSIjZjFmMWYyIiBzdG9wLW9wYWNpdHk9IjAuOTkiLz4mI3hhOyAgICAgIDxzdG9wIG9mZnNldD0iMC4zNyIgc3RvcC1jb2xvcj0iI2VkZWRmMSIgc3RvcC1vcGFjaXR5PSIwLjk1Ii8+JiN4YTsgICAgICA8c3RvcCBvZmZzZXQ9IjAuNDgiIHN0b3AtY29sb3I9IiNlN2U1ZjAiIHN0b3Atb3BhY2l0eT0iMC44OSIvPiYjeGE7ICAgICAgPHN0b3Agb2Zmc2V0PSIwLjU4IiBzdG9wLWNvbG9yPSIjZGVkYmVlIiBzdG9wLW9wYWNpdHk9IjAuODEiLz4mI3hhOyAgICAgIDxzdG9wIG9mZnNldD0iMC42NyIgc3RvcC1jb2xvcj0iI2QzY2VlYiIgc3RvcC1vcGFjaXR5PSIwLjciLz4mI3hhOyAgICAgIDxzdG9wIG9mZnNldD0iMC43NiIgc3RvcC1jb2xvcj0iI2M0YmVlOCIgc3RvcC1vcGFjaXR5PSIwLjU3Ii8+JiN4YTsgICAgICA8c3RvcCBvZmZzZXQ9IjAuODQiIHN0b3AtY29sb3I9IiNiNGFiZTUiIHN0b3Atb3BhY2l0eT0iMC40MSIvPiYjeGE7ICAgICAgPHN0b3Agb2Zmc2V0PSIwLjkyIiBzdG9wLWNvbG9yPSIjYTA5NWUxIiBzdG9wLW9wYWNpdHk9IjAuMjIiLz4mI3hhOyAgICAgIDxzdG9wIG9mZnNldD0iMC45OSIgc3RvcC1jb2xvcj0iIzhiN2RkYyIgc3RvcC1vcGFjaXR5PSIwLjAyIi8+JiN4YTsgICAgICA8c3RvcCBvZmZzZXQ9IjEiIHN0b3AtY29sb3I9IiM4OTdiZGMiIHN0b3Atb3BhY2l0eT0iMCIvPiYjeGE7ICAgIDwvbGluZWFyR3JhZGllbnQ+JiN4YTsgIDwvZGVmcz4mI3hhOyAgPHRpdGxlPkljb24tbWFuYWdlLTMxMDwvdGl0bGU+JiN4YTsgIDxwYXRoIGQ9Ik0xMC4yMywxNy4zOWwuODEtLjg3VjE0LjJIN3YyLjMybC44MS44N0EuMzIuMzIsMCwwLDAsOCwxNy41aDJBLjMyLjMyLDAsMCwwLDEwLjIzLDE3LjM5WiIgZmlsbD0iI2NlY2VjZSIvPiYjeGE7ICA8cGF0aCBkPSJNOSwuNUE1Ljg5LDUuODksMCwwLDAsMy4wOSw3LjA3Yy4yNywyLjQ3LDIuNjIsMy42MiwzLjI5LDYuNzVhLjQ5LjQ5LDAsMCwwLC40Ny4zOGg0LjNhLjQ5LjQ5LDAsMCwwLC40Ny0uMzhjLjY3LTMuMTMsMy00LjI4LDMuMjktNi43NUE1Ljg5LDUuODksMCwwLDAsOSwuNVpNNywxNC4yIiBmaWxsPSJ1cmwoI2E3YTFjNDMxLTZjNmQtNGE4Zi05YTY5LThkYTQzN2U1YjBjNSkiLz4mI3hhOyAgPHBhdGggZD0iTTExLjQ2LDMuNzlhMS40LDEuNCwwLDAsMC0xLjM1LDEuNDRWNkg4VjUuMjNBMS40MSwxLjQxLDAsMCwwLDYuNTksMy43OSwxLjQsMS40LDAsMCwwLDUuMjQsNS4yMywxLjQxLDEuNDEsMCwwLDAsNi41OSw2LjY4aC42NHY2YS4zNi4zNiwwLDAsMCwuNzIsMHYtNmgyLjE2djZhLjM2LjM2LDAsMSwwLC43Miwwdi02aC42M2ExLjQsMS40LDAsMCwwLDEuMzUtMS40NUExLjQsMS40LDAsMCwwLDExLjQ2LDMuNzlaTTcuMjMsNkg2LjU1YS43NC43NCwwLDAsMS0uNjgtLjc3Ljc0Ljc0LDAsMCwxLC42OC0uNzcuNzQuNzQsMCwwLDEsLjY4Ljc3Wm00LjI4LDBoLS42OFY1LjE5YS42OC42OCwwLDEsMSwxLjM1LDBBLjczLjczLDAsMCwxLDExLjUxLDZaIiBmaWxsPSJ1cmwoI2VjMGM0ZjBkLTVjOGUtNDg4Mi05NmExLTg5ZDYxODA4ZWI0OSkiLz4mI3hhOyAgPHBvbHlnb24gcG9pbnRzPSI2Ljk2IDE1LjggMTEuMDQgMTUuMDEgMTEuMDQgMTQuNTYgNi45NiAxNS4zNiA2Ljk2IDE1LjgiIGZpbGw9IiM5OTkiLz4mI3hhOyAgPHBvbHlnb24gcG9pbnRzPSIxMS4wNCAxNi4xMSAxMS4wNCAxNS42NyA2Ljk2IDE2LjQ4IDYuOTYgMTYuNTIgNy4yNyAxNi44NiAxMS4wNCAxNi4xMSIgZmlsbD0iIzk5OSIvPiYjeGE7PC9zdmc+;base64,PHN2ZyB4bWxucz0iaHR0cDovL3d3dy53My5vcmcvMjAwMC9zdmciIGlkPSJhMTYwNmE1Mi1mYjE0LTQ2MzctODdkZS00ZDUyNGJiYTE4MjkiIHdpZHRoPSIxOC41MDMwODAzNjgwNDE5OTIiIGhlaWdodD0iMTEuMDMyODQ0NTQzNDU3MDMxIiB2aWV3Qm94PSItMC4yNTI4MTE4Nzg5MTk2MDE0NCAzLjQ4Mjc3MjExMTg5MjcgMTguNTAzMDgwMzY4MDQxOTkyIDExLjAzMjg0NDU0MzQ1NzAzMSI+JiN4YTsgIDxkZWZzPiYjeGE7ICAgIDxsaW5lYXJHcmFkaWVudCBpZD0iZjAyMGZiN2UtMjI0My00NTAxLTgxNTMtNWQ2OWJkM2MzNGY3IiB4MT0iOS44OCIgeTE9IjguNTkiIHgyPSIxMS41MiIgeTI9IjEwLjIzIiBncmFkaWVudFRyYW5zZm9ybT0idHJhbnNsYXRlKDIuMDMgLTAuNCkgcm90YXRlKC0wLjA4KSIgZ3JhZGllbnRVbml0cz0idXNlclNwYWNlT25Vc2UiPiYjeGE7ICAgICAgPHN0b3Agb2Zmc2V0PSIwIiBzdG9wLWNvbG9yPSIjODZkNjMzIi8+JiN4YTsgICAgICA8c3RvcCBvZmZzZXQ9IjEiIHN0b3AtY29sb3I9IiM1ZTk2MjQiLz4mI3hhOyAgICA8L2xpbmVhckdyYWRpZW50PiYjeGE7ICAgIDxsaW5lYXJHcmFkaWVudCBpZD0iYjNjMmJjOTQtOGM3Yy00OGEyLTk3MTktNmVlODk5YTQzYTk3IiB4MT0iNi4xOCIgeTE9IjguNTkiIHgyPSI3LjgxIiB5Mj0iMTAuMjMiIGdyYWRpZW50VW5pdHM9InVzZXJTcGFjZU9uVXNlIj4mI3hhOyAgICAgIDxzdG9wIG9mZnNldD0iMCIgc3RvcC1jb2xvcj0iIzg2ZDYzMyIvPiYjeGE7ICAgICAgPHN0b3Agb2Zmc2V0PSIxIiBzdG9wLWNvbG9yPSIjNWU5NjI0Ii8+JiN4YTsgICAgPC9saW5lYXJHcmFkaWVudD4mI3hhOyAgICA8bGluZWFyR3JhZGllbnQgaWQ9ImU5MDBjMzVkLTA5NTgtNGQ0Zi1iMjhmLTMwMmVlYWFmNTJmNSIgeDE9IjIuNDgiIHkxPSI4LjU5IiB4Mj0iNC4xMSIgeTI9IjEwLjIzIiBncmFkaWVudFVuaXRzPSJ1c2VyU3BhY2VPblVzZSI+JiN4YTsgICAgICA8c3RvcCBvZmZzZXQ9IjAiIHN0b3AtY29sb3I9IiM4NmQ2MzMiLz4mI3hhOyAgICAgIDxzdG9wIG9mZnNldD0iMSIgc3RvcC1jb2xvcj0iIzVlOTYyNCIvPiYjeGE7ICAgIDwvbGluZWFyR3JhZGllbnQ+JiN4YTsgIDwvZGVmcz4mI3hhOyAgPHRpdGxlPkljb24tbmV0d29ya2luZy02MTwvdGl0bGU+JiN4YTsgIDxjaXJjbGUgY3g9IjEyLjc0IiBjeT0iOC45OSIgcj0iMS4xNiIgZmlsbD0idXJsKCNmMDIwZmI3ZS0yMjQzLTQ1MDEtODE1My01ZDY5YmQzYzM0ZjcpIi8+JiN4YTsgIDxjaXJjbGUgY3g9IjkuMDQiIGN5PSI5IiByPSIxLjE2IiBmaWxsPSJ1cmwoI2IzYzJiYzk0LThjN2MtNDhhMi05NzE5LTZlZTg5OWE0M2E5NykiLz4mI3hhOyAgPGNpcmNsZSBjeD0iNS4zNCIgY3k9IjkiIHI9IjEuMTYiIGZpbGw9InVybCgjZTkwMGMzNWQtMDk1OC00ZDRmLWIyOGYtMzAyZWVhYWY1MmY1KSIvPiYjeGE7ICA8cGF0aCBkPSJNMi42MSw3LjI4aC45NGEuMy4zLDAsMCwxLC4zLjN2Ni45NGEuNi42LDAsMCwxLS42LjZIMi4zMWEwLDAsMCwwLDEsMCwwVjcuNThhLjMuMywwLDAsMSwuMy0uM1oiIHRyYW5zZm9ybT0idHJhbnNsYXRlKDEzLjE4IDE2LjkzKSByb3RhdGUoMTM0LjkyKSIgZmlsbD0iIzUwZTZmZiIvPiYjeGE7ICA8cGF0aCBkPSJNMi41NiwyLjkxSDMuNWEuMy4zLDAsMCwxLC4zLjN2Ny40M2EwLDAsMCwwLDEsMCwwSDIuODZhLjYuNiwwLDAsMS0uNi0uNlYzLjIxYS4zLjMsMCwwLDEsLjMtLjNaIiB0cmFuc2Zvcm09InRyYW5zbGF0ZSg1LjY2IC0wLjE2KSByb3RhdGUoNDQuOTIpIiBmaWxsPSIjMTQ5MGRmIi8+JiN4YTsgIDxwYXRoIGQ9Ik0xNC4xNSw3LjI4aC45NGEuNi42LDAsMCwxLC42LjZ2Ni45NGEuMy4zLDAsMCwxLS4zLjNoLS45NGEuMy4zLDAsMCwxLS4zLS4zVjcuMjhhMCwwLDAsMCwxLDAsMFoiIHRyYW5zZm9ybT0idHJhbnNsYXRlKDEyLjMyIC03LjI4KSByb3RhdGUoNDUuMDgpIiBmaWxsPSIjNTBlNmZmIi8+JiN4YTsgIDxwYXRoIGQ9Ik0xNC44MSwyLjkxaC45NGEwLDAsMCwwLDEsMCwwdjcuNDNhLjMuMywwLDAsMS0uMy4zSDE0LjVhLjMuMywwLDAsMS0uMy0uM1YzLjUxYS42LjYsMCwwLDEsLjYtLjZaIiB0cmFuc2Zvcm09InRyYW5zbGF0ZSgzMC4zNiAwLjk5KSByb3RhdGUoMTM1LjA4KSIgZmlsbD0iIzE0OTBkZiIvPiYjeGE7PC9zdmc+;base64,PHN2ZyB4bWxucz0iaHR0cDovL3d3dy53My5vcmcvMjAwMC9zdmciIHdpZHRoPSIxNy40NjgxMzk2NDg0Mzc1IiBoZWlnaHQ9IjEwLjQwOTgxODY0OTI5MTk5MiIgdmlld0JveD0iMC4yNjYyNTUxOTk5MDkyMTAyIDMuNzk1NjE5NzI2MTgxMDMwMyAxNy40NjgxMzk2NDg0Mzc1IDEwLjQwOTgxODY0OTI5MTk5MiI+JiN4YTsgIDxkZWZzPiYjeGE7ICAgIDxsaW5lYXJHcmFkaWVudCBpZD0iYmNlYjYwZGQtOGI4Yy00MDk4LTk0ZjgtYWViNGRiMmVkYWVmIiB4MT0iOS4wMzMiIHkxPSIxMC4zMDUiIHgyPSI5LjAzMyIgeTI9IjcuNjk1IiBncmFkaWVudFVuaXRzPSJ1c2VyU3BhY2VPblVzZSI+JiN4YTsgICAgICA8c3RvcCBvZmZzZXQ9IjAiIHN0b3AtY29sb3I9IiM1ZTk2MjQiLz4mI3hhOyAgICAgIDxzdG9wIG9mZnNldD0iMC4yNDEiIHN0b3AtY29sb3I9IiM2ZmIwMmEiLz4mI3hhOyAgICAgIDxzdG9wIG9mZnNldD0iMC41MDEiIHN0b3AtY29sb3I9IiM3Y2M1MmYiLz4mI3hhOyAgICAgIDxzdG9wIG9mZnNldD0iMC43NTYiIHN0b3AtY29sb3I9IiM4M2QyMzIiLz4mI3hhOyAgICAgIDxzdG9wIG9mZnNldD0iMSIgc3RvcC1jb2xvcj0iIzg2ZDYzMyIvPiYjeGE7ICAgIDwvbGluZWFyR3JhZGllbnQ+JiN4YTsgIDwvZGVmcz4mI3hhOyAgPGcgaWQ9ImFjNzVjMjFlLTJhOTMtNDY0Zi04MDQ4LWYxNTE4ZGFiOGI3NSI+JiN4YTsgICAgPGc+JiN4YTsgICAgICA8cGF0aCBkPSJNOS4wMzEsNy43QTEuMzA1LDEuMzA1LDAsMSwwLDEwLjMzOCw5LDEuMzA1LDEuMzA1LDAsMCwwLDkuMDMxLDcuN1oiIGZpbGw9InVybCgjYmNlYjYwZGQtOGI4Yy00MDk4LTk0ZjgtYWViNGRiMmVkYWVmKSIvPiYjeGE7ICAgICAgPGc+JiN4YTsgICAgICAgIDxwYXRoIGQ9Ik0yLjk2MSw3LjM3NGguODg4YS4yODQuMjg0LDAsMCwxLC4yODQuMjg0djYuNTUxYS41NjguNTY4LDAsMCwxLS41NjguNTY4SDIuNjc3YTAsMCwwLDAsMSwwLDBWNy42NTlBLjI4NC4yODQsMCwwLDEsMi45NjEsNy4zNzRaIiB0cmFuc2Zvcm09InRyYW5zbGF0ZSgxMy42NTMgMTYuNDg1KSByb3RhdGUoMTM0LjkxOSkiIGZpbGw9IiM1MGU2ZmYiLz4mI3hhOyAgICAgICAgPHBhdGggZD0iTTIuOTEzLDMuMjQ0SDMuOGEuMjg0LjI4NCwwLDAsMSwuMjg0LjI4NHY3LjAxNWEwLDAsMCwwLDEsMCwwSDMuMmEuNTY4LjU2OCwwLDAsMS0uNTY4LS41NjhWMy41MjhhLjI4NC4yODQsMCwwLDEsLjI4NC0uMjg0WiIgdHJhbnNmb3JtPSJ0cmFuc2xhdGUoNS44NDcgLTAuMzU4KSByb3RhdGUoNDQuOTE5KSIgZmlsbD0iIzE0OTBkZiIvPiYjeGE7ICAgICAgICA8cGF0aCBkPSJNMTMuODY3LDcuMzc0aC44ODhhLjU2OC41NjgsMCwwLDEsLjU2OC41Njh2Ni41NTFhLjI4NC4yODQsMCwwLDEtLjI4NC4yODRoLS44ODhhLjI4NC4yODQsMCwwLDEtLjI4NC0uMjg0VjcuMzc0YTAsMCwwLDAsMSwwLDBaIiB0cmFuc2Zvcm09InRyYW5zbGF0ZSgxMi4xMzIgLTcuMDc5KSByb3RhdGUoNDUuMDgxKSIgZmlsbD0iIzUwZTZmZiIvPiYjeGE7ICAgICAgICA8cGF0aCBkPSJNMTQuNDgzLDMuMjQ0aC44ODhhMCwwLDAsMCwxLDAsMHY3LjAxNWEuMjg0LjI4NCwwLDAsMS0uMjg0LjI4NEgxNC4yYS4yODQuMjg0LDAsMCwxLS4yODQtLjI4NFYzLjgxMmEuNTY4LjU2OCwwLDAsMSwuNTY4LS41NjhaIiB0cmFuc2Zvcm09InRyYW5zbGF0ZSgyOS44NzkgMS40MzUpIHJvdGF0ZSgxMzUuMDgxKSIgZmlsbD0iIzE0OTBkZiIvPiYjeGE7ICAgICAgPC9nPiYjeGE7ICAgIDwvZz4mI3hhOyAgPC9nPiYjeGE7PC9zdmc+;base64,PHN2ZyB4bWxucz0iaHR0cDovL3d3dy53My5vcmcvMjAwMC9zdmciIGlkPSJiYzkzMTY5YS0yNGM0LTQ2ODYtOWYzNy1jN2U0ZjUzYjNkMzQiIHdpZHRoPSIxNyIgaGVpZ2h0PSIxNyIgdmlld0JveD0iMC41MDAwMDA0NzY4MzcxNTgyIDAuNSAxNyAxNyI+JiN4YTsgIDxkZWZzPiYjeGE7ICAgIDxyYWRpYWxHcmFkaWVudCBpZD0iZmIxMTRjOTMtN2MxNi00NTQwLTg5OWEtMDc5NjA0MTYyOWU2IiBjeD0iOSIgY3k9IjkiIHI9IjguNSIgZ3JhZGllbnRVbml0cz0idXNlclNwYWNlT25Vc2UiPiYjeGE7ICAgICAgPHN0b3Agb2Zmc2V0PSIwLjE4IiBzdG9wLWNvbG9yPSIjNWVhMGVmIi8+JiN4YTsgICAgICA8c3RvcCBvZmZzZXQ9IjAuNTYiIHN0b3AtY29sb3I9IiM1YzlmZWUiLz4mI3hhOyAgICAgIDxzdG9wIG9mZnNldD0iMC42OSIgc3RvcC1jb2xvcj0iIzU1OWNlZCIvPiYjeGE7ICAgICAgPHN0b3Agb2Zmc2V0PSIwLjc4IiBzdG9wLWNvbG9yPSIjNGE5N2U5Ii8+JiN4YTsgICAgICA8c3RvcCBvZmZzZXQ9IjAuODYiIHN0b3AtY29sb3I9IiMzOTkwZTQiLz4mI3hhOyAgICAgIDxzdG9wIG9mZnNldD0iMC45MyIgc3RvcC1jb2xvcj0iIzIzODdkZSIvPiYjeGE7ICAgICAgPHN0b3Agb2Zmc2V0PSIwLjk5IiBzdG9wLWNvbG9yPSIjMDg3YmQ2Ii8+JiN4YTsgICAgICA8c3RvcCBvZmZzZXQ9IjEiIHN0b3AtY29sb3I9IiMwMDc4ZDQiLz4mI3hhOyAgICA8L3JhZGlhbEdyYWRpZW50PiYjeGE7ICAgIDxyYWRpYWxHcmFkaWVudCBpZD0iZWM0NzhiZDMtNWIzOC00ZTdmLWI2NjEtMTFmMzU1NTc4YmZmIiBjeD0iMzguOTUiIGN5PSIxODIuMDciIHI9IjkuODgiIGdyYWRpZW50VHJhbnNmb3JtPSJ0cmFuc2xhdGUoLTI4LjcxIC0xNjMuMjQpIHNjYWxlKDAuOTQgMC45NCkiIGdyYWRpZW50VW5pdHM9InVzZXJTcGFjZU9uVXNlIj4mI3hhOyAgICAgIDxzdG9wIG9mZnNldD0iMC4yNyIgc3RvcC1jb2xvcj0iI2ZmZDcwZiIvPiYjeGE7ICAgICAgPHN0b3Agb2Zmc2V0PSIwLjQ5IiBzdG9wLWNvbG9yPSIjZmZjYjEyIi8+JiN4YTsgICAgICA8c3RvcCBvZmZzZXQ9IjAuODgiIHN0b3AtY29sb3I9IiNmZWFjMTkiLz4mI3hhOyAgICAgIDxzdG9wIG9mZnNldD0iMSIgc3RvcC1jb2xvcj0iI2ZlYTExYiIvPiYjeGE7ICAgIDwvcmFkaWFsR3JhZGllbnQ+JiN4YTsgIDwvZGVmcz4mI3hhOyAgPHRpdGxlPkljb24tc2VjdXJpdHktMjQ1PC90aXRsZT4mI3hhOyAgPHBhdGggaWQ9ImFhY2Y4MzExLWEzMTctNDAwZi1iNjEzLTc0YmQwMGRhNWNlMyIgZD0iTTksLjVBOC41LDguNSwwLDEsMCwxNy41LDksOC41MSw4LjUxLDAsMCwwLDksLjVaTTksMTYuMzRBNy4zNCw3LjM0LDAsMSwxLDE2LjM0LDksNy4zNCw3LjM0LDAsMCwxLDksMTYuMzRaIiBmaWxsPSJ1cmwoI2ZiMTE0YzkzLTdjMTYtNDU0MC04OTlhLTA3OTYwNDE2MjllNikiLz4mI3hhOyAgPGNpcmNsZSBjeD0iOSIgY3k9IjkiIHI9IjcuMzQiIGZpbGw9IiNmZmYiLz4mI3hhOyAgPGc+JiN4YTsgICAgPHBhdGggaWQ9ImJkOTgzYzQxLWRiNzMtNDBlYy1hNGY0LWRhMTIxM2ZjOTkyNCIgZD0iTTEzLjQ0LDcuMzNhMS44NCwxLjg0LDAsMCwwLDAtMi41OWgwTDEwLjI5LDEuNThhMS44MywxLjgzLDAsMCwwLTIuNTgsMGgwTDQuNTYsNC43NGExLjg0LDEuODQsMCwwLDAsMCwyLjU5TDcuMTgsMTBhLjUxLjUxLDAsMCwxLC4xNS4zNnY0Ljg4YS42My42MywwLDAsMCwuMTguNDRsMS4yLDEuMmEuNDEuNDEsMCwwLDAsLjU4LDBsMS4xNi0xLjE2aDBsLjY4LS42OGEuMjUuMjUsMCwwLDAsMC0uMzRsLS40OS0uNDlhLjI3LjI3LDAsMCwxLDAtLjM3bC40OS0uNDlhLjI1LjI1LDAsMCwwLDAtLjM0bC0uNDktLjQ5YS4yNy4yNywwLDAsMSwwLS4zN2wuNDktLjQ5YS4yNS4yNSwwLDAsMCwwLS4zNGwtLjY4LS42OXYtLjI1Wk05LDIuMzVBMSwxLDAsMCwxLDksNC40MiwxLDEsMCwxLDEsOSwyLjM1WiIgZmlsbD0idXJsKCNlYzQ3OGJkMy01YjM4LTRlN2YtYjY2MS0xMWYzNTU1NzhiZmYpIi8+JiN4YTsgICAgPHBhdGggaWQ9ImFkMmU3ZTQ0LTliZmQtNDc3NS04YmY0LThlZjI2YTU0NDkyMSIgZD0iTTguMTgsMTUuM2gwYS4yMy4yMywwLDAsMCwuMzgtLjE3di00YS4yNC4yNCwwLDAsMC0uMTEtLjJoMGEuMjIuMjIsMCwwLDAtLjM0LjJ2NEEuMjguMjgsMCwwLDAsOC4xOCwxNS4zWiIgZmlsbD0iI2ZmOTMwMCIgb3BhY2l0eT0iMC43NSIvPiYjeGE7ICAgIDxyZWN0IGlkPSJhOTk2ZmJmZi0zOTM2LTRiMjQtYjQwNy0zNjkzMzZjMTQzYmEiIHg9IjYuNDgiIHk9IjUuNzkiIHdpZHRoPSI1LjE3IiBoZWlnaHQ9IjAuNjEiIHJ4PSIwLjI4IiBmaWxsPSIjZmY5MzAwIiBvcGFjaXR5PSIwLjc1Ii8+JiN4YTsgICAgPHJlY3QgaWQ9ImJiMTJkMzFjLTMzNTItNGExOC04N2RkLWExNjlhNGE4NzIxZCIgeD0iNi40OCIgeT0iNi43OCIgd2lkdGg9IjUuMTciIGhlaWdodD0iMC42MSIgcng9IjAuMjgiIGZpbGw9IiNmZjkzMDAiIG9wYWNpdHk9IjAuNzUiLz4mI3hhOyAgPC9nPiYjeGE7PC9zdmc+;base64,PHN2ZyB4bWxucz0iaHR0cDovL3d3dy53My5vcmcvMjAwMC9zdmciIHdpZHRoPSIxOC4wMDM4NjA0NzM2MzI4MTIiIGhlaWdodD0iMTYuNzA3ODA5NDQ4MjQyMTg4IiB2aWV3Qm94PSItMC4wMDQ1NTU5ODA2NzQ5MjI0NjYgMC42NDk5OTk2NzgxMzQ5MTgyIDE4LjAwMzg2MDQ3MzYzMjgxMiAxNi43MDc4MDk0NDgyNDIxODgiPiYjeGE7ICA8ZGVmcz4mI3hhOyAgICA8bGluZWFyR3JhZGllbnQgaWQ9ImZkMDYxMjI4LTIyYmUtNDI1ZS05MTMxLTBiOGNjYTBlNWQxNyIgeDE9IjcuNjk5IiB5MT0iMjU5LjIyIiB4Mj0iNy42OTkiIHkyPSIyNjMuNzExIiBncmFkaWVudFRyYW5zZm9ybT0idHJhbnNsYXRlKDAgLTI1MCkiIGdyYWRpZW50VW5pdHM9InVzZXJTcGFjZU9uVXNlIj4mI3hhOyAgICAgIDxzdG9wIG9mZnNldD0iMC4yMyIgc3RvcC1jb2xvcj0iIzVlYTBlZiIvPiYjeGE7ICAgICAgPHN0b3Agb2Zmc2V0PSIwLjMyIiBzdG9wLWNvbG9yPSIjNWI5ZmVlIi8+JiN4YTsgICAgICA8c3RvcCBvZmZzZXQ9IjAuNDgiIHN0b3AtY29sb3I9IiM1MDlhZWIiLz4mI3hhOyAgICAgIDxzdG9wIG9mZnNldD0iMC41NyIgc3RvcC1jb2xvcj0iIzNmOTJlNiIvPiYjeGE7ICAgICAgPHN0b3Agb2Zmc2V0PSIwLjc1IiBzdG9wLWNvbG9yPSIjMjY4OGRmIi8+JiN4YTsgICAgICA8c3RvcCBvZmZzZXQ9IjAuOTMiIHN0b3AtY29sb3I9IiMxMjdmZDkiLz4mI3hhOyAgICA8L2xpbmVhckdyYWRpZW50PiYjeGE7ICAgIDxsaW5lYXJHcmFkaWVudCBpZD0iZWE5NjQ5YTYtMDRiNS00N2Q2LTgyNDctZWQzYWI5ZmY5ZDA2IiB4MT0iOS45MjciIHkxPSIyNjEuMDkxIiB4Mj0iOS45MjciIHkyPSIyNjUuNTgyIiBncmFkaWVudFRyYW5zZm9ybT0idHJhbnNsYXRlKDAgLTI1MCkiIGdyYWRpZW50VW5pdHM9InVzZXJTcGFjZU9uVXNlIj4mI3hhOyAgICAgIDxzdG9wIG9mZnNldD0iMC4wMiIgc3RvcC1jb2xvcj0iIzVlYTBlZiIvPiYjeGE7ICAgICAgPHN0b3Agb2Zmc2V0PSIwLjE0IiBzdG9wLWNvbG9yPSIjNWI5ZmVlIi8+JiN4YTsgICAgICA8c3RvcCBvZmZzZXQ9IjAuMjMiIHN0b3AtY29sb3I9IiM1YjlmZWUiLz4mI3hhOyAgICAgIDxzdG9wIG9mZnNldD0iMC4zNCIgc3RvcC1jb2xvcj0iIzUwOWFlYiIvPiYjeGE7ICAgICAgPHN0b3Agb2Zmc2V0PSIwLjQ0IiBzdG9wLWNvbG9yPSIjM2Y5MmU2Ii8+JiN4YTsgICAgICA8c3RvcCBvZmZzZXQ9IjAuNjMiIHN0b3AtY29sb3I9IiMyNjg4ZGYiLz4mI3hhOyAgICAgIDxzdG9wIG9mZnNldD0iMC45MyIgc3RvcC1jb2xvcj0iIzEyN2ZkOSIvPiYjeGE7ICAgIDwvbGluZWFyR3JhZGllbnQ+JiN4YTsgIDwvZGVmcz4mI3hhOyAgPHBhdGggZD0iTTguMjUyLDIuNTIxSDkuMzc0VjkuNTk0SDguMjUyWiIgZmlsbD0iIzdhN2E3YSIvPiYjeGE7ICA8cGF0aCBkPSJNMTAuNDU5LDIuM0ExLjY0NywxLjY0NywwLDEsMSw4LjgxMy42NWgwQTEuNjQ2LDEuNjQ2LDAsMCwxLDEwLjQ1OSwyLjNaIiBmaWxsPSIjMTQ5MGRmIi8+JiN4YTsgIDxwYXRoIGQ9Ik04LjU4OCw5LjIyaC0xLjhhMi4yNDYsMi4yNDYsMCwwLDAtLjM0OCw0LjQ2MSwyLjQxNSwyLjQxNSwwLDAsMSwuMDIyLS44MzUsMS40MTgsMS40MTgsMCwwLDEsLjMyNi0yLjhoMS44YTEuNDIyLDEuNDIyLDAsMCwxLDAsMi44NDRIOC4wOTRhMS4wNzgsMS4wNzgsMCwwLDAtLjEuNDUsMS4wMjIsMS4wMjIsMCwwLDAsLjA3MS4zNzRoLjUyN2EyLjI0NiwyLjI0NiwwLDEsMCwwLTQuNDkxWiIgZmlsbD0idXJsKCNmZDA2MTIyOC0yMmJlLTQyNWUtOTEzMS0wYjhjY2EwZTVkMTcpIi8+JiN4YTsgIDxwYXRoIGQ9Ik0xMS4xODIsMTEuMTIxYTIuNjQyLDIuNjQyLDAsMCwxLC4wMjYuMzQ0LDIuMzE3LDIuMzE3LDAsMCwxLS4wNDkuNDkxLDEuNDE4LDEuNDE4LDAsMCwxLS4zMjUsMi44aC0xLjhhMS40MjMsMS40MjMsMCwwLDEsMC0yLjg0NWguNDk0YTEuMDQyLDEuMDQyLDAsMCwwLC4xLS40NDksMS4wMTgsMS4wMTgsMCwwLDAtLjA3MS0uMzc0SDkuMDM3YTIuMjQ2LDIuMjQ2LDAsMCwwLDAsNC40OTFoMS44YTIuMjQ2LDIuMjQ2LDAsMCwwLC4zNDgtNC40NjFaIiBmaWxsPSJ1cmwoI2VhOTY0OWE2LTA0YjUtNDdkNi04MjQ3LWVkM2FiOWZmOWQwNikiLz4mI3hhOyAgPHBhdGggZD0iTTUuNTgsMTYuNTI1bC0uNDEyLjQxNWEuMjguMjgsMCwwLDEtLjQsMGwtNC42MDctNC42YS41NjYuNTY2LDAsMCwxLDAtLjhsLjQxNi0uNDEyLDUsNC45OTJhLjI3Ni4yNzYsMCwwLDEsMCwuMzkxaDBaIiBmaWxsPSIjNTBlNmZmIi8+JiN4YTsgIDxwYXRoIGQ9Ik01LjA4Miw3LjAybC40Ni40NmEuMjgyLjI4MiwwLDAsMSwwLC40TC42MjUsMTIuODA5bC0uNDYxLS40NTdhLjU2Ni41NjYsMCwwLDEsMC0uOEw0LjY4NSw3LjAyQS4yOC4yOCwwLDAsMSw1LjA4Miw3LjAyWiIgZmlsbD0iIzE0OTBkZiIvPiYjeGE7ICA8cGF0aCBkPSJNMTIuNDE3LDE2Ljg1MWEuMjc4LjI3OCwwLDAsMS0uMDA2LS4zOTJoMGwuMDA2LDAsNS00Ljk4OS40MTYuNDE2YS41NjYuNTY2LDAsMCwxLDAsLjhsLTQuNjExLDQuNTg4YS4yNzcuMjc3LDAsMCwxLS4zOTEuMDA2aDBsLS4wMDYtLjAwNVoiIGZpbGw9IiM1MGU2ZmYiLz4mI3hhOyAgPHBhdGggZD0iTTEzLjMxMSw3LjM0OWw0LjUyNSw0LjUzNmEuNTYzLjU2MywwLDAsMSwwLC43OTNsLS40NjEuNDZMMTIuNDU0LDguMjA2YS4yODkuMjg5LDAsMCwxLDAtLjRsLjQ2LS40NTZBLjI4Mi4yODIsMCwwLDEsMTMuMzExLDcuMzQ5WiIgZmlsbD0iIzE0OTBkZiIvPiYjeGE7PC9zdmc+;base64,PHN2ZyB4bWxucz0iaHR0cDovL3d3dy53My5vcmcvMjAwMC9zdmciIHdpZHRoPSIxOC4wMDA4NjAyMTQyMzM0IiBoZWlnaHQ9IjEwLjQyMDkxODQ2NDY2MDY0NSIgdmlld0JveD0iLTAuMDAxNTU1NDk4ODA1ODI4MzkyNSAzLjc5NDMwNDEzMjQ2MTU0OCAxOC4wMDA4NjAyMTQyMzM0IDEwLjQyMDkxODQ2NDY2MDY0NSI+JiN4YTsgIDxkZWZzPiYjeGE7ICAgIDxsaW5lYXJHcmFkaWVudCBpZD0iZWUzOTVkN2QtOWUxMS00MDkzLWI0NTUtOWI2Y2E5ZTE1YTYzIiB4MT0iNy42OTkiIHkxPSI5NTYuMDc2IiB4Mj0iNy42OTkiIHkyPSI5NjAuNTY3IiBncmFkaWVudFRyYW5zZm9ybT0idHJhbnNsYXRlKDAgLTk1MCkiIGdyYWRpZW50VW5pdHM9InVzZXJTcGFjZU9uVXNlIj4mI3hhOyAgICAgIDxzdG9wIG9mZnNldD0iMC4yMyIgc3RvcC1jb2xvcj0iIzVlYTBlZiIvPiYjeGE7ICAgICAgPHN0b3Agb2Zmc2V0PSIwLjkzIiBzdG9wLWNvbG9yPSIjMTI3ZmQ5Ii8+JiN4YTsgICAgPC9saW5lYXJHcmFkaWVudD4mI3hhOyAgICA8bGluZWFyR3JhZGllbnQgaWQ9ImI4MTA1MzI4LWMyYzQtNDkyMy04ZDE4LTZjODQ0ZThhMzg5ZSIgeDE9IjkuOTI3IiB5MT0iOTU3Ljk0NyIgeDI9IjkuOTI3IiB5Mj0iOTYyLjQzOCIgZ3JhZGllbnRUcmFuc2Zvcm09InRyYW5zbGF0ZSgwIC05NTApIiBncmFkaWVudFVuaXRzPSJ1c2VyU3BhY2VPblVzZSI+JiN4YTsgICAgICA8c3RvcCBvZmZzZXQ9IjAuMDIiIHN0b3AtY29sb3I9IiM1ZWEwZWYiLz4mI3hhOyAgICAgIDxzdG9wIG9mZnNldD0iMC45MyIgc3RvcC1jb2xvcj0iIzEyN2ZkOSIvPiYjeGE7ICAgIDwvbGluZWFyR3JhZGllbnQ+JiN4YTsgIDwvZGVmcz4mI3hhOyAgPGcgaWQ9ImE1MjI5ZTdhLTJjNzgtNGRiOS05OWNjLWNhN2ZiZTY0MzY4YiI+JiN4YTsgICAgPGc+JiN4YTsgICAgICA8cGF0aCBkPSJNOC41ODgsNi4wNzZoLTEuOGEyLjI0NiwyLjI0NiwwLDAsMC0uMzQ4LDQuNDYxQTIuNDA5LDIuNDA5LDAsMCwxLDYuNDY2LDkuN2ExLjQxOCwxLjQxOCwwLDAsMSwuMzI2LTIuOGgxLjhhMS40MjIsMS40MjIsMCwwLDEsMCwyLjg0NEg4LjA5NGExLjA3LDEuMDcsMCwwLDAtLjEuNDQ5LDEuMDE4LDEuMDE4LDAsMCwwLC4wNzEuMzc0aC41MjdhMi4yNDYsMi4yNDYsMCwxLDAsMC00LjQ5MVoiIGZpbGw9InVybCgjZWUzOTVkN2QtOWUxMS00MDkzLWI0NTUtOWI2Y2E5ZTE1YTYzKSIvPiYjeGE7ICAgICAgPHBhdGggZD0iTTExLjE4Miw3Ljk3N2EyLjY0NCwyLjY0NCwwLDAsMSwuMDI2LjM0NSwyLjMwOCwyLjMwOCwwLDAsMS0uMDQ5LjQ5LDEuNDE4LDEuNDE4LDAsMCwxLS4zMjUsMi44aC0xLjhhMS40MjIsMS40MjIsMCwwLDEsMC0yLjg0NGguNDk0YTEuMDQ1LDEuMDQ1LDAsMCwwLC4xLS40NDksMS4wMjgsMS4wMjgsMCwwLDAtLjA3MS0uMzc1SDkuMDM3YTIuMjQ2LDIuMjQ2LDAsMCwwLDAsNC40OTFoMS44YTIuMjQ2LDIuMjQ2LDAsMCwwLC4zNDgtNC40NjFaIiBmaWxsPSJ1cmwoI2I4MTA1MzI4LWMyYzQtNDkyMy04ZDE4LTZjODQ0ZThhMzg5ZSkiLz4mI3hhOyAgICAgIDxwYXRoIGQ9Ik01LjU4LDEzLjM4MWwtLjQxMi40MTZhLjI4Mi4yODIsMCwwLDEtLjQsMEwuMTY0LDkuMmEuNTY2LjU2NiwwLDAsMSwwLS44TC41OCw3Ljk5Mmw1LDQuOTkzYS4yNzYuMjc2LDAsMCwxLDAsLjM5MWgwWiIgZmlsbD0iIzUwZTZmZiIvPiYjeGE7ICAgICAgPHBhdGggZD0iTTUuMDgyLDMuODc2bC40Ni40NmEuMjgyLjI4MiwwLDAsMSwwLC40TC42MjUsOS42NjUuMTY0LDkuMjA5YS41NjYuNTY2LDAsMCwxLDAtLjhMNC42ODUsMy44NzZBLjI4Mi4yODIsMCwwLDEsNS4wODIsMy44NzZaIiBmaWxsPSIjMTQ5MGRmIi8+JiN4YTsgICAgICA8cGF0aCBkPSJNMTIuNDE3LDEzLjcwN2EuMjc2LjI3NiwwLDAsMS0uMDA2LS4zOTFoMGwuMDA2LDAsNS00Ljk4OC40MTYuNDE1YS41NjYuNTY2LDAsMCwxLDAsLjhsLTQuNjExLDQuNTg4YS4yNzYuMjc2LDAsMCwxLS4zOTEuMDA2aDBsLS4wMDYtLjAwNVoiIGZpbGw9IiM1MGU2ZmYiLz4mI3hhOyAgICAgIDxwYXRoIGQ9Ik0xMy4zMTEsNC4yMDVsNC41MjUsNC41MzZhLjU2My41NjMsMCwwLDEsMCwuNzkzbC0uNDYxLjQ2TDEyLjQ1NCw1LjA2MmEuMjg3LjI4NywwLDAsMSwwLS40bC40Ni0uNDU3QS4yODIuMjgyLDAsMCwxLDEzLjMxMSw0LjIwNVoiIGZpbGw9IiMxNDkwZGYiLz4mI3hhOyAgICA8L2c+JiN4YTsgIDwvZz4mI3hhOzwvc3ZnPg==;base64,PHN2ZyB4bWxucz0iaHR0cDovL3d3dy53My5vcmcvMjAwMC9zdmciIGlkPSJmMmYwNDM0OS04YWVlLTQ0MTMtODRjOS1hOTA1MzYxMWIzMTkiIHdpZHRoPSIxNyIgaGVpZ2h0PSIxMy42Njk5OTkxMjI2MTk2MjkiIHZpZXdCb3g9IjAuNSAyLjE3MDAwMDA3NjI5Mzk0NTMgMTcgMTMuNjY5OTk5MTIyNjE5NjI5Ij4mI3hhOyAgPGRlZnM+JiN4YTsgICAgPGxpbmVhckdyYWRpZW50IGlkPSJhZDRjNGY5Ni0wOWFhLTRmOTEtYmExMC01Y2I4YWQ1MzBmNzQiIHgxPSI5IiB5MT0iMTUuODMiIHgyPSI5IiB5Mj0iNS43OSIgZ3JhZGllbnRVbml0cz0idXNlclNwYWNlT25Vc2UiPiYjeGE7ICAgICAgPHN0b3Agb2Zmc2V0PSIwIiBzdG9wLWNvbG9yPSIjYjNiM2IzIi8+JiN4YTsgICAgICA8c3RvcCBvZmZzZXQ9IjAuMjYiIHN0b3AtY29sb3I9IiNjMWMxYzEiLz4mI3hhOyAgICAgIDxzdG9wIG9mZnNldD0iMSIgc3RvcC1jb2xvcj0iI2U2ZTZlNiIvPiYjeGE7ICAgIDwvbGluZWFyR3JhZGllbnQ+JiN4YTsgIDwvZGVmcz4mI3hhOyAgPHRpdGxlPkljb24tc3RvcmFnZS04NjwvdGl0bGU+JiN4YTsgIDxwYXRoIGQ9Ik0uNSw1Ljc5aDE3YTAsMCwwLDAsMSwwLDB2OS40OGEuNTcuNTcsMCwwLDEtLjU3LjU3SDEuMDdhLjU3LjU3LDAsMCwxLS41Ny0uNTdWNS43OUEwLDAsMCwwLDEsLjUsNS43OVoiIGZpbGw9InVybCgjYWQ0YzRmOTYtMDlhYS00ZjkxLWJhMTAtNWNiOGFkNTMwZjc0KSIvPiYjeGE7ICA8cGF0aCBkPSJNMS4wNywyLjE3SDE2LjkzYS41Ny41NywwLDAsMSwuNTcuNTdWNS43OWEwLDAsMCwwLDEsMCwwSC41YTAsMCwwLDAsMSwwLDBWMi43M0EuNTcuNTcsMCwwLDEsMS4wNywyLjE3WiIgZmlsbD0iIzM3YzJiMSIvPiYjeGE7ICA8cGF0aCBkPSJNMi44MSw2Ljg5SDE1LjE4YS4yNy4yNywwLDAsMSwuMjYuMjd2MS40YS4yNy4yNywwLDAsMS0uMjYuMjdIMi44MWEuMjcuMjcsMCwwLDEtLjI2LS4yN1Y3LjE2QS4yNy4yNywwLDAsMSwyLjgxLDYuODlaIiBmaWxsPSIjZmZmIi8+JiN4YTsgIDxwYXRoIGQ9Ik0yLjgyLDkuNjhIMTUuMTlhLjI3LjI3LDAsMCwxLC4yNi4yN3YxLjQxYS4yNy4yNywwLDAsMS0uMjYuMjdIMi44MmEuMjcuMjcsMCwwLDEtLjI2LS4yN1YxMEEuMjcuMjcsMCwwLDEsMi44Miw5LjY4WiIgZmlsbD0iIzM3YzJiMSIvPiYjeGE7ICA8cGF0aCBkPSJNMi44MiwxMi41SDE1LjE5YS4yNy4yNywwLDAsMSwuMjYuMjd2MS40MWEuMjcuMjcsMCwwLDEtLjI2LjI3SDIuODJhLjI3LjI3LDAsMCwxLS4yNi0uMjdWMTIuNzdBLjI3LjI3LDAsMCwxLDIuODIsMTIuNVoiIGZpbGw9IiMyNTgyNzciLz4mI3hhOzwvc3ZnPg==;" parent="1" vertex="1">
                    <mxGeometry x="146.60999999999999" y="364.2" width="20" height="28.34" as="geometry"/>
                </mxCell>
                <mxCell id="74" style="edgeStyle=orthogonalEdgeStyle;rounded=0;orthogonalLoop=1;jettySize=auto;html=1;exitX=1;exitY=0.5;exitDx=0;exitDy=0;entryX=0;entryY=0.5;entryDx=0;entryDy=0;strokeColor=#0E8088;" parent="1" edge="1">
                    <mxGeometry relative="1" as="geometry">
                        <Array as="points">
                            <mxPoint x="258.69" y="233"/>
                        </Array>
                        <mxPoint x="251.44000000000005" y="232.66499999999996" as="sourcePoint"/>
                    </mxGeometry>
                </mxCell>
                <mxCell id="-poeL8EhlbD7yA2cGTHf-127" style="edgeStyle=orthogonalEdgeStyle;rounded=0;orthogonalLoop=1;jettySize=auto;html=1;exitX=1;exitY=0.5;exitDx=0;exitDy=0;entryX=0;entryY=0.5;entryDx=0;entryDy=0;fillColor=#fff2cc;strokeColor=#d6b656;" parent="1" source="37" target="-poeL8EhlbD7yA2cGTHf-126" edge="1">
                    <mxGeometry relative="1" as="geometry"/>
                </mxCell>
                <mxCell id="37" value="" style="shape=image;imageAspect=0;aspect=fixed;verticalLabelPosition=bottom;verticalAlign=top;image=data:image/svg+xml,PHN2ZyB4bWxucz0iaHR0cDovL3d3dy53My5vcmcvMjAwMC9zdmciIGlkPSJiYzkzMTY5YS0yNGM0LTQ2ODYtOWYzNy1jN2U0ZjUzYjNkMzQiIHdpZHRoPSIxNyIgaGVpZ2h0PSIxNyIgdmlld0JveD0iMC41MDAwMDA0NzY4MzcxNTgyIDAuNSAxNyAxNyI+JiN4YTsgIDxkZWZzPiYjeGE7ICAgIDxyYWRpYWxHcmFkaWVudCBpZD0iZmIxMTRjOTMtN2MxNi00NTQwLTg5OWEtMDc5NjA0MTYyOWU2IiBjeD0iOSIgY3k9IjkiIHI9IjguNSIgZ3JhZGllbnRVbml0cz0idXNlclNwYWNlT25Vc2UiPiYjeGE7ICAgICAgPHN0b3Agb2Zmc2V0PSIwLjE4IiBzdG9wLWNvbG9yPSIjNWVhMGVmIi8+JiN4YTsgICAgICA8c3RvcCBvZmZzZXQ9IjAuNTYiIHN0b3AtY29sb3I9IiM1YzlmZWUiLz4mI3hhOyAgICAgIDxzdG9wIG9mZnNldD0iMC42OSIgc3RvcC1jb2xvcj0iIzU1OWNlZCIvPiYjeGE7ICAgICAgPHN0b3Agb2Zmc2V0PSIwLjc4IiBzdG9wLWNvbG9yPSIjNGE5N2U5Ii8+JiN4YTsgICAgICA8c3RvcCBvZmZzZXQ9IjAuODYiIHN0b3AtY29sb3I9IiMzOTkwZTQiLz4mI3hhOyAgICAgIDxzdG9wIG9mZnNldD0iMC45MyIgc3RvcC1jb2xvcj0iIzIzODdkZSIvPiYjeGE7ICAgICAgPHN0b3Agb2Zmc2V0PSIwLjk5IiBzdG9wLWNvbG9yPSIjMDg3YmQ2Ii8+JiN4YTsgICAgICA8c3RvcCBvZmZzZXQ9IjEiIHN0b3AtY29sb3I9IiMwMDc4ZDQiLz4mI3hhOyAgICA8L3JhZGlhbEdyYWRpZW50PiYjeGE7ICAgIDxyYWRpYWxHcmFkaWVudCBpZD0iZWM0NzhiZDMtNWIzOC00ZTdmLWI2NjEtMTFmMzU1NTc4YmZmIiBjeD0iMzguOTUiIGN5PSIxODIuMDciIHI9IjkuODgiIGdyYWRpZW50VHJhbnNmb3JtPSJ0cmFuc2xhdGUoLTI4LjcxIC0xNjMuMjQpIHNjYWxlKDAuOTQgMC45NCkiIGdyYWRpZW50VW5pdHM9InVzZXJTcGFjZU9uVXNlIj4mI3hhOyAgICAgIDxzdG9wIG9mZnNldD0iMC4yNyIgc3RvcC1jb2xvcj0iI2ZmZDcwZiIvPiYjeGE7ICAgICAgPHN0b3Agb2Zmc2V0PSIwLjQ5IiBzdG9wLWNvbG9yPSIjZmZjYjEyIi8+JiN4YTsgICAgICA8c3RvcCBvZmZzZXQ9IjAuODgiIHN0b3AtY29sb3I9IiNmZWFjMTkiLz4mI3hhOyAgICAgIDxzdG9wIG9mZnNldD0iMSIgc3RvcC1jb2xvcj0iI2ZlYTExYiIvPiYjeGE7ICAgIDwvcmFkaWFsR3JhZGllbnQ+JiN4YTsgIDwvZGVmcz4mI3hhOyAgPHRpdGxlPkljb24tc2VjdXJpdHktMjQ1PC90aXRsZT4mI3hhOyAgPHBhdGggaWQ9ImFhY2Y4MzExLWEzMTctNDAwZi1iNjEzLTc0YmQwMGRhNWNlMyIgZD0iTTksLjVBOC41LDguNSwwLDEsMCwxNy41LDksOC41MSw4LjUxLDAsMCwwLDksLjVaTTksMTYuMzRBNy4zNCw3LjM0LDAsMSwxLDE2LjM0LDksNy4zNCw3LjM0LDAsMCwxLDksMTYuMzRaIiBmaWxsPSJ1cmwoI2ZiMTE0YzkzLTdjMTYtNDU0MC04OTlhLTA3OTYwNDE2MjllNikiLz4mI3hhOyAgPGNpcmNsZSBjeD0iOSIgY3k9IjkiIHI9IjcuMzQiIGZpbGw9IiNmZmYiLz4mI3hhOyAgPGc+JiN4YTsgICAgPHBhdGggaWQ9ImJkOTgzYzQxLWRiNzMtNDBlYy1hNGY0LWRhMTIxM2ZjOTkyNCIgZD0iTTEzLjQ0LDcuMzNhMS44NCwxLjg0LDAsMCwwLDAtMi41OWgwTDEwLjI5LDEuNThhMS44MywxLjgzLDAsMCwwLTIuNTgsMGgwTDQuNTYsNC43NGExLjg0LDEuODQsMCwwLDAsMCwyLjU5TDcuMTgsMTBhLjUxLjUxLDAsMCwxLC4xNS4zNnY0Ljg4YS42My42MywwLDAsMCwuMTguNDRsMS4yLDEuMmEuNDEuNDEsMCwwLDAsLjU4LDBsMS4xNi0xLjE2aDBsLjY4LS42OGEuMjUuMjUsMCwwLDAsMC0uMzRsLS40OS0uNDlhLjI3LjI3LDAsMCwxLDAtLjM3bC40OS0uNDlhLjI1LjI1LDAsMCwwLDAtLjM0bC0uNDktLjQ5YS4yNy4yNywwLDAsMSwwLS4zN2wuNDktLjQ5YS4yNS4yNSwwLDAsMCwwLS4zNGwtLjY4LS42OXYtLjI1Wk05LDIuMzVBMSwxLDAsMCwxLDksNC40MiwxLDEsMCwxLDEsOSwyLjM1WiIgZmlsbD0idXJsKCNlYzQ3OGJkMy01YjM4LTRlN2YtYjY2MS0xMWYzNTU1NzhiZmYpIi8+JiN4YTsgICAgPHBhdGggaWQ9ImFkMmU3ZTQ0LTliZmQtNDc3NS04YmY0LThlZjI2YTU0NDkyMSIgZD0iTTguMTgsMTUuM2gwYS4yMy4yMywwLDAsMCwuMzgtLjE3di00YS4yNC4yNCwwLDAsMC0uMTEtLjJoMGEuMjIuMjIsMCwwLDAtLjM0LjJ2NEEuMjguMjgsMCwwLDAsOC4xOCwxNS4zWiIgZmlsbD0iI2ZmOTMwMCIgb3BhY2l0eT0iMC43NSIvPiYjeGE7ICAgIDxyZWN0IGlkPSJhOTk2ZmJmZi0zOTM2LTRiMjQtYjQwNy0zNjkzMzZjMTQzYmEiIHg9IjYuNDgiIHk9IjUuNzkiIHdpZHRoPSI1LjE3IiBoZWlnaHQ9IjAuNjEiIHJ4PSIwLjI4IiBmaWxsPSIjZmY5MzAwIiBvcGFjaXR5PSIwLjc1Ii8+JiN4YTsgICAgPHJlY3QgaWQ9ImJiMTJkMzFjLTMzNTItNGExOC04N2RkLWExNjlhNGE4NzIxZCIgeD0iNi40OCIgeT0iNi43OCIgd2lkdGg9IjUuMTciIGhlaWdodD0iMC42MSIgcng9IjAuMjgiIGZpbGw9IiNmZjkzMDAiIG9wYWNpdHk9IjAuNzUiLz4mI3hhOyAgPC9nPiYjeGE7PC9zdmc+;" parent="1" vertex="1">
                    <mxGeometry x="175.56" y="177" width="30" height="30" as="geometry"/>
                </mxCell>
                <mxCell id="38" value="" style="shape=image;imageAspect=0;aspect=fixed;verticalLabelPosition=bottom;verticalAlign=top;image=data:image/svg+xml,PHN2ZyB4bWxucz0iaHR0cDovL3d3dy53My5vcmcvMjAwMC9zdmciIGlkPSJhMTYwNmE1Mi1mYjE0LTQ2MzctODdkZS00ZDUyNGJiYTE4MjkiIHdpZHRoPSIxOC41MDMwODAzNjgwNDE5OTIiIGhlaWdodD0iMTEuMDMyODQ0NTQzNDU3MDMxIiB2aWV3Qm94PSItMC4yNTI4MTE4Nzg5MTk2MDE0NCAzLjQ4Mjc3MjExMTg5MjcgMTguNTAzMDgwMzY4MDQxOTkyIDExLjAzMjg0NDU0MzQ1NzAzMSI+JiN4YTsgIDxkZWZzPiYjeGE7ICAgIDxsaW5lYXJHcmFkaWVudCBpZD0iZjAyMGZiN2UtMjI0My00NTAxLTgxNTMtNWQ2OWJkM2MzNGY3IiB4MT0iOS44OCIgeTE9IjguNTkiIHgyPSIxMS41MiIgeTI9IjEwLjIzIiBncmFkaWVudFRyYW5zZm9ybT0idHJhbnNsYXRlKDIuMDMgLTAuNCkgcm90YXRlKC0wLjA4KSIgZ3JhZGllbnRVbml0cz0idXNlclNwYWNlT25Vc2UiPiYjeGE7ICAgICAgPHN0b3Agb2Zmc2V0PSIwIiBzdG9wLWNvbG9yPSIjODZkNjMzIi8+JiN4YTsgICAgICA8c3RvcCBvZmZzZXQ9IjEiIHN0b3AtY29sb3I9IiM1ZTk2MjQiLz4mI3hhOyAgICA8L2xpbmVhckdyYWRpZW50PiYjeGE7ICAgIDxsaW5lYXJHcmFkaWVudCBpZD0iYjNjMmJjOTQtOGM3Yy00OGEyLTk3MTktNmVlODk5YTQzYTk3IiB4MT0iNi4xOCIgeTE9IjguNTkiIHgyPSI3LjgxIiB5Mj0iMTAuMjMiIGdyYWRpZW50VW5pdHM9InVzZXJTcGFjZU9uVXNlIj4mI3hhOyAgICAgIDxzdG9wIG9mZnNldD0iMCIgc3RvcC1jb2xvcj0iIzg2ZDYzMyIvPiYjeGE7ICAgICAgPHN0b3Agb2Zmc2V0PSIxIiBzdG9wLWNvbG9yPSIjNWU5NjI0Ii8+JiN4YTsgICAgPC9saW5lYXJHcmFkaWVudD4mI3hhOyAgICA8bGluZWFyR3JhZGllbnQgaWQ9ImU5MDBjMzVkLTA5NTgtNGQ0Zi1iMjhmLTMwMmVlYWFmNTJmNSIgeDE9IjIuNDgiIHkxPSI4LjU5IiB4Mj0iNC4xMSIgeTI9IjEwLjIzIiBncmFkaWVudFVuaXRzPSJ1c2VyU3BhY2VPblVzZSI+JiN4YTsgICAgICA8c3RvcCBvZmZzZXQ9IjAiIHN0b3AtY29sb3I9IiM4NmQ2MzMiLz4mI3hhOyAgICAgIDxzdG9wIG9mZnNldD0iMSIgc3RvcC1jb2xvcj0iIzVlOTYyNCIvPiYjeGE7ICAgIDwvbGluZWFyR3JhZGllbnQ+JiN4YTsgIDwvZGVmcz4mI3hhOyAgPHRpdGxlPkljb24tbmV0d29ya2luZy02MTwvdGl0bGU+JiN4YTsgIDxjaXJjbGUgY3g9IjEyLjc0IiBjeT0iOC45OSIgcj0iMS4xNiIgZmlsbD0idXJsKCNmMDIwZmI3ZS0yMjQzLTQ1MDEtODE1My01ZDY5YmQzYzM0ZjcpIi8+JiN4YTsgIDxjaXJjbGUgY3g9IjkuMDQiIGN5PSI5IiByPSIxLjE2IiBmaWxsPSJ1cmwoI2IzYzJiYzk0LThjN2MtNDhhMi05NzE5LTZlZTg5OWE0M2E5NykiLz4mI3hhOyAgPGNpcmNsZSBjeD0iNS4zNCIgY3k9IjkiIHI9IjEuMTYiIGZpbGw9InVybCgjZTkwMGMzNWQtMDk1OC00ZDRmLWIyOGYtMzAyZWVhYWY1MmY1KSIvPiYjeGE7ICA8cGF0aCBkPSJNMi42MSw3LjI4aC45NGEuMy4zLDAsMCwxLC4zLjN2Ni45NGEuNi42LDAsMCwxLS42LjZIMi4zMWEwLDAsMCwwLDEsMCwwVjcuNThhLjMuMywwLDAsMSwuMy0uM1oiIHRyYW5zZm9ybT0idHJhbnNsYXRlKDEzLjE4IDE2LjkzKSByb3RhdGUoMTM0LjkyKSIgZmlsbD0iIzUwZTZmZiIvPiYjeGE7ICA8cGF0aCBkPSJNMi41NiwyLjkxSDMuNWEuMy4zLDAsMCwxLC4zLjN2Ny40M2EwLDAsMCwwLDEsMCwwSDIuODZhLjYuNiwwLDAsMS0uNi0uNlYzLjIxYS4zLjMsMCwwLDEsLjMtLjNaIiB0cmFuc2Zvcm09InRyYW5zbGF0ZSg1LjY2IC0wLjE2KSByb3RhdGUoNDQuOTIpIiBmaWxsPSIjMTQ5MGRmIi8+JiN4YTsgIDxwYXRoIGQ9Ik0xNC4xNSw3LjI4aC45NGEuNi42LDAsMCwxLC42LjZ2Ni45NGEuMy4zLDAsMCwxLS4zLjNoLS45NGEuMy4zLDAsMCwxLS4zLS4zVjcuMjhhMCwwLDAsMCwxLDAsMFoiIHRyYW5zZm9ybT0idHJhbnNsYXRlKDEyLjMyIC03LjI4KSByb3RhdGUoNDUuMDgpIiBmaWxsPSIjNTBlNmZmIi8+JiN4YTsgIDxwYXRoIGQ9Ik0xNC44MSwyLjkxaC45NGEwLDAsMCwwLDEsMCwwdjcuNDNhLjMuMywwLDAsMS0uMy4zSDE0LjVhLjMuMywwLDAsMS0uMy0uM1YzLjUxYS42LjYsMCwwLDEsLjYtLjZaIiB0cmFuc2Zvcm09InRyYW5zbGF0ZSgzMC4zNiAwLjk5KSByb3RhdGUoMTM1LjA4KSIgZmlsbD0iIzE0OTBkZiIvPiYjeGE7PC9zdmc+;" parent="1" vertex="1">
                    <mxGeometry x="271.69" y="397.65" width="30" height="17.37" as="geometry"/>
                </mxCell>
                <mxCell id="39" value="" style="shape=image;imageAspect=0;aspect=fixed;verticalLabelPosition=bottom;verticalAlign=top;image=data:image/svg+xml,PHN2ZyB4bWxucz0iaHR0cDovL3d3dy53My5vcmcvMjAwMC9zdmciIHdpZHRoPSIxNy40NjgxMzk2NDg0Mzc1IiBoZWlnaHQ9IjEwLjQwOTgxODY0OTI5MTk5MiIgdmlld0JveD0iMC4yNjYyNTUxOTk5MDkyMTAyIDMuNzk1NjE5NzI2MTgxMDMwMyAxNy40NjgxMzk2NDg0Mzc1IDEwLjQwOTgxODY0OTI5MTk5MiI+JiN4YTsgIDxkZWZzPiYjeGE7ICAgIDxsaW5lYXJHcmFkaWVudCBpZD0iYmNlYjYwZGQtOGI4Yy00MDk4LTk0ZjgtYWViNGRiMmVkYWVmIiB4MT0iOS4wMzMiIHkxPSIxMC4zMDUiIHgyPSI5LjAzMyIgeTI9IjcuNjk1IiBncmFkaWVudFVuaXRzPSJ1c2VyU3BhY2VPblVzZSI+JiN4YTsgICAgICA8c3RvcCBvZmZzZXQ9IjAiIHN0b3AtY29sb3I9IiM1ZTk2MjQiLz4mI3hhOyAgICAgIDxzdG9wIG9mZnNldD0iMC4yNDEiIHN0b3AtY29sb3I9IiM2ZmIwMmEiLz4mI3hhOyAgICAgIDxzdG9wIG9mZnNldD0iMC41MDEiIHN0b3AtY29sb3I9IiM3Y2M1MmYiLz4mI3hhOyAgICAgIDxzdG9wIG9mZnNldD0iMC43NTYiIHN0b3AtY29sb3I9IiM4M2QyMzIiLz4mI3hhOyAgICAgIDxzdG9wIG9mZnNldD0iMSIgc3RvcC1jb2xvcj0iIzg2ZDYzMyIvPiYjeGE7ICAgIDwvbGluZWFyR3JhZGllbnQ+JiN4YTsgIDwvZGVmcz4mI3hhOyAgPGcgaWQ9ImFjNzVjMjFlLTJhOTMtNDY0Zi04MDQ4LWYxNTE4ZGFiOGI3NSI+JiN4YTsgICAgPGc+JiN4YTsgICAgICA8cGF0aCBkPSJNOS4wMzEsNy43QTEuMzA1LDEuMzA1LDAsMSwwLDEwLjMzOCw5LDEuMzA1LDEuMzA1LDAsMCwwLDkuMDMxLDcuN1oiIGZpbGw9InVybCgjYmNlYjYwZGQtOGI4Yy00MDk4LTk0ZjgtYWViNGRiMmVkYWVmKSIvPiYjeGE7ICAgICAgPGc+JiN4YTsgICAgICAgIDxwYXRoIGQ9Ik0yLjk2MSw3LjM3NGguODg4YS4yODQuMjg0LDAsMCwxLC4yODQuMjg0djYuNTUxYS41NjguNTY4LDAsMCwxLS41NjguNTY4SDIuNjc3YTAsMCwwLDAsMSwwLDBWNy42NTlBLjI4NC4yODQsMCwwLDEsMi45NjEsNy4zNzRaIiB0cmFuc2Zvcm09InRyYW5zbGF0ZSgxMy42NTMgMTYuNDg1KSByb3RhdGUoMTM0LjkxOSkiIGZpbGw9IiM1MGU2ZmYiLz4mI3hhOyAgICAgICAgPHBhdGggZD0iTTIuOTEzLDMuMjQ0SDMuOGEuMjg0LjI4NCwwLDAsMSwuMjg0LjI4NHY3LjAxNWEwLDAsMCwwLDEsMCwwSDMuMmEuNTY4LjU2OCwwLDAsMS0uNTY4LS41NjhWMy41MjhhLjI4NC4yODQsMCwwLDEsLjI4NC0uMjg0WiIgdHJhbnNmb3JtPSJ0cmFuc2xhdGUoNS44NDcgLTAuMzU4KSByb3RhdGUoNDQuOTE5KSIgZmlsbD0iIzE0OTBkZiIvPiYjeGE7ICAgICAgICA8cGF0aCBkPSJNMTMuODY3LDcuMzc0aC44ODhhLjU2OC41NjgsMCwwLDEsLjU2OC41Njh2Ni41NTFhLjI4NC4yODQsMCwwLDEtLjI4NC4yODRoLS44ODhhLjI4NC4yODQsMCwwLDEtLjI4NC0uMjg0VjcuMzc0YTAsMCwwLDAsMSwwLDBaIiB0cmFuc2Zvcm09InRyYW5zbGF0ZSgxMi4xMzIgLTcuMDc5KSByb3RhdGUoNDUuMDgxKSIgZmlsbD0iIzUwZTZmZiIvPiYjeGE7ICAgICAgICA8cGF0aCBkPSJNMTQuNDgzLDMuMjQ0aC44ODhhMCwwLDAsMCwxLDAsMHY3LjAxNWEuMjg0LjI4NCwwLDAsMS0uMjg0LjI4NEgxNC4yYS4yODQuMjg0LDAsMCwxLS4yODQtLjI4NFYzLjgxMmEuNTY4LjU2OCwwLDAsMSwuNTY4LS41NjhaIiB0cmFuc2Zvcm09InRyYW5zbGF0ZSgyOS44NzkgMS40MzUpIHJvdGF0ZSgxMzUuMDgxKSIgZmlsbD0iIzE0OTBkZiIvPiYjeGE7ICAgICAgPC9nPiYjeGE7ICAgIDwvZz4mI3hhOyAgPC9nPiYjeGE7PC9zdmc+;" parent="1" vertex="1">
                    <mxGeometry x="317.3399999999999" y="206.35" width="30" height="17.65" as="geometry"/>
                </mxCell>
                <mxCell id="44" style="edgeStyle=orthogonalEdgeStyle;rounded=0;orthogonalLoop=1;jettySize=auto;html=1;entryX=1;entryY=0.5;entryDx=0;entryDy=0;" parent="1" edge="1">
                    <mxGeometry relative="1" as="geometry">
                        <mxPoint x="755" y="299.9142857142857" as="sourcePoint"/>
                    </mxGeometry>
                </mxCell>
                <mxCell id="49" style="edgeStyle=orthogonalEdgeStyle;rounded=0;orthogonalLoop=1;jettySize=auto;html=1;exitX=1;exitY=0.5;exitDx=0;exitDy=0;fillColor=#f8cecc;strokeColor=#b85450;" parent="1" source="47" target="48" edge="1">
                    <mxGeometry relative="1" as="geometry"/>
                </mxCell>
                <mxCell id="47" value="" style="shape=image;verticalLabelPosition=bottom;labelBackgroundColor=#ffffff;verticalAlign=top;aspect=fixed;imageAspect=0;image=data:image/svg+xml,PHN2ZyB4bWxucz0iaHR0cDovL3d3dy53My5vcmcvMjAwMC9zdmciIGlkPSJlMjQ2NzFmNi1mNTAxLTQ5NTItYTJkYi04YjBiMWQzMjljMTciIHdpZHRoPSIxNi4zNTYyMDMwNzkyMjM2MzMiIGhlaWdodD0iMTgiIHZpZXdCb3g9IjAuODIxNTQ3MzI5NDI1ODExOCAwIDE2LjM1NjIwMzA3OTIyMzYzMyAxOCI+CiAgPGRlZnM+CiAgICA8bGluZWFyR3JhZGllbnQgaWQ9ImJlOTI5MDFiLWVjMzMtNGM2NS1hZGYxLTliMGVlZDA2ZDY3NyIgeDE9IjkiIHkxPSI2Ljg4IiB4Mj0iOSIgeTI9IjIwLjQ1IiBncmFkaWVudFVuaXRzPSJ1c2VyU3BhY2VPblVzZSI+CiAgICAgIDxzdG9wIG9mZnNldD0iMC4yMiIgc3RvcC1jb2xvcj0iIzMyZDRmNSIvPgogICAgICA8c3RvcCBvZmZzZXQ9IjEiIHN0b3AtY29sb3I9IiMxOThhYjMiLz4KICAgIDwvbGluZWFyR3JhZGllbnQ+CiAgICA8bGluZWFyR3JhZGllbnQgaWQ9ImI0NmZjMjQ2LTI1ZDgtNDM5OC04Nzc5LTEwNDJlOGNhY2FlNyIgeDE9IjguNjEiIHkxPSItMC40IiB4Mj0iOS42IiB5Mj0iMTEuOTIiIGdyYWRpZW50VW5pdHM9InVzZXJTcGFjZU9uVXNlIj4KICAgICAgPHN0b3Agb2Zmc2V0PSIwLjIyIiBzdG9wLWNvbG9yPSIjMzJkNGY1Ii8+CiAgICAgIDxzdG9wIG9mZnNldD0iMSIgc3RvcC1jb2xvcj0iIzE5OGFiMyIvPgogICAgPC9saW5lYXJHcmFkaWVudD4KICA8L2RlZnM+CiAgPHRpdGxlPkljb24taWRlbnRpdHktMjMwPC90aXRsZT4KICA8cGF0aCBkPSJNMTUuNzIsMThhMS40NSwxLjQ1LDAsMCwwLDEuNDUtMS40NS40Ny40NywwLDAsMCwwLS4xN0MxNi41OSwxMS44MSwxNCw4LjA5LDksOC4wOVMxLjM0LDExLjI0LjgzLDE2LjM5QTEuNDYsMS40NiwwLDAsMCwyLjE0LDE4SDE1LjcyWiIgZmlsbD0idXJsKCNiZTkyOTAxYi1lYzMzLTRjNjUtYWRmMS05YjBlZWQwNmQ2NzcpIi8+CiAgPHBhdGggZD0iTTksOS4xN2E0LjU5LDQuNTksMCwwLDEtMi40OC0uNzNMOSwxNC44NmwyLjQ0LTYuMzhBNC41Myw0LjUzLDAsMCwxLDksOS4xN1oiIGZpbGw9IiNmZmYiIG9wYWNpdHk9IjAuOCIvPgogIDxjaXJjbGUgY3g9IjkuMDEiIGN5PSI0LjU4IiByPSI0LjU4IiBmaWxsPSJ1cmwoI2I0NmZjMjQ2LTI1ZDgtNDM5OC04Nzc5LTEwNDJlOGNhY2FlNykiLz4KPC9zdmc+;" parent="1" vertex="1">
                    <mxGeometry x="11.689999999999998" y="313.65" width="26.62" height="30" as="geometry"/>
                </mxCell>
                <mxCell id="78" value="" style="edgeStyle=orthogonalEdgeStyle;rounded=0;orthogonalLoop=1;jettySize=auto;html=1;fillColor=#f8cecc;strokeColor=#b85450;" parent="1" source="48" target="76" edge="1">
                    <mxGeometry relative="1" as="geometry"/>
                </mxCell>
                <mxCell id="48" value="" style="shape=image;verticalLabelPosition=bottom;labelBackgroundColor=#ffffff;verticalAlign=top;aspect=fixed;imageAspect=0;image=data:image/svg+xml,PHN2ZyB4bWxucz0iaHR0cDovL3d3dy53My5vcmcvMjAwMC9zdmciIGlkPSJhZDYwNzFkNy1lYjc0LTQ2N2UtODFlZS1lYjRlYTY0MTM3M2IiIHdpZHRoPSIxNiIgaGVpZ2h0PSIxNiIgdmlld0JveD0iMCAwIDE2IDE2Ij4KICA8Y2lyY2xlIGN4PSI4IiBjeT0iOCIgcj0iOCIgZmlsbD0iI2E0MjYyYyIvPgogIDxwYXRoIGQ9Ik0xMyw5LjJWNi44SDNWOS4yWiIgZmlsbD0iI2ZmZiIvPgo8L3N2Zz4=;" parent="1" vertex="1">
                    <mxGeometry x="68.69" y="314.2" width="30" height="30" as="geometry"/>
                </mxCell>
                <mxCell id="10" value="" style="shape=image;imageAspect=0;aspect=fixed;verticalLabelPosition=bottom;verticalAlign=top;image=data:image/svg+xml,PHN2ZyB4bWxucz0iaHR0cDovL3d3dy53My5vcmcvMjAwMC9zdmciIGlkPSJhNTQyY2YzOS0yYmE2LTQyMDYtODI3OC02YTRmMWMyNDUyZjUiIHdpZHRoPSIxNi45Njc2MjQ2NjQzMDY2NCIgaGVpZ2h0PSIxNi45NzE1MTk0NzAyMTQ4NDQiIHZpZXdCb3g9IjAuNDk2OTEyNzQ3NjIxNTM2MjUgMC41MzE1Njk0MjEyOTEzNTEzIDE2Ljk2NzYyNDY2NDMwNjY0IDE2Ljk3MTUxOTQ3MDIxNDg0NCI+JiN4YTsgIDxkZWZzPiYjeGE7ICAgIDxyYWRpYWxHcmFkaWVudCBpZD0iZTc1NzlmNGQtMzZhMy00NjkzLWE3MjYtN2E2MDUwYWM1NjcxIiBjeD0iLTY4MTEuNCIgY3k9IjY3MjkuNjkiIHI9IjE3IiBncmFkaWVudFRyYW5zZm9ybT0ibWF0cml4KDAuNSwgMCwgMCwgLTAuNSwgMzQxNC45MSwgMzM3NC4wNSkiIGdyYWRpZW50VW5pdHM9InVzZXJTcGFjZU9uVXNlIj4mI3hhOyAgICAgIDxzdG9wIG9mZnNldD0iMC4xOCIgc3RvcC1jb2xvcj0iIzVlYTBlZiIvPiYjeGE7ICAgICAgPHN0b3Agb2Zmc2V0PSIxIiBzdG9wLWNvbG9yPSIjMDA3OGQ0Ii8+JiN4YTsgICAgPC9yYWRpYWxHcmFkaWVudD4mI3hhOyAgPC9kZWZzPiYjeGE7ICA8dGl0bGU+SWNvbi1uZXR3b3JraW5nLTY0PC90aXRsZT4mI3hhOyAgPHBhdGggaWQ9ImY1N2UxMDVkLTZkMmQtNGFkNy1iOGMzLWMxMDY4NGM5ZjliOCIgZD0iTTE0LjIxLDE1LjcyQTguNSw4LjUsMCwwLDEsMy43OSwyLjI4bC4wOS0uMDZhOC41LDguNSwwLDAsMSwxMC4zMywxMy41IiBmaWxsPSJ1cmwoI2U3NTc5ZjRkLTM2YTMtNDY5My1hNzI2LTdhNjA1MGFjNTY3MSkiLz4mI3hhOyAgPHBhdGggZD0iTTksMS4zMUE3LjY5LDcuNjksMCwxLDAsMTYuNjksOSw3LjcsNy43LDAsMCwwLDksMS4zMVpNMTQuMTUsMy45QTcuMzcsNy4zNywwLDAsMSwxMiw0LjcsOC44Myw4LjgzLDAsMCwwLDEwLjc1LDIsNy4yLDcuMiwwLDAsMSwxNC4xNSwzLjlaTTksMS43NGE2LjU5LDYuNTksMCwwLDEsMS4wOS4wOWgwYTcuNDgsNy40OCwwLDAsMSwxLjUzLDMsMTUuMTIsMTUuMTIsMCwwLDEtNS40NSwwQTcuMzgsNy4zOCwwLDAsMSw3LjY4LDEuODlsMCwwQTcuMzQsNy4zNCwwLDAsMSw5LDEuNzRaTTcsMkE4LjcyLDguNzIsMCwwLDAsNS43Myw0LjY4YTUuNTgsNS41OCwwLDAsMS0xLjktLjc3QTcuMzUsNy4zNSwwLDAsMSw3LDJaTTMuNzIsMTRhNS4yNyw1LjI3LDAsMCwxLDEuNzgtLjc2LDcuMDgsNy4wOCwwLDAsMCwxLjM1LDIuNzJBNy4yNSw3LjI1LDAsMCwxLDMuNzIsMTRabTYuNDEsMi4yQTcuMDgsNy4wOCwwLDAsMSw5LDE2LjI2YTYuODMsNi44MywwLDAsMS0xLjQ0LS4xNWwwLDBhNiw2LDAsMCwxLTEuNjctMywxNC43MywxNC43MywwLDAsMSw1Ljg4LDAsNiw2LDAsMCwxLTEuNjksM1ptLjczLS4xNmE3LjEzLDcuMTMsMCwwLDAsMS4zOC0yLjgsNi42OCw2LjY4LDAsMCwxLDIsLjgzQTcuMTMsNy4xMywwLDAsMSwxMC44NiwxNlptMS40OC0zLjIyYy4wOC0uMzYuMTUtLjczLjItMS4xMmwtLjQ2LjExYy0uMDUuMzEtLjEuNjItLjE3LjkxYTE1LjIzLDE1LjIzLDAsMCwwLTYuMDksMGMtLjA3LS4yNy0uMTItLjU2LS4xNy0uODZhLjI4LjI4LDAsMCwxLDAtLjA5bC0uNDYtLjEzYTIuMzYsMi4zNiwwLDAsMCwwLC4yOGMwLC4zMi4xMS42Mi4xNy45MWE1LjksNS45LDAsMCwwLTIsLjg1LDcuMjQsNy4yNCwwLDAsMSwuMTEtOS40LDYuMjksNi4yOSwwLDAsMCwyLjA4Ljg2Yy0uMDcuMjQtLjEzLjUtLjE4Ljc2czAsLjI1LS4wOC4zN2wuNDctLjExLDAtLjE3Yy4wNi0uMjYuMTItLjUxLjE5LS43NUExNC44OSwxNC44OSwwLDAsMCw5LDUuNDhhMTUsMTUsMCwwLDAsMi43OC0uMjZjLjA3LjI3LjE0LjU2LjIuODVsLjQ2LjExcS0uMTEtLjU0LS4yNC0xYTcuNzMsNy43MywwLDAsMCwyLjMtLjkxLDcuMjIsNy4yMiwwLDAsMSwuMDYsOS40OUE3LjI4LDcuMjgsMCwwLDAsMTIuMzQsMTIuNzlaIiBmaWxsPSIjNWVhMGVmIi8+JiN4YTsgIDxwYXRoIGQ9Ik0zLjY5LDdhNy45Miw3LjkyLDAsMCwxLDEuMTYtLjA4LDIuNDQsMi40NCwwLDAsMSwxLjcxLjUyQTIsMiwwLDAsMSw3LjE1LDguOWEyLjIxLDIuMjEsMCwwLDEtLjYxLDEuNjQsMi42LDIuNiwwLDAsMS0xLjg2LjYxLDkuMTcsOS4xNywwLDAsMS0xLS4wNVptLjU1LDMuNzNhNCw0LDAsMCwwLC41NSwwQTEuNjIsMS42MiwwLDAsMCw2LjU4LDguOTIsMS41LDEuNSwwLDAsMCw0Ljg3LDcuM2EzLjE3LDMuMTcsMCwwLDAtLjYzLDBaIiBmaWxsPSIjZmZmIi8+JiN4YTsgIDxwYXRoIGQ9Ik03Ljg2LDExLjExVjYuOWguNTlMOS44LDlhMTIuMTgsMTIuMTgsMCwwLDEsLjc2LDEuMzdoMGMtLjA1LS41Ni0uMDYtMS4wNy0uMDYtMS43M1Y2LjlIMTF2NC4yMWgtLjU1TDkuMTMsOWMtLjI5LS40Ny0uNTctMS0uNzktMS40aDBjMCwuNTMsMCwxLDAsMS43NHYxLjhaIiBmaWxsPSIjZmZmIi8+JiN4YTsgIDxwYXRoIGQ9Ik0xMS44OSwxMC40NWEyLDIsMCwwLDAsMSwuMjdjLjU2LDAsLjg4LS4yOS44OC0uNzJzLS4yMi0uNjItLjc5LS44My0xLjEyLS42LTEuMTItMS4yYTEuMjIsMS4yMiwwLDAsMSwxLjM3LTEuMTQsMiwyLDAsMCwxLC45My4yTDE0LDcuNDhhMS42MywxLjYzLDAsMCwwLS44LS4yYy0uNTgsMC0uOC4zNC0uOC42M3MuMjYuNTkuODQuODEsMS4wOC42MiwxLjA4LDEuMjQtLjQ4LDEuMjEtMS40OCwxLjIxYTIuMTYsMi4xNiwwLDAsMS0xLjA3LS4yN1oiIGZpbGw9IiNmZmYiLz4mI3hhOzwvc3ZnPg==;" parent="1" vertex="1">
                    <mxGeometry x="380" y="350" width="20" height="20" as="geometry"/>
                </mxCell>
                <mxCell id="12" value="&lt;font style=&quot;font-size: 7px&quot;&gt;privatelink.vaultcore.azure.net&lt;/font&gt;" style="text;html=1;resizable=0;autosize=1;align=center;verticalAlign=middle;points=[];fillColor=none;strokeColor=none;rounded=0;" parent="1" vertex="1">
                    <mxGeometry x="340.00000000000006" y="370" width="110" height="20" as="geometry"/>
                </mxCell>
                <mxCell id="9" value="&lt;font style=&quot;font-size: 8px&quot;&gt;&lt;b&gt;Private Endpoint Subnet&lt;/b&gt;&lt;/font&gt;" style="text;html=1;resizable=0;autosize=1;align=center;verticalAlign=middle;points=[];fillColor=none;strokeColor=none;rounded=0;" parent="1" vertex="1">
                    <mxGeometry x="305.84000000000003" y="109.99999999999997" width="110" height="20" as="geometry"/>
                </mxCell>
                <mxCell id="3" value="" style="shape=image;imageAspect=0;aspect=fixed;verticalLabelPosition=bottom;verticalAlign=top;image=data:image/svg+xml,PHN2ZyB4bWxucz0iaHR0cDovL3d3dy53My5vcmcvMjAwMC9zdmciIHdpZHRoPSIxNy40NjgxMzk2NDg0Mzc1IiBoZWlnaHQ9IjEwLjQwOTgxODY0OTI5MTk5MiIgdmlld0JveD0iMC4yNjYyNTUxOTk5MDkyMTAyIDMuNzk1NjE5NzI2MTgxMDMwMyAxNy40NjgxMzk2NDg0Mzc1IDEwLjQwOTgxODY0OTI5MTk5MiI+JiN4YTsgIDxkZWZzPiYjeGE7ICAgIDxsaW5lYXJHcmFkaWVudCBpZD0iYmNlYjYwZGQtOGI4Yy00MDk4LTk0ZjgtYWViNGRiMmVkYWVmIiB4MT0iOS4wMzMiIHkxPSIxMC4zMDUiIHgyPSI5LjAzMyIgeTI9IjcuNjk1IiBncmFkaWVudFVuaXRzPSJ1c2VyU3BhY2VPblVzZSI+JiN4YTsgICAgICA8c3RvcCBvZmZzZXQ9IjAiIHN0b3AtY29sb3I9IiM1ZTk2MjQiLz4mI3hhOyAgICAgIDxzdG9wIG9mZnNldD0iMC4yNDEiIHN0b3AtY29sb3I9IiM2ZmIwMmEiLz4mI3hhOyAgICAgIDxzdG9wIG9mZnNldD0iMC41MDEiIHN0b3AtY29sb3I9IiM3Y2M1MmYiLz4mI3hhOyAgICAgIDxzdG9wIG9mZnNldD0iMC43NTYiIHN0b3AtY29sb3I9IiM4M2QyMzIiLz4mI3hhOyAgICAgIDxzdG9wIG9mZnNldD0iMSIgc3RvcC1jb2xvcj0iIzg2ZDYzMyIvPiYjeGE7ICAgIDwvbGluZWFyR3JhZGllbnQ+JiN4YTsgIDwvZGVmcz4mI3hhOyAgPGcgaWQ9ImFjNzVjMjFlLTJhOTMtNDY0Zi04MDQ4LWYxNTE4ZGFiOGI3NSI+JiN4YTsgICAgPGc+JiN4YTsgICAgICA8cGF0aCBkPSJNOS4wMzEsNy43QTEuMzA1LDEuMzA1LDAsMSwwLDEwLjMzOCw5LDEuMzA1LDEuMzA1LDAsMCwwLDkuMDMxLDcuN1oiIGZpbGw9InVybCgjYmNlYjYwZGQtOGI4Yy00MDk4LTk0ZjgtYWViNGRiMmVkYWVmKSIvPiYjeGE7ICAgICAgPGc+JiN4YTsgICAgICAgIDxwYXRoIGQ9Ik0yLjk2MSw3LjM3NGguODg4YS4yODQuMjg0LDAsMCwxLC4yODQuMjg0djYuNTUxYS41NjguNTY4LDAsMCwxLS41NjguNTY4SDIuNjc3YTAsMCwwLDAsMSwwLDBWNy42NTlBLjI4NC4yODQsMCwwLDEsMi45NjEsNy4zNzRaIiB0cmFuc2Zvcm09InRyYW5zbGF0ZSgxMy42NTMgMTYuNDg1KSByb3RhdGUoMTM0LjkxOSkiIGZpbGw9IiM1MGU2ZmYiLz4mI3hhOyAgICAgICAgPHBhdGggZD0iTTIuOTEzLDMuMjQ0SDMuOGEuMjg0LjI4NCwwLDAsMSwuMjg0LjI4NHY3LjAxNWEwLDAsMCwwLDEsMCwwSDMuMmEuNTY4LjU2OCwwLDAsMS0uNTY4LS41NjhWMy41MjhhLjI4NC4yODQsMCwwLDEsLjI4NC0uMjg0WiIgdHJhbnNmb3JtPSJ0cmFuc2xhdGUoNS44NDcgLTAuMzU4KSByb3RhdGUoNDQuOTE5KSIgZmlsbD0iIzE0OTBkZiIvPiYjeGE7ICAgICAgICA8cGF0aCBkPSJNMTMuODY3LDcuMzc0aC44ODhhLjU2OC41NjgsMCwwLDEsLjU2OC41Njh2Ni41NTFhLjI4NC4yODQsMCwwLDEtLjI4NC4yODRoLS44ODhhLjI4NC4yODQsMCwwLDEtLjI4NC0uMjg0VjcuMzc0YTAsMCwwLDAsMSwwLDBaIiB0cmFuc2Zvcm09InRyYW5zbGF0ZSgxMi4xMzIgLTcuMDc5KSByb3RhdGUoNDUuMDgxKSIgZmlsbD0iIzUwZTZmZiIvPiYjeGE7ICAgICAgICA8cGF0aCBkPSJNMTQuNDgzLDMuMjQ0aC44ODhhMCwwLDAsMCwxLDAsMHY3LjAxNWEuMjg0LjI4NCwwLDAsMS0uMjg0LjI4NEgxNC4yYS4yODQuMjg0LDAsMCwxLS4yODQtLjI4NFYzLjgxMmEuNTY4LjU2OCwwLDAsMSwuNTY4LS41NjhaIiB0cmFuc2Zvcm09InRyYW5zbGF0ZSgyOS44NzkgMS40MzUpIHJvdGF0ZSgxMzUuMDgxKSIgZmlsbD0iIzE0OTBkZiIvPiYjeGE7ICAgICAgPC9nPiYjeGE7ICAgIDwvZz4mI3hhOyAgPC9nPiYjeGE7PC9zdmc+;" parent="1" vertex="1">
                    <mxGeometry x="310.00000000000006" y="326.6500000000001" width="30" height="17.65" as="geometry"/>
                </mxCell>
                <mxCell id="62" value="&lt;font style=&quot;font-size: 8px&quot;&gt;&lt;b&gt;Internet User&lt;/b&gt;&lt;/font&gt;" style="text;html=1;resizable=0;autosize=1;align=center;verticalAlign=middle;points=[];fillColor=none;strokeColor=none;rounded=0;" parent="1" vertex="1">
                    <mxGeometry x="40" y="340.24" width="60" height="20" as="geometry"/>
                </mxCell>
                <mxCell id="63" value="&lt;font style=&quot;font-size: 8px&quot;&gt;&lt;b&gt;Virtual Network&lt;br&gt;Integration&lt;/b&gt;&lt;/font&gt;" style="text;html=1;resizable=0;autosize=1;align=center;verticalAlign=middle;points=[];fillColor=none;strokeColor=none;rounded=0;" parent="1" vertex="1">
                    <mxGeometry x="181.69000000000003" y="291.65" width="70" height="40" as="geometry"/>
                </mxCell>
                <mxCell id="-poeL8EhlbD7yA2cGTHf-133" style="edgeStyle=orthogonalEdgeStyle;rounded=0;orthogonalLoop=1;jettySize=auto;html=1;" parent="1" source="76" edge="1">
                    <mxGeometry relative="1" as="geometry">
                        <mxPoint x="325" y="284.0049999999999" as="targetPoint"/>
                    </mxGeometry>
                </mxCell>
                <mxCell id="uNowJhoPLgQHm180bY7j-88" style="edgeStyle=orthogonalEdgeStyle;rounded=0;orthogonalLoop=1;jettySize=auto;html=1;fillColor=#fff2cc;strokeColor=#d6b656;" parent="1" source="76" target="uNowJhoPLgQHm180bY7j-84" edge="1">
                    <mxGeometry relative="1" as="geometry"/>
                </mxCell>
                <mxCell id="76" value="" style="shape=image;verticalLabelPosition=bottom;labelBackgroundColor=#ffffff;verticalAlign=top;aspect=fixed;imageAspect=0;image=data:image/svg+xml,PHN2ZyB4bWxucz0iaHR0cDovL3d3dy53My5vcmcvMjAwMC9zdmciIGlkPSJiNzBhY2YwYS0zNGI0LTRiZGYtOTAyNC03NDk2MDQzZmY5MTUiIHdpZHRoPSIxNi45Njc2MjQ2NjQzMDY2NCIgaGVpZ2h0PSIxNi45NzE1MTk0NzAyMTQ4NDQiIHZpZXdCb3g9IjAuNDk2OTEyNzQ3NjIxNTM2MjUgMC41MzE1Njk0MjEyOTEzNTEzIDE2Ljk2NzYyNDY2NDMwNjY0IDE2Ljk3MTUxOTQ3MDIxNDg0NCI+CiAgPGRlZnM+CiAgICA8cmFkaWFsR3JhZGllbnQgaWQ9ImUyY2Y4NzQ2LWM5YTgtNGVlZS04NmMyLTQ5NTE5ODNjNjAzMiIgY3g9IjEzNDI4LjgxIiBjeT0iMzUxOC44NiIgcj0iNTYuNjciIGdyYWRpZW50VHJhbnNmb3JtPSJ0cmFuc2xhdGUoLTIwMDUuMzMgLTUxOC44Mykgc2NhbGUoMC4xNSkiIGdyYWRpZW50VW5pdHM9InVzZXJTcGFjZU9uVXNlIj4KICAgICAgPHN0b3Agb2Zmc2V0PSIwLjE4IiBzdG9wLWNvbG9yPSIjNWVhMGVmIi8+CiAgICAgIDxzdG9wIG9mZnNldD0iMSIgc3RvcC1jb2xvcj0iIzAwNzhkNCIvPgogICAgPC9yYWRpYWxHcmFkaWVudD4KICAgIDxsaW5lYXJHcmFkaWVudCBpZD0iYmRkMjEzZGQtZDMxMy00NzNjLThmZjQtMDEzM2ZkM2E5MDMzIiB4MT0iNC40IiB5MT0iMTEuNDgiIHgyPSI0LjM3IiB5Mj0iNy41MyIgZ3JhZGllbnRVbml0cz0idXNlclNwYWNlT25Vc2UiPgogICAgICA8c3RvcCBvZmZzZXQ9IjAiIHN0b3AtY29sb3I9IiNjY2MiLz4KICAgICAgPHN0b3Agb2Zmc2V0PSIxIiBzdG9wLWNvbG9yPSIjZmNmY2ZjIi8+CiAgICA8L2xpbmVhckdyYWRpZW50PgogICAgPGxpbmVhckdyYWRpZW50IGlkPSJhZmNjNjNjNS0zNjQ5LTQ0NzYtYTc0Mi1iY2I1M2E1NjlmM2MiIHgxPSIxMC4xMyIgeTE9IjE1LjQ1IiB4Mj0iMTAuMTMiIHkyPSIxMS45IiBncmFkaWVudFVuaXRzPSJ1c2VyU3BhY2VPblVzZSI+CiAgICAgIDxzdG9wIG9mZnNldD0iMCIgc3RvcC1jb2xvcj0iI2NjYyIvPgogICAgICA8c3RvcCBvZmZzZXQ9IjEiIHN0b3AtY29sb3I9IiNmY2ZjZmMiLz4KICAgIDwvbGluZWFyR3JhZGllbnQ+CiAgICA8bGluZWFyR3JhZGllbnQgaWQ9ImJkODczZjBiLTk5NTQtNGFhNS1hM2RmLTlmNGM2NGU4NzI5ZCIgeDE9IjE0LjE4IiB5MT0iMTEuMTUiIHgyPSIxNC4xOCIgeTI9IjcuMzgiIGdyYWRpZW50VW5pdHM9InVzZXJTcGFjZU9uVXNlIj4KICAgICAgPHN0b3Agb2Zmc2V0PSIwIiBzdG9wLWNvbG9yPSIjY2NjIi8+CiAgICAgIDxzdG9wIG9mZnNldD0iMSIgc3RvcC1jb2xvcj0iI2ZjZmNmYyIvPgogICAgPC9saW5lYXJHcmFkaWVudD4KICA8L2RlZnM+CiAgPHRpdGxlPkljb24td2ViLTQxPC90aXRsZT4KICA8cGF0aCBpZD0iZWU3NWRkMDYtMWFjYS00Zjc2LTlkMTEtZDA1YTI4NDAyMGFkIiBkPSJNMTQuMjEsMTUuNzJBOC41LDguNSwwLDAsMSwzLjc5LDIuMjhsLjA5LS4wNmE4LjUsOC41LDAsMCwxLDEwLjMzLDEzLjUiIGZpbGw9InVybCgjZTJjZjg3NDYtYzlhOC00ZWVlLTg2YzItNDk1MTk4M2M2MDMyKSIvPgogIDxwYXRoIGQ9Ik02LjY5LDcuMjNBMTMsMTMsMCwwLDEsMTUuNiwzLjY1YTguNDcsOC40NywwLDAsMC0xLjQ5LTEuNDQsMTQuMzQsMTQuMzQsMCwwLDAtNC42OSwxLjFBMTIuNTQsMTIuNTQsMCwwLDAsNS4zNCw2LjEzLDIuNzYsMi43NiwwLDAsMSw2LjY5LDcuMjNaIiBmaWxsPSIjZmZmIiBvcGFjaXR5PSIwLjYiLz4KICA8cGF0aCBkPSJNMi40OCwxMC42NWExNy44NiwxNy44NiwwLDAsMC0uODMsMi42Miw3LjgyLDcuODIsMCwwLDAsLjYyLjkyYy4xOC4yMy4zNS40NC41NS42NUExNy45NCwxNy45NCwwLDAsMSwzLjksMTEuMzcsMi43NiwyLjc2LDAsMCwxLDIuNDgsMTAuNjVaIiBmaWxsPSIjZmZmIiBvcGFjaXR5PSIwLjYiLz4KICA8cGF0aCBkPSJNMy40Niw2LjExYTEyLDEyLDAsMCwxLS42OS0yLjk0LDguMTUsOC4xNSwwLDAsMC0xLjEsMS40NUExMi42OSwxMi42OSwwLDAsMCwyLjI0LDcsMi42OSwyLjY5LDAsMCwxLDMuNDYsNi4xMVoiIGZpbGw9IiNmMmYyZjIiIG9wYWNpdHk9IjAuNTUiLz4KICA8Y2lyY2xlIGN4PSI0LjM4IiBjeT0iOC42OCIgcj0iMi43MyIgZmlsbD0idXJsKCNiZGQyMTNkZC1kMzEzLTQ3M2MtOGZmNC0wMTMzZmQzYTkwMzMpIi8+CiAgPHBhdGggZD0iTTguMzYsMTMuNjdBMS43NywxLjc3LDAsMCwxLDguOSwxMi40YTExLjg4LDExLjg4LDAsMCwxLTIuNTMtMS44NiwyLjc0LDIuNzQsMCwwLDEtMS40OS44MywxMy4xLDEzLjEsMCwwLDAsMS40NSwxLjI4QTEyLjEyLDEyLjEyLDAsMCwwLDguMzgsMTMuOSwxLjc5LDEuNzksMCwwLDEsOC4zNiwxMy42N1oiIGZpbGw9IiNmMmYyZjIiIG9wYWNpdHk9IjAuNTUiLz4KICA8cGF0aCBkPSJNMTQuNjYsMTMuODhhMTIsMTIsMCwwLDEtMi43Ni0uMzIuNDEuNDEsMCwwLDEsMCwuMTEsMS43NSwxLjc1LDAsMCwxLS41MSwxLjI0LDEzLjY5LDEzLjY5LDAsMCwwLDMuNDIuMjRBOC4yMSw4LjIxLDAsMCwwLDE2LDEzLjgxLDExLjUsMTEuNSwwLDAsMSwxNC42NiwxMy44OFoiIGZpbGw9IiNmMmYyZjIiIG9wYWNpdHk9IjAuNTUiLz4KICA8Y2lyY2xlIGN4PSIxMC4xMyIgY3k9IjEzLjY3IiByPSIxLjc4IiBmaWxsPSJ1cmwoI2FmY2M2M2M1LTM2NDktNDQ3Ni1hNzQyLWJjYjUzYTU2OWYzYykiLz4KICA8cGF0aCBkPSJNMTIuMzIsOC45M2ExLjgzLDEuODMsMCwwLDEsLjYxLTFBMjUuNSwyNS41LDAsMCwxLDguNDcsMy43OWExNi45MSwxNi45MSwwLDAsMS0yLTIuOTIsNy42NCw3LjY0LDAsMCwwLTEuMDkuNDJBMTguMTQsMTguMTQsMCwwLDAsNy41Myw0LjQ3LDI2LjQ0LDI2LjQ0LDAsMCwwLDEyLjMyLDguOTNaIiBmaWxsPSIjZjJmMmYyIiBvcGFjaXR5PSIwLjciLz4KICA8Y2lyY2xlIGN4PSIxNC4xOCIgY3k9IjkuMjciIHI9IjEuODkiIGZpbGw9InVybCgjYmQ4NzNmMGItOTk1NC00YWE1LWEzZGYtOWY0YzY0ZTg3MjlkKSIvPgogIDxwYXRoIGQ9Ik0xNy4zNSwxMC41NCwxNywxMC4zN2wwLDAtLjMtLjE2LS4wNiwwTDE2LjM4LDEwbC0uMDcsMEwxNiw5LjhhMS43NiwxLjc2LDAsMCwxLS42NC45MmMuMTIuMDguMjUuMTUuMzguMjJsLjA4LjA1LjM1LjE5LDAsMCwuODYuNDVoMGE4LjYzLDguNjMsMCwwLDAsLjI5LTEuMTFaIiBmaWxsPSIjZjJmMmYyIiBvcGFjaXR5PSIwLjU1Ii8+CiAgPGNpcmNsZSBjeD0iNC4zOCIgY3k9IjguNjgiIHI9IjIuNzMiIGZpbGw9InVybCgjYmRkMjEzZGQtZDMxMy00NzNjLThmZjQtMDEzM2ZkM2E5MDMzKSIvPgogIDxjaXJjbGUgY3g9IjEwLjEzIiBjeT0iMTMuNjciIHI9IjEuNzgiIGZpbGw9InVybCgjYWZjYzYzYzUtMzY0OS00NDc2LWE3NDItYmNiNTNhNTY5ZjNjKSIvPgo8L3N2Zz4=;" parent="1" vertex="1">
                    <mxGeometry x="141.69" y="269.08" width="29.85" height="29.85" as="geometry"/>
                </mxCell>
                <mxCell id="83" value="" style="shape=image;imageAspect=0;aspect=fixed;verticalLabelPosition=bottom;verticalAlign=top;image=data:image/svg+xml,PHN2ZyB4bWxucz0iaHR0cDovL3d3dy53My5vcmcvMjAwMC9zdmciIGlkPSJhNTQyY2YzOS0yYmE2LTQyMDYtODI3OC02YTRmMWMyNDUyZjUiIHdpZHRoPSIxNi45Njc2MjQ2NjQzMDY2NCIgaGVpZ2h0PSIxNi45NzE1MTk0NzAyMTQ4NDQiIHZpZXdCb3g9IjAuNDk2OTEyNzQ3NjIxNTM2MjUgMC41MzE1Njk0MjEyOTEzNTEzIDE2Ljk2NzYyNDY2NDMwNjY0IDE2Ljk3MTUxOTQ3MDIxNDg0NCI+JiN4YTsgIDxkZWZzPiYjeGE7ICAgIDxyYWRpYWxHcmFkaWVudCBpZD0iZTc1NzlmNGQtMzZhMy00NjkzLWE3MjYtN2E2MDUwYWM1NjcxIiBjeD0iLTY4MTEuNCIgY3k9IjY3MjkuNjkiIHI9IjE3IiBncmFkaWVudFRyYW5zZm9ybT0ibWF0cml4KDAuNSwgMCwgMCwgLTAuNSwgMzQxNC45MSwgMzM3NC4wNSkiIGdyYWRpZW50VW5pdHM9InVzZXJTcGFjZU9uVXNlIj4mI3hhOyAgICAgIDxzdG9wIG9mZnNldD0iMC4xOCIgc3RvcC1jb2xvcj0iIzVlYTBlZiIvPiYjeGE7ICAgICAgPHN0b3Agb2Zmc2V0PSIxIiBzdG9wLWNvbG9yPSIjMDA3OGQ0Ii8+JiN4YTsgICAgPC9yYWRpYWxHcmFkaWVudD4mI3hhOyAgPC9kZWZzPiYjeGE7ICA8dGl0bGU+SWNvbi1uZXR3b3JraW5nLTY0PC90aXRsZT4mI3hhOyAgPHBhdGggaWQ9ImY1N2UxMDVkLTZkMmQtNGFkNy1iOGMzLWMxMDY4NGM5ZjliOCIgZD0iTTE0LjIxLDE1LjcyQTguNSw4LjUsMCwwLDEsMy43OSwyLjI4bC4wOS0uMDZhOC41LDguNSwwLDAsMSwxMC4zMywxMy41IiBmaWxsPSJ1cmwoI2U3NTc5ZjRkLTM2YTMtNDY5My1hNzI2LTdhNjA1MGFjNTY3MSkiLz4mI3hhOyAgPHBhdGggZD0iTTksMS4zMUE3LjY5LDcuNjksMCwxLDAsMTYuNjksOSw3LjcsNy43LDAsMCwwLDksMS4zMVpNMTQuMTUsMy45QTcuMzcsNy4zNywwLDAsMSwxMiw0LjcsOC44Myw4LjgzLDAsMCwwLDEwLjc1LDIsNy4yLDcuMiwwLDAsMSwxNC4xNSwzLjlaTTksMS43NGE2LjU5LDYuNTksMCwwLDEsMS4wOS4wOWgwYTcuNDgsNy40OCwwLDAsMSwxLjUzLDMsMTUuMTIsMTUuMTIsMCwwLDEtNS40NSwwQTcuMzgsNy4zOCwwLDAsMSw3LjY4LDEuODlsMCwwQTcuMzQsNy4zNCwwLDAsMSw5LDEuNzRaTTcsMkE4LjcyLDguNzIsMCwwLDAsNS43Myw0LjY4YTUuNTgsNS41OCwwLDAsMS0xLjktLjc3QTcuMzUsNy4zNSwwLDAsMSw3LDJaTTMuNzIsMTRhNS4yNyw1LjI3LDAsMCwxLDEuNzgtLjc2LDcuMDgsNy4wOCwwLDAsMCwxLjM1LDIuNzJBNy4yNSw3LjI1LDAsMCwxLDMuNzIsMTRabTYuNDEsMi4yQTcuMDgsNy4wOCwwLDAsMSw5LDE2LjI2YTYuODMsNi44MywwLDAsMS0xLjQ0LS4xNWwwLDBhNiw2LDAsMCwxLTEuNjctMywxNC43MywxNC43MywwLDAsMSw1Ljg4LDAsNiw2LDAsMCwxLTEuNjksM1ptLjczLS4xNmE3LjEzLDcuMTMsMCwwLDAsMS4zOC0yLjgsNi42OCw2LjY4LDAsMCwxLDIsLjgzQTcuMTMsNy4xMywwLDAsMSwxMC44NiwxNlptMS40OC0zLjIyYy4wOC0uMzYuMTUtLjczLjItMS4xMmwtLjQ2LjExYy0uMDUuMzEtLjEuNjItLjE3LjkxYTE1LjIzLDE1LjIzLDAsMCwwLTYuMDksMGMtLjA3LS4yNy0uMTItLjU2LS4xNy0uODZhLjI4LjI4LDAsMCwxLDAtLjA5bC0uNDYtLjEzYTIuMzYsMi4zNiwwLDAsMCwwLC4yOGMwLC4zMi4xMS42Mi4xNy45MWE1LjksNS45LDAsMCwwLTIsLjg1LDcuMjQsNy4yNCwwLDAsMSwuMTEtOS40LDYuMjksNi4yOSwwLDAsMCwyLjA4Ljg2Yy0uMDcuMjQtLjEzLjUtLjE4Ljc2czAsLjI1LS4wOC4zN2wuNDctLjExLDAtLjE3Yy4wNi0uMjYuMTItLjUxLjE5LS43NUExNC44OSwxNC44OSwwLDAsMCw5LDUuNDhhMTUsMTUsMCwwLDAsMi43OC0uMjZjLjA3LjI3LjE0LjU2LjIuODVsLjQ2LjExcS0uMTEtLjU0LS4yNC0xYTcuNzMsNy43MywwLDAsMCwyLjMtLjkxLDcuMjIsNy4yMiwwLDAsMSwuMDYsOS40OUE3LjI4LDcuMjgsMCwwLDAsMTIuMzQsMTIuNzlaIiBmaWxsPSIjNWVhMGVmIi8+JiN4YTsgIDxwYXRoIGQ9Ik0zLjY5LDdhNy45Miw3LjkyLDAsMCwxLDEuMTYtLjA4LDIuNDQsMi40NCwwLDAsMSwxLjcxLjUyQTIsMiwwLDAsMSw3LjE1LDguOWEyLjIxLDIuMjEsMCwwLDEtLjYxLDEuNjQsMi42LDIuNiwwLDAsMS0xLjg2LjYxLDkuMTcsOS4xNywwLDAsMS0xLS4wNVptLjU1LDMuNzNhNCw0LDAsMCwwLC41NSwwQTEuNjIsMS42MiwwLDAsMCw2LjU4LDguOTIsMS41LDEuNSwwLDAsMCw0Ljg3LDcuM2EzLjE3LDMuMTcsMCwwLDAtLjYzLDBaIiBmaWxsPSIjZmZmIi8+JiN4YTsgIDxwYXRoIGQ9Ik03Ljg2LDExLjExVjYuOWguNTlMOS44LDlhMTIuMTgsMTIuMTgsMCwwLDEsLjc2LDEuMzdoMGMtLjA1LS41Ni0uMDYtMS4wNy0uMDYtMS43M1Y2LjlIMTF2NC4yMWgtLjU1TDkuMTMsOWMtLjI5LS40Ny0uNTctMS0uNzktMS40aDBjMCwuNTMsMCwxLDAsMS43NHYxLjhaIiBmaWxsPSIjZmZmIi8+JiN4YTsgIDxwYXRoIGQ9Ik0xMS44OSwxMC40NWEyLDIsMCwwLDAsMSwuMjdjLjU2LDAsLjg4LS4yOS44OC0uNzJzLS4yMi0uNjItLjc5LS44My0xLjEyLS42LTEuMTItMS4yYTEuMjIsMS4yMiwwLDAsMSwxLjM3LTEuMTQsMiwyLDAsMCwxLC45My4yTDE0LDcuNDhhMS42MywxLjYzLDAsMCwwLS44LS4yYy0uNTgsMC0uOC4zNC0uOC42M3MuMjYuNTkuODQuODEsMS4wOC42MiwxLjA4LDEuMjQtLjQ4LDEuMjEtMS40OCwxLjIxYTIuMTYsMi4xNiwwLDAsMS0xLjA3LS4yN1oiIGZpbGw9IiNmZmYiLz4mI3hhOzwvc3ZnPg==;" parent="1" vertex="1">
                    <mxGeometry x="523.49" y="352.35" width="20" height="20" as="geometry"/>
                </mxCell>
                <mxCell id="84" value="&lt;font style=&quot;font-size: 7px&quot;&gt;privatelink.azurewebsites.net&lt;/font&gt;" style="text;html=1;resizable=0;autosize=1;align=center;verticalAlign=middle;points=[];fillColor=none;strokeColor=none;rounded=0;" parent="1" vertex="1">
                    <mxGeometry x="481.5" y="370" width="110" height="20" as="geometry"/>
                </mxCell>
                <mxCell id="uNowJhoPLgQHm180bY7j-96" style="edgeStyle=orthogonalEdgeStyle;rounded=0;orthogonalLoop=1;jettySize=auto;html=1;fillColor=#d5e8d4;strokeColor=#82b366;" parent="1" target="uNowJhoPLgQHm180bY7j-90" edge="1">
                    <mxGeometry relative="1" as="geometry">
                        <mxPoint x="801.000901250874" y="288.65517241379314" as="sourcePoint"/>
                    </mxGeometry>
                </mxCell>
                <mxCell id="-poeL8EhlbD7yA2cGTHf-90" value="&lt;font style=&quot;font-size: 8px&quot;&gt;&lt;b&gt;App Service Integration Subnet&lt;/b&gt;&lt;/font&gt;" style="text;html=1;resizable=0;autosize=1;align=center;verticalAlign=middle;points=[];fillColor=none;strokeColor=none;rounded=0;" parent="1" vertex="1">
                    <mxGeometry x="284.85" y="232.64999999999998" width="130" height="20" as="geometry"/>
                </mxCell>
                <mxCell id="-poeL8EhlbD7yA2cGTHf-95" value="" style="shape=image;imageAspect=0;aspect=fixed;verticalLabelPosition=bottom;verticalAlign=top;image=data:image/svg+xml,PHN2ZyB4bWxucz0iaHR0cDovL3d3dy53My5vcmcvMjAwMC9zdmciIHdpZHRoPSIxNy40NjgxMzk2NDg0Mzc1IiBoZWlnaHQ9IjEwLjQwOTgxODY0OTI5MTk5MiIgdmlld0JveD0iMC4yNjYyNTUxOTk5MDkyMTAyIDMuNzk1NjE5NzI2MTgxMDMwMyAxNy40NjgxMzk2NDg0Mzc1IDEwLjQwOTgxODY0OTI5MTk5MiI+JiN4YTsgIDxkZWZzPiYjeGE7ICAgIDxsaW5lYXJHcmFkaWVudCBpZD0iYmNlYjYwZGQtOGI4Yy00MDk4LTk0ZjgtYWViNGRiMmVkYWVmIiB4MT0iOS4wMzMiIHkxPSIxMC4zMDUiIHgyPSI5LjAzMyIgeTI9IjcuNjk1IiBncmFkaWVudFVuaXRzPSJ1c2VyU3BhY2VPblVzZSI+JiN4YTsgICAgICA8c3RvcCBvZmZzZXQ9IjAiIHN0b3AtY29sb3I9IiM1ZTk2MjQiLz4mI3hhOyAgICAgIDxzdG9wIG9mZnNldD0iMC4yNDEiIHN0b3AtY29sb3I9IiM2ZmIwMmEiLz4mI3hhOyAgICAgIDxzdG9wIG9mZnNldD0iMC41MDEiIHN0b3AtY29sb3I9IiM3Y2M1MmYiLz4mI3hhOyAgICAgIDxzdG9wIG9mZnNldD0iMC43NTYiIHN0b3AtY29sb3I9IiM4M2QyMzIiLz4mI3hhOyAgICAgIDxzdG9wIG9mZnNldD0iMSIgc3RvcC1jb2xvcj0iIzg2ZDYzMyIvPiYjeGE7ICAgIDwvbGluZWFyR3JhZGllbnQ+JiN4YTsgIDwvZGVmcz4mI3hhOyAgPGcgaWQ9ImFjNzVjMjFlLTJhOTMtNDY0Zi04MDQ4LWYxNTE4ZGFiOGI3NSI+JiN4YTsgICAgPGc+JiN4YTsgICAgICA8cGF0aCBkPSJNOS4wMzEsNy43QTEuMzA1LDEuMzA1LDAsMSwwLDEwLjMzOCw5LDEuMzA1LDEuMzA1LDAsMCwwLDkuMDMxLDcuN1oiIGZpbGw9InVybCgjYmNlYjYwZGQtOGI4Yy00MDk4LTk0ZjgtYWViNGRiMmVkYWVmKSIvPiYjeGE7ICAgICAgPGc+JiN4YTsgICAgICAgIDxwYXRoIGQ9Ik0yLjk2MSw3LjM3NGguODg4YS4yODQuMjg0LDAsMCwxLC4yODQuMjg0djYuNTUxYS41NjguNTY4LDAsMCwxLS41NjguNTY4SDIuNjc3YTAsMCwwLDAsMSwwLDBWNy42NTlBLjI4NC4yODQsMCwwLDEsMi45NjEsNy4zNzRaIiB0cmFuc2Zvcm09InRyYW5zbGF0ZSgxMy42NTMgMTYuNDg1KSByb3RhdGUoMTM0LjkxOSkiIGZpbGw9IiM1MGU2ZmYiLz4mI3hhOyAgICAgICAgPHBhdGggZD0iTTIuOTEzLDMuMjQ0SDMuOGEuMjg0LjI4NCwwLDAsMSwuMjg0LjI4NHY3LjAxNWEwLDAsMCwwLDEsMCwwSDMuMmEuNTY4LjU2OCwwLDAsMS0uNTY4LS41NjhWMy41MjhhLjI4NC4yODQsMCwwLDEsLjI4NC0uMjg0WiIgdHJhbnNmb3JtPSJ0cmFuc2xhdGUoNS44NDcgLTAuMzU4KSByb3RhdGUoNDQuOTE5KSIgZmlsbD0iIzE0OTBkZiIvPiYjeGE7ICAgICAgICA8cGF0aCBkPSJNMTMuODY3LDcuMzc0aC44ODhhLjU2OC41NjgsMCwwLDEsLjU2OC41Njh2Ni41NTFhLjI4NC4yODQsMCwwLDEtLjI4NC4yODRoLS44ODhhLjI4NC4yODQsMCwwLDEtLjI4NC0uMjg0VjcuMzc0YTAsMCwwLDAsMSwwLDBaIiB0cmFuc2Zvcm09InRyYW5zbGF0ZSgxMi4xMzIgLTcuMDc5KSByb3RhdGUoNDUuMDgxKSIgZmlsbD0iIzUwZTZmZiIvPiYjeGE7ICAgICAgICA8cGF0aCBkPSJNMTQuNDgzLDMuMjQ0aC44ODhhMCwwLDAsMCwxLDAsMHY3LjAxNWEuMjg0LjI4NCwwLDAsMS0uMjg0LjI4NEgxNC4yYS4yODQuMjg0LDAsMCwxLS4yODQtLjI4NFYzLjgxMmEuNTY4LjU2OCwwLDAsMSwuNTY4LS41NjhaIiB0cmFuc2Zvcm09InRyYW5zbGF0ZSgyOS44NzkgMS40MzUpIHJvdGF0ZSgxMzUuMDgxKSIgZmlsbD0iIzE0OTBkZiIvPiYjeGE7ICAgICAgPC9nPiYjeGE7ICAgIDwvZz4mI3hhOyAgPC9nPiYjeGE7PC9zdmc+;" parent="1" vertex="1">
                    <mxGeometry x="561.5" y="326.6500000000001" width="30" height="17.65" as="geometry"/>
                </mxCell>
                <mxCell id="-poeL8EhlbD7yA2cGTHf-97" value="" style="shape=image;imageAspect=0;aspect=fixed;verticalLabelPosition=bottom;verticalAlign=top;image=data:image/svg+xml,PHN2ZyB4bWxucz0iaHR0cDovL3d3dy53My5vcmcvMjAwMC9zdmciIHdpZHRoPSIxNy40NjgxMzk2NDg0Mzc1IiBoZWlnaHQ9IjEwLjQwOTgxODY0OTI5MTk5MiIgdmlld0JveD0iMC4yNjYyNTUxOTk5MDkyMTAyIDMuNzk1NjE5NzI2MTgxMDMwMyAxNy40NjgxMzk2NDg0Mzc1IDEwLjQwOTgxODY0OTI5MTk5MiI+JiN4YTsgIDxkZWZzPiYjeGE7ICAgIDxsaW5lYXJHcmFkaWVudCBpZD0iYmNlYjYwZGQtOGI4Yy00MDk4LTk0ZjgtYWViNGRiMmVkYWVmIiB4MT0iOS4wMzMiIHkxPSIxMC4zMDUiIHgyPSI5LjAzMyIgeTI9IjcuNjk1IiBncmFkaWVudFVuaXRzPSJ1c2VyU3BhY2VPblVzZSI+JiN4YTsgICAgICA8c3RvcCBvZmZzZXQ9IjAiIHN0b3AtY29sb3I9IiM1ZTk2MjQiLz4mI3hhOyAgICAgIDxzdG9wIG9mZnNldD0iMC4yNDEiIHN0b3AtY29sb3I9IiM2ZmIwMmEiLz4mI3hhOyAgICAgIDxzdG9wIG9mZnNldD0iMC41MDEiIHN0b3AtY29sb3I9IiM3Y2M1MmYiLz4mI3hhOyAgICAgIDxzdG9wIG9mZnNldD0iMC43NTYiIHN0b3AtY29sb3I9IiM4M2QyMzIiLz4mI3hhOyAgICAgIDxzdG9wIG9mZnNldD0iMSIgc3RvcC1jb2xvcj0iIzg2ZDYzMyIvPiYjeGE7ICAgIDwvbGluZWFyR3JhZGllbnQ+JiN4YTsgIDwvZGVmcz4mI3hhOyAgPGcgaWQ9ImFjNzVjMjFlLTJhOTMtNDY0Zi04MDQ4LWYxNTE4ZGFiOGI3NSI+JiN4YTsgICAgPGc+JiN4YTsgICAgICA8cGF0aCBkPSJNOS4wMzEsNy43QTEuMzA1LDEuMzA1LDAsMSwwLDEwLjMzOCw5LDEuMzA1LDEuMzA1LDAsMCwwLDkuMDMxLDcuN1oiIGZpbGw9InVybCgjYmNlYjYwZGQtOGI4Yy00MDk4LTk0ZjgtYWViNGRiMmVkYWVmKSIvPiYjeGE7ICAgICAgPGc+JiN4YTsgICAgICAgIDxwYXRoIGQ9Ik0yLjk2MSw3LjM3NGguODg4YS4yODQuMjg0LDAsMCwxLC4yODQuMjg0djYuNTUxYS41NjguNTY4LDAsMCwxLS41NjguNTY4SDIuNjc3YTAsMCwwLDAsMSwwLDBWNy42NTlBLjI4NC4yODQsMCwwLDEsMi45NjEsNy4zNzRaIiB0cmFuc2Zvcm09InRyYW5zbGF0ZSgxMy42NTMgMTYuNDg1KSByb3RhdGUoMTM0LjkxOSkiIGZpbGw9IiM1MGU2ZmYiLz4mI3hhOyAgICAgICAgPHBhdGggZD0iTTIuOTEzLDMuMjQ0SDMuOGEuMjg0LjI4NCwwLDAsMSwuMjg0LjI4NHY3LjAxNWEwLDAsMCwwLDEsMCwwSDMuMmEuNTY4LjU2OCwwLDAsMS0uNTY4LS41NjhWMy41MjhhLjI4NC4yODQsMCwwLDEsLjI4NC0uMjg0WiIgdHJhbnNmb3JtPSJ0cmFuc2xhdGUoNS44NDcgLTAuMzU4KSByb3RhdGUoNDQuOTE5KSIgZmlsbD0iIzE0OTBkZiIvPiYjeGE7ICAgICAgICA8cGF0aCBkPSJNMTMuODY3LDcuMzc0aC44ODhhLjU2OC41NjgsMCwwLDEsLjU2OC41Njh2Ni41NTFhLjI4NC4yODQsMCwwLDEtLjI4NC4yODRoLS44ODhhLjI4NC4yODQsMCwwLDEtLjI4NC0uMjg0VjcuMzc0YTAsMCwwLDAsMSwwLDBaIiB0cmFuc2Zvcm09InRyYW5zbGF0ZSgxMi4xMzIgLTcuMDc5KSByb3RhdGUoNDUuMDgxKSIgZmlsbD0iIzUwZTZmZiIvPiYjeGE7ICAgICAgICA8cGF0aCBkPSJNMTQuNDgzLDMuMjQ0aC44ODhhMCwwLDAsMCwxLDAsMHY3LjAxNWEuMjg0LjI4NCwwLDAsMS0uMjg0LjI4NEgxNC4yYS4yODQuMjg0LDAsMCwxLS4yODQtLjI4NFYzLjgxMmEuNTY4LjU2OCwwLDAsMSwuNTY4LS41NjhaIiB0cmFuc2Zvcm09InRyYW5zbGF0ZSgyOS44NzkgMS40MzUpIHJvdGF0ZSgxMzUuMDgxKSIgZmlsbD0iIzE0OTBkZiIvPiYjeGE7ICAgICAgPC9nPiYjeGE7ICAgIDwvZz4mI3hhOyAgPC9nPiYjeGE7PC9zdmc+;" parent="1" vertex="1">
                    <mxGeometry x="431.0000000000001" y="326.65000000000003" width="30" height="17.65" as="geometry"/>
                </mxCell>
                <mxCell id="-poeL8EhlbD7yA2cGTHf-99" value="&lt;font style=&quot;font-size: 8px&quot;&gt;&lt;b&gt;Application Gateway Subnet&lt;/b&gt;&lt;/font&gt;" style="text;html=1;resizable=0;autosize=1;align=center;verticalAlign=middle;points=[];fillColor=none;strokeColor=none;rounded=0;" parent="1" vertex="1">
                    <mxGeometry x="545" y="232.07999999999998" width="120" height="20" as="geometry"/>
                </mxCell>
                <mxCell id="-poeL8EhlbD7yA2cGTHf-100" value="&lt;font style=&quot;font-size: 8px&quot;&gt;&lt;b&gt;API Management Subnet&lt;/b&gt;&lt;/font&gt;" style="text;html=1;resizable=0;autosize=1;align=center;verticalAlign=middle;points=[];fillColor=none;strokeColor=none;rounded=0;" parent="1" vertex="1">
                    <mxGeometry x="415.84000000000003" y="232.07999999999998" width="110" height="20" as="geometry"/>
                </mxCell>
                <mxCell id="-poeL8EhlbD7yA2cGTHf-108" value="" style="whiteSpace=wrap;html=1;fillColor=#E6E6E6;" parent="1" vertex="1">
                    <mxGeometry x="310" y="252.64999999999998" width="87" height="74" as="geometry"/>
                </mxCell>
                <mxCell id="-poeL8EhlbD7yA2cGTHf-109" value="" style="whiteSpace=wrap;html=1;fillColor=#E6E6E6;" parent="1" vertex="1">
                    <mxGeometry x="317.34000000000003" y="130" width="87" height="74" as="geometry"/>
                </mxCell>
                <mxCell id="-poeL8EhlbD7yA2cGTHf-110" value="" style="whiteSpace=wrap;html=1;fillColor=#E6E6E6;" parent="1" vertex="1">
                    <mxGeometry x="561.5" y="252.64999999999998" width="87" height="74" as="geometry"/>
                </mxCell>
                <mxCell id="-poeL8EhlbD7yA2cGTHf-111" value="" style="whiteSpace=wrap;html=1;fillColor=#E6E6E6;" parent="1" vertex="1">
                    <mxGeometry x="431" y="251.64999999999998" width="87" height="74" as="geometry"/>
                </mxCell>
                <mxCell id="-poeL8EhlbD7yA2cGTHf-130" style="edgeStyle=orthogonalEdgeStyle;rounded=0;orthogonalLoop=1;jettySize=auto;html=1;fillColor=#d5e8d4;strokeColor=#82b366;" parent="1" source="-poeL8EhlbD7yA2cGTHf-117" target="-poeL8EhlbD7yA2cGTHf-129" edge="1">
                    <mxGeometry relative="1" as="geometry"/>
                </mxCell>
                <mxCell id="-poeL8EhlbD7yA2cGTHf-117" value="" style="shape=image;verticalLabelPosition=bottom;labelBackgroundColor=#ffffff;verticalAlign=top;aspect=fixed;imageAspect=0;image=data:image/svg+xml,PHN2ZyB4bWxucz0iaHR0cDovL3d3dy53My5vcmcvMjAwMC9zdmciIHhtbG5zOnhsaW5rPSJodHRwOi8vd3d3LnczLm9yZy8xOTk5L3hsaW5rIiB2ZXJzaW9uPSIxLjEiIGlkPSJMYXllcl8xIiB4PSIwcHgiIHk9IjBweCIgd2lkdGg9IjUwLjA5OTk5ODQ3NDEyMTA5NCIgaGVpZ2h0PSI1MCIgdmlld0JveD0iMCAwIDUwLjA5OTk5ODQ3NDEyMTA5NCA1MCIgZW5hYmxlLWJhY2tncm91bmQ9Im5ldyAwIDAgNTAgNTAiIHhtbDpzcGFjZT0icHJlc2VydmUiPiYjeGE7PHBhdGggZmlsbD0iIzdGQkEwMCIgZD0iTTI1LDUwYy0xLjIsMC0yLjQtMC41LTMuMy0xLjRMMS40LDI4LjNDMC41LDI3LjQsMCwyNi4yLDAsMjVzMC41LTIuNCwxLjQtMy4zTDIxLjcsMS40JiMxMDsmIzk7QzIyLjYsMC41LDIzLjgsMCwyNSwwczIuNCwwLjUsMy4zLDEuNGwyMC40LDIwLjRjMC45LDAuOSwxLjQsMiwxLjQsMy4zYzAsMS4yLTAuNSwyLjQtMS40LDMuM0wyOC4zLDQ4LjZDMjcuNCw0OS41LDI2LjIsNTAsMjUsNTAiLz4mI3hhOzxwYXRoIGZpbGw9IiNGRkZGRkYiIGQ9Ik0yOS43MzgsMTguNTg0Yy0xLjM5OCwxLjA2OS0zLjA0NCwxLjU4OS00LjY4LDEuNTg5Yy0yLjMyLDAtNC42MTQtMS4wNDItNi4xMzEtMy4wMjUmIzEwOyYjOTtjLTIuNTktMy4zODItMS45NTEtOC4yMTksMS40MzctMTAuODExYzEuMzk3LTEuMDc1LDMuMDQ2LTEuNTg4LDQuNjc5LTEuNTg4YzIuMzIsMCw0LjYxNSwxLjA0Miw2LjEzMSwzLjAyNiYjMTA7JiM5O0MzMy43NjUsMTEuMTU4LDMzLjExOSwxNS45OTYsMjkuNzM4LDE4LjU4NCIvPiYjeGE7PHBhdGggb3BhY2l0eT0iMC4xNSIgZmlsbD0iI0ZGRkZGRiIgZW5hYmxlLWJhY2tncm91bmQ9Im5ldyAgICAiIGQ9Ik0yOC4zLDEuNEMyNy40LDAuNSwyNi4yLDAsMjUsMHMtMi40LDAuNS0zLjMsMS40TDEuNCwyMS43JiMxMDsmIzk7QzAuNSwyMi42LDAsMjMuOCwwLDI1czAuNSwyLjQsMS40LDMuM2wxMS41LDExLjVMMzQuNiw3LjdMMjguMywxLjR6Ii8+JiN4YTs8cG9seWdvbiBmaWxsPSIjRkZGRkZGIiBwb2ludHM9IjI1LDQ1LjYgMzEuNiwzOSAyNi45LDM5IDI2LjksMTkuMTQ5IDIzLDE5LjE0OSAyMywzOSAxOC40LDM5ICIvPiYjeGE7PHBvbHlnb24gZmlsbD0iI0ZGRkZGRiIgcG9pbnRzPSIzOS4zMywzMy40OCAzOS4zMywyNC4xNDYgMzYuMDc3LDI3LjM5OSAyNy42MzMsMTguOTU1IDI0LjgwNSwyMS43ODMgMzMuMjQ5LDMwLjIyNyAyOS45OTYsMzMuNDggJiMxMDsmIzk7Ii8+JiN4YTs8cG9seWdvbiBmaWxsPSIjRkZGRkZGIiBwb2ludHM9IjEwLjY4NSwzMy41MTUgMjAuMDE4LDMzLjUxNSAxNi43NjYsMzAuMjYzIDI1LjQ0NywyMS41ODIgMjIuNjE4LDE4Ljc1MyAxMy45MzcsMjcuNDM0ICYjMTA7JiM5OzEwLjY4NSwyNC4xODIgIi8+JiN4YTs8cGF0aCBmaWxsPSIjNTlCNEQ5IiBkPSJNMjkuMTE1LDE3Ljc3MWMtMS4yMTIsMC45MjctMi42NCwxLjM3OC00LjA1OCwxLjM3OGMtMi4wMTIsMC00LjAwMi0wLjkwMy01LjMxNi0yLjYyMyYjMTA7JiM5O2MtMi4yNDYtMi45MzMtMS42OTItNy4xMjcsMS4yNDYtOS4zNzVjMS4yMTItMC45MzIsMi42NDEtMS4zNzcsNC4wNTctMS4zNzdjMi4wMTIsMCw0LjAwMiwwLjkwMyw1LjMxNiwyLjYyNCYjMTA7JiM5O0MzMi42MDgsMTEuMzMxLDMyLjA0OCwxNS41MjYsMjkuMTE1LDE3Ljc3MSIvPiYjeGE7PHBhdGggZmlsbD0iI0ZGRkZGRiIgZD0iTTI3Ljg4NiwxMy42MzVjMC40ODYsMC42MzQsMS4zODgsMC43NDgsMi4wMTgsMC4yNjljMC4wMzMtMC4wMjUsMC4wNTgtMC4wNTYsMC4wODgtMC4wODMmIzEwOyYjOTtjMC42NDUsMC40NTQsMS4wOTIsMC43NTQsMS4zNDQsMC45MjVjMC4wNzUtMC4xOTMsMC4xMjYtMC4zNzksMC4xNzktMC41NzNjLTAuMjY2LTAuMTk4LTAuNjI3LTAuNDc2LTEuMTQ4LTAuODk4JiMxMDsmIzk7YzAuMTcxLTAuNDQ5LDAuMTE3LTAuOTc0LTAuMTk1LTEuMzg0Yy0wLjQ0Ny0wLjU3OC0xLjIzOC0wLjcyNS0xLjg1Ni0wLjM2OGMtMC42ODEtMC42MTEtMS40My0xLjMxMi0yLjIxOS0yLjA5NiYjMTA7JiM5O2MyLjQ1Mi0xLjMxOSw0LjE5NC0xLjEyNiw0LjE5NC0xLjEyNmMtMC4yOTEtMC4zNzEtMC42MTctMC42OTYtMC45NjUtMC45ODljLTEuMDM0LTAuMTYtMi42NC0wLjE0Mi00LjQ3NiwwLjgzNGwtMC4wMDEtMC4wMDFoMCYjMTA7JiM5O2MtMC42MTItMC42NC0xLjIzNC0xLjMyNy0xLjg2OC0yLjA2M2MtMC4zMDMsMC4wOTctMC42LDAuMjE3LTAuODg2LDAuMzZjMC40NjgsMC43NjYsMS4wOTgsMS41MzgsMS44MDcsMi4yOTJsMCwwJiMxMDsmIzk7YzAuMDAxLDAuMDAyLDAuMDAzLDAuMDAzLDAuMDA1LDAuMDA1Yy0wLjU5MiwwLjQxNC0xLjI1LDAuOTY3LTEuODU4LDEuNjA5Yy0wLjA3OCwwLjA4My0wLjE1MiwwLjE2Ni0wLjIyNSwwLjI0OSYjMTA7JiM5O2MtMC4zNjMtMC4wNzYtMC43NDUtMC4wNTQtMS4xMDIsMC4wNzVjLTAuNjA2LTEuMzA3LTAuNTU3LTIuMzU3LTAuNDYxLTIuODk4Yy0wLjI2MywwLjI3Ni0wLjUwOSwwLjU2NS0wLjcyLDAuODc0JiMxMDsmIzk7Yy0wLjE1OCwwLjY0Ni0wLjIwMywxLjU3OCwwLjI2NCwyLjcwMWMtMC41NCwwLjcwNy0wLjU2NiwxLjcwOS0wLjAwMSwyLjQ0OWMwLjA0NywwLjA2MSwwLjA5NywwLjExOCwwLjE1LDAuMTczJiMxMDsmIzk7Yy0wLjI0NiwwLjgzOS0wLjM1NywxLjY0OS0wLjM5MSwyLjM0NGMwLjA2MywwLjA4NiwwLjA2MywwLjE1NiwwLjEyNiwwLjI0YzAuMzIxLDAuNDExLDAuNzI0LDAuNzU4LDEuMTEzLDEuMDcyJiMxMDsmIzk7Yy0wLjA0OC0wLjczNiwwLjAwNC0xLjgyMSwwLjQ1OS0zLjA0M2MwLjMxNCwwLjAyNCwwLjYzMy0wLjAyNiwwLjkzMi0wLjE1MWMwLjE3MSwwLjE1MSwwLjM1LDAuMzAzLDAuNTQyLDAuNDU4JiMxMDsmIzk7YzAuNjU2LDAuNTIsMS4zMTEsMC45MjQsMS45NDksMS4yNDJjLTAuMDMzLDAuMzI1LDAuMDQ4LDAuNjYyLDAuMjU5LDAuOTQxYzAuNDUxLDAuNTgyLDEuMjg2LDAuNjkxLDEuODY4LDAuMjQ2JiMxMDsmIzk7YzAuMTIxLTAuMDkzLDAuMjE3LTAuMjA1LDAuMjk2LTAuMzI1YzEuMDQxLDAuMjMyLDEuOTUsMC4yNzMsMi42MjQsMC4yNzNjMC4xMDMsMCwwLjU4Mi0wLjY1MiwwLjg1Ny0xLjA1NiYjMTA7JiM5O2MtMC40MSwwLjA4Ni0xLjYyOCwwLjI1My0zLjI5MS0wLjIyNWMtMC4wNC0wLjE4Ny0wLjExNy0wLjM2OC0wLjI0LTAuNTNjLTAuNDIyLTAuNTU0LTEuMTk1LTAuNjc0LTEuNzcxLTAuMzAzJiMxMDsmIzk7Yy0wLjU3OC0wLjMxNC0xLjE4NC0wLjcwNy0xLjgwOC0xLjIwMWMtMC4xMjYtMC4xLTAuMjQ3LTAuMTk5LTAuMzY0LTAuMjk5YzAuMzgyLTAuNjAxLDAuNDIyLTEuMzcyLDAuMDg1LTIuMDImIzEwOyYjOTtjMC4wNzctMC4wNzcsMC4xNTItMC4xNTMsMC4yMzMtMC4yMjljMC42MTgtMC41NzgsMS4yLTEuMDQsMS43NDQtMS40MTFjLTAuMDIyLTAuMDItMC4wNDItMC4wNDItMC4wNjMtMC4wNjImIzEwOyYjOTtjMC4wMjIsMC4wMiwwLjA0MiwwLjA0MSwwLjA2NCwwLjA2MWMwLDAsMCwwLTAuMDAxLDBjMC44MzUsMC43NzIsMS43MiwxLjUwNCwyLjU1OSwyLjE1OCYjMTA7JiM5O0MyNy41MTQsMTIuNjIxLDI3LjU0OSwxMy4xOTQsMjcuODg2LDEzLjYzNXoiLz4mI3hhOzwvc3ZnPg==;" parent="1" vertex="1">
                    <mxGeometry x="590" y="273.65" width="30" height="30" as="geometry"/>
                </mxCell>
                <mxCell id="-poeL8EhlbD7yA2cGTHf-118" value="" style="shape=image;imageAspect=0;aspect=fixed;verticalLabelPosition=bottom;verticalAlign=top;image=data:image/svg+xml,PHN2ZyB4bWxucz0iaHR0cDovL3d3dy53My5vcmcvMjAwMC9zdmciIHdpZHRoPSIxOC4wMDM4NjA0NzM2MzI4MTIiIGhlaWdodD0iMTYuNzA3ODA5NDQ4MjQyMTg4IiB2aWV3Qm94PSItMC4wMDQ1NTU5ODA2NzQ5MjI0NjYgMC42NDk5OTk2NzgxMzQ5MTgyIDE4LjAwMzg2MDQ3MzYzMjgxMiAxNi43MDc4MDk0NDgyNDIxODgiPiYjeGE7ICA8ZGVmcz4mI3hhOyAgICA8bGluZWFyR3JhZGllbnQgaWQ9ImZkMDYxMjI4LTIyYmUtNDI1ZS05MTMxLTBiOGNjYTBlNWQxNyIgeDE9IjcuNjk5IiB5MT0iMjU5LjIyIiB4Mj0iNy42OTkiIHkyPSIyNjMuNzExIiBncmFkaWVudFRyYW5zZm9ybT0idHJhbnNsYXRlKDAgLTI1MCkiIGdyYWRpZW50VW5pdHM9InVzZXJTcGFjZU9uVXNlIj4mI3hhOyAgICAgIDxzdG9wIG9mZnNldD0iMC4yMyIgc3RvcC1jb2xvcj0iIzVlYTBlZiIvPiYjeGE7ICAgICAgPHN0b3Agb2Zmc2V0PSIwLjMyIiBzdG9wLWNvbG9yPSIjNWI5ZmVlIi8+JiN4YTsgICAgICA8c3RvcCBvZmZzZXQ9IjAuNDgiIHN0b3AtY29sb3I9IiM1MDlhZWIiLz4mI3hhOyAgICAgIDxzdG9wIG9mZnNldD0iMC41NyIgc3RvcC1jb2xvcj0iIzNmOTJlNiIvPiYjeGE7ICAgICAgPHN0b3Agb2Zmc2V0PSIwLjc1IiBzdG9wLWNvbG9yPSIjMjY4OGRmIi8+JiN4YTsgICAgICA8c3RvcCBvZmZzZXQ9IjAuOTMiIHN0b3AtY29sb3I9IiMxMjdmZDkiLz4mI3hhOyAgICA8L2xpbmVhckdyYWRpZW50PiYjeGE7ICAgIDxsaW5lYXJHcmFkaWVudCBpZD0iZWE5NjQ5YTYtMDRiNS00N2Q2LTgyNDctZWQzYWI5ZmY5ZDA2IiB4MT0iOS45MjciIHkxPSIyNjEuMDkxIiB4Mj0iOS45MjciIHkyPSIyNjUuNTgyIiBncmFkaWVudFRyYW5zZm9ybT0idHJhbnNsYXRlKDAgLTI1MCkiIGdyYWRpZW50VW5pdHM9InVzZXJTcGFjZU9uVXNlIj4mI3hhOyAgICAgIDxzdG9wIG9mZnNldD0iMC4wMiIgc3RvcC1jb2xvcj0iIzVlYTBlZiIvPiYjeGE7ICAgICAgPHN0b3Agb2Zmc2V0PSIwLjE0IiBzdG9wLWNvbG9yPSIjNWI5ZmVlIi8+JiN4YTsgICAgICA8c3RvcCBvZmZzZXQ9IjAuMjMiIHN0b3AtY29sb3I9IiM1YjlmZWUiLz4mI3hhOyAgICAgIDxzdG9wIG9mZnNldD0iMC4zNCIgc3RvcC1jb2xvcj0iIzUwOWFlYiIvPiYjeGE7ICAgICAgPHN0b3Agb2Zmc2V0PSIwLjQ0IiBzdG9wLWNvbG9yPSIjM2Y5MmU2Ii8+JiN4YTsgICAgICA8c3RvcCBvZmZzZXQ9IjAuNjMiIHN0b3AtY29sb3I9IiMyNjg4ZGYiLz4mI3hhOyAgICAgIDxzdG9wIG9mZnNldD0iMC45MyIgc3RvcC1jb2xvcj0iIzEyN2ZkOSIvPiYjeGE7ICAgIDwvbGluZWFyR3JhZGllbnQ+JiN4YTsgIDwvZGVmcz4mI3hhOyAgPHBhdGggZD0iTTguMjUyLDIuNTIxSDkuMzc0VjkuNTk0SDguMjUyWiIgZmlsbD0iIzdhN2E3YSIvPiYjeGE7ICA8cGF0aCBkPSJNMTAuNDU5LDIuM0ExLjY0NywxLjY0NywwLDEsMSw4LjgxMy42NWgwQTEuNjQ2LDEuNjQ2LDAsMCwxLDEwLjQ1OSwyLjNaIiBmaWxsPSIjMTQ5MGRmIi8+JiN4YTsgIDxwYXRoIGQ9Ik04LjU4OCw5LjIyaC0xLjhhMi4yNDYsMi4yNDYsMCwwLDAtLjM0OCw0LjQ2MSwyLjQxNSwyLjQxNSwwLDAsMSwuMDIyLS44MzUsMS40MTgsMS40MTgsMCwwLDEsLjMyNi0yLjhoMS44YTEuNDIyLDEuNDIyLDAsMCwxLDAsMi44NDRIOC4wOTRhMS4wNzgsMS4wNzgsMCwwLDAtLjEuNDUsMS4wMjIsMS4wMjIsMCwwLDAsLjA3MS4zNzRoLjUyN2EyLjI0NiwyLjI0NiwwLDEsMCwwLTQuNDkxWiIgZmlsbD0idXJsKCNmZDA2MTIyOC0yMmJlLTQyNWUtOTEzMS0wYjhjY2EwZTVkMTcpIi8+JiN4YTsgIDxwYXRoIGQ9Ik0xMS4xODIsMTEuMTIxYTIuNjQyLDIuNjQyLDAsMCwxLC4wMjYuMzQ0LDIuMzE3LDIuMzE3LDAsMCwxLS4wNDkuNDkxLDEuNDE4LDEuNDE4LDAsMCwxLS4zMjUsMi44aC0xLjhhMS40MjMsMS40MjMsMCwwLDEsMC0yLjg0NWguNDk0YTEuMDQyLDEuMDQyLDAsMCwwLC4xLS40NDksMS4wMTgsMS4wMTgsMCwwLDAtLjA3MS0uMzc0SDkuMDM3YTIuMjQ2LDIuMjQ2LDAsMCwwLDAsNC40OTFoMS44YTIuMjQ2LDIuMjQ2LDAsMCwwLC4zNDgtNC40NjFaIiBmaWxsPSJ1cmwoI2VhOTY0OWE2LTA0YjUtNDdkNi04MjQ3LWVkM2FiOWZmOWQwNikiLz4mI3hhOyAgPHBhdGggZD0iTTUuNTgsMTYuNTI1bC0uNDEyLjQxNWEuMjguMjgsMCwwLDEtLjQsMGwtNC42MDctNC42YS41NjYuNTY2LDAsMCwxLDAtLjhsLjQxNi0uNDEyLDUsNC45OTJhLjI3Ni4yNzYsMCwwLDEsMCwuMzkxaDBaIiBmaWxsPSIjNTBlNmZmIi8+JiN4YTsgIDxwYXRoIGQ9Ik01LjA4Miw3LjAybC40Ni40NmEuMjgyLjI4MiwwLDAsMSwwLC40TC42MjUsMTIuODA5bC0uNDYxLS40NTdhLjU2Ni41NjYsMCwwLDEsMC0uOEw0LjY4NSw3LjAyQS4yOC4yOCwwLDAsMSw1LjA4Miw3LjAyWiIgZmlsbD0iIzE0OTBkZiIvPiYjeGE7ICA8cGF0aCBkPSJNMTIuNDE3LDE2Ljg1MWEuMjc4LjI3OCwwLDAsMS0uMDA2LS4zOTJoMGwuMDA2LDAsNS00Ljk4OS40MTYuNDE2YS41NjYuNTY2LDAsMCwxLDAsLjhsLTQuNjExLDQuNTg4YS4yNzcuMjc3LDAsMCwxLS4zOTEuMDA2aDBsLS4wMDYtLjAwNVoiIGZpbGw9IiM1MGU2ZmYiLz4mI3hhOyAgPHBhdGggZD0iTTEzLjMxMSw3LjM0OWw0LjUyNSw0LjUzNmEuNTYzLjU2MywwLDAsMSwwLC43OTNsLS40NjEuNDZMMTIuNDU0LDguMjA2YS4yODkuMjg5LDAsMCwxLDAtLjRsLjQ2LS40NTZBLjI4Mi4yODIsMCwwLDEsMTMuMzExLDcuMzQ5WiIgZmlsbD0iIzE0OTBkZiIvPiYjeGE7PC9zdmc+;" parent="1" vertex="1">
                    <mxGeometry x="347.3399999999999" y="130.00000000000003" width="25.41" height="24" as="geometry"/>
                </mxCell>
                <mxCell id="-poeL8EhlbD7yA2cGTHf-119" value="" style="shape=image;imageAspect=0;aspect=fixed;verticalLabelPosition=bottom;verticalAlign=top;image=data:image/svg+xml,PHN2ZyB4bWxucz0iaHR0cDovL3d3dy53My5vcmcvMjAwMC9zdmciIHdpZHRoPSIxOC4wMDM4NjA0NzM2MzI4MTIiIGhlaWdodD0iMTYuNzA3ODA5NDQ4MjQyMTg4IiB2aWV3Qm94PSItMC4wMDQ1NTU5ODA2NzQ5MjI0NjYgMC42NDk5OTk2NzgxMzQ5MTgyIDE4LjAwMzg2MDQ3MzYzMjgxMiAxNi43MDc4MDk0NDgyNDIxODgiPiYjeGE7ICA8ZGVmcz4mI3hhOyAgICA8bGluZWFyR3JhZGllbnQgaWQ9ImZkMDYxMjI4LTIyYmUtNDI1ZS05MTMxLTBiOGNjYTBlNWQxNyIgeDE9IjcuNjk5IiB5MT0iMjU5LjIyIiB4Mj0iNy42OTkiIHkyPSIyNjMuNzExIiBncmFkaWVudFRyYW5zZm9ybT0idHJhbnNsYXRlKDAgLTI1MCkiIGdyYWRpZW50VW5pdHM9InVzZXJTcGFjZU9uVXNlIj4mI3hhOyAgICAgIDxzdG9wIG9mZnNldD0iMC4yMyIgc3RvcC1jb2xvcj0iIzVlYTBlZiIvPiYjeGE7ICAgICAgPHN0b3Agb2Zmc2V0PSIwLjMyIiBzdG9wLWNvbG9yPSIjNWI5ZmVlIi8+JiN4YTsgICAgICA8c3RvcCBvZmZzZXQ9IjAuNDgiIHN0b3AtY29sb3I9IiM1MDlhZWIiLz4mI3hhOyAgICAgIDxzdG9wIG9mZnNldD0iMC41NyIgc3RvcC1jb2xvcj0iIzNmOTJlNiIvPiYjeGE7ICAgICAgPHN0b3Agb2Zmc2V0PSIwLjc1IiBzdG9wLWNvbG9yPSIjMjY4OGRmIi8+JiN4YTsgICAgICA8c3RvcCBvZmZzZXQ9IjAuOTMiIHN0b3AtY29sb3I9IiMxMjdmZDkiLz4mI3hhOyAgICA8L2xpbmVhckdyYWRpZW50PiYjeGE7ICAgIDxsaW5lYXJHcmFkaWVudCBpZD0iZWE5NjQ5YTYtMDRiNS00N2Q2LTgyNDctZWQzYWI5ZmY5ZDA2IiB4MT0iOS45MjciIHkxPSIyNjEuMDkxIiB4Mj0iOS45MjciIHkyPSIyNjUuNTgyIiBncmFkaWVudFRyYW5zZm9ybT0idHJhbnNsYXRlKDAgLTI1MCkiIGdyYWRpZW50VW5pdHM9InVzZXJTcGFjZU9uVXNlIj4mI3hhOyAgICAgIDxzdG9wIG9mZnNldD0iMC4wMiIgc3RvcC1jb2xvcj0iIzVlYTBlZiIvPiYjeGE7ICAgICAgPHN0b3Agb2Zmc2V0PSIwLjE0IiBzdG9wLWNvbG9yPSIjNWI5ZmVlIi8+JiN4YTsgICAgICA8c3RvcCBvZmZzZXQ9IjAuMjMiIHN0b3AtY29sb3I9IiM1YjlmZWUiLz4mI3hhOyAgICAgIDxzdG9wIG9mZnNldD0iMC4zNCIgc3RvcC1jb2xvcj0iIzUwOWFlYiIvPiYjeGE7ICAgICAgPHN0b3Agb2Zmc2V0PSIwLjQ0IiBzdG9wLWNvbG9yPSIjM2Y5MmU2Ii8+JiN4YTsgICAgICA8c3RvcCBvZmZzZXQ9IjAuNjMiIHN0b3AtY29sb3I9IiMyNjg4ZGYiLz4mI3hhOyAgICAgIDxzdG9wIG9mZnNldD0iMC45MyIgc3RvcC1jb2xvcj0iIzEyN2ZkOSIvPiYjeGE7ICAgIDwvbGluZWFyR3JhZGllbnQ+JiN4YTsgIDwvZGVmcz4mI3hhOyAgPHBhdGggZD0iTTguMjUyLDIuNTIxSDkuMzc0VjkuNTk0SDguMjUyWiIgZmlsbD0iIzdhN2E3YSIvPiYjeGE7ICA8cGF0aCBkPSJNMTAuNDU5LDIuM0ExLjY0NywxLjY0NywwLDEsMSw4LjgxMy42NWgwQTEuNjQ2LDEuNjQ2LDAsMCwxLDEwLjQ1OSwyLjNaIiBmaWxsPSIjMTQ5MGRmIi8+JiN4YTsgIDxwYXRoIGQ9Ik04LjU4OCw5LjIyaC0xLjhhMi4yNDYsMi4yNDYsMCwwLDAtLjM0OCw0LjQ2MSwyLjQxNSwyLjQxNSwwLDAsMSwuMDIyLS44MzUsMS40MTgsMS40MTgsMCwwLDEsLjMyNi0yLjhoMS44YTEuNDIyLDEuNDIyLDAsMCwxLDAsMi44NDRIOC4wOTRhMS4wNzgsMS4wNzgsMCwwLDAtLjEuNDUsMS4wMjIsMS4wMjIsMCwwLDAsLjA3MS4zNzRoLjUyN2EyLjI0NiwyLjI0NiwwLDEsMCwwLTQuNDkxWiIgZmlsbD0idXJsKCNmZDA2MTIyOC0yMmJlLTQyNWUtOTEzMS0wYjhjY2EwZTVkMTcpIi8+JiN4YTsgIDxwYXRoIGQ9Ik0xMS4xODIsMTEuMTIxYTIuNjQyLDIuNjQyLDAsMCwxLC4wMjYuMzQ0LDIuMzE3LDIuMzE3LDAsMCwxLS4wNDkuNDkxLDEuNDE4LDEuNDE4LDAsMCwxLS4zMjUsMi44aC0xLjhhMS40MjMsMS40MjMsMCwwLDEsMC0yLjg0NWguNDk0YTEuMDQyLDEuMDQyLDAsMCwwLC4xLS40NDksMS4wMTgsMS4wMTgsMCwwLDAtLjA3MS0uMzc0SDkuMDM3YTIuMjQ2LDIuMjQ2LDAsMCwwLDAsNC40OTFoMS44YTIuMjQ2LDIuMjQ2LDAsMCwwLC4zNDgtNC40NjFaIiBmaWxsPSJ1cmwoI2VhOTY0OWE2LTA0YjUtNDdkNi04MjQ3LWVkM2FiOWZmOWQwNikiLz4mI3hhOyAgPHBhdGggZD0iTTUuNTgsMTYuNTI1bC0uNDEyLjQxNWEuMjguMjgsMCwwLDEtLjQsMGwtNC42MDctNC42YS41NjYuNTY2LDAsMCwxLDAtLjhsLjQxNi0uNDEyLDUsNC45OTJhLjI3Ni4yNzYsMCwwLDEsMCwuMzkxaDBaIiBmaWxsPSIjNTBlNmZmIi8+JiN4YTsgIDxwYXRoIGQ9Ik01LjA4Miw3LjAybC40Ni40NmEuMjgyLjI4MiwwLDAsMSwwLC40TC42MjUsMTIuODA5bC0uNDYxLS40NTdhLjU2Ni41NjYsMCwwLDEsMC0uOEw0LjY4NSw3LjAyQS4yOC4yOCwwLDAsMSw1LjA4Miw3LjAyWiIgZmlsbD0iIzE0OTBkZiIvPiYjeGE7ICA8cGF0aCBkPSJNMTIuNDE3LDE2Ljg1MWEuMjc4LjI3OCwwLDAsMS0uMDA2LS4zOTJoMGwuMDA2LDAsNS00Ljk4OS40MTYuNDE2YS41NjYuNTY2LDAsMCwxLDAsLjhsLTQuNjExLDQuNTg4YS4yNzcuMjc3LDAsMCwxLS4zOTEuMDA2aDBsLS4wMDYtLjAwNVoiIGZpbGw9IiM1MGU2ZmYiLz4mI3hhOyAgPHBhdGggZD0iTTEzLjMxMSw3LjM0OWw0LjUyNSw0LjUzNmEuNTYzLjU2MywwLDAsMSwwLC43OTNsLS40NjEuNDZMMTIuNDU0LDguMjA2YS4yODkuMjg5LDAsMCwxLDAtLjRsLjQ2LS40NTZBLjI4Mi4yODIsMCwwLDEsMTMuMzExLDcuMzQ5WiIgZmlsbD0iIzE0OTBkZiIvPiYjeGE7PC9zdmc+;" parent="1" vertex="1">
                    <mxGeometry x="347.3399999999999" y="180.00000000000003" width="25.41" height="24" as="geometry"/>
                </mxCell>
                <mxCell id="-poeL8EhlbD7yA2cGTHf-128" style="edgeStyle=orthogonalEdgeStyle;rounded=0;orthogonalLoop=1;jettySize=auto;html=1;exitX=1;exitY=0.5;exitDx=0;exitDy=0;fillColor=#fff2cc;strokeColor=#d6b656;" parent="1" source="-poeL8EhlbD7yA2cGTHf-126" target="-poeL8EhlbD7yA2cGTHf-119" edge="1">
                    <mxGeometry relative="1" as="geometry"/>
                </mxCell>
                <mxCell id="-poeL8EhlbD7yA2cGTHf-126" value="" style="shape=image;imageAspect=0;aspect=fixed;verticalLabelPosition=bottom;verticalAlign=top;image=data:image/svg+xml,PHN2ZyB4bWxucz0iaHR0cDovL3d3dy53My5vcmcvMjAwMC9zdmciIHdpZHRoPSIxOC4wMDA4NjAyMTQyMzM0IiBoZWlnaHQ9IjEwLjQyMDkxODQ2NDY2MDY0NSIgdmlld0JveD0iLTAuMDAxNTU1NDk4ODA1ODI4MzkyNSAzLjc5NDMwNDEzMjQ2MTU0OCAxOC4wMDA4NjAyMTQyMzM0IDEwLjQyMDkxODQ2NDY2MDY0NSI+JiN4YTsgIDxkZWZzPiYjeGE7ICAgIDxsaW5lYXJHcmFkaWVudCBpZD0iZWUzOTVkN2QtOWUxMS00MDkzLWI0NTUtOWI2Y2E5ZTE1YTYzIiB4MT0iNy42OTkiIHkxPSI5NTYuMDc2IiB4Mj0iNy42OTkiIHkyPSI5NjAuNTY3IiBncmFkaWVudFRyYW5zZm9ybT0idHJhbnNsYXRlKDAgLTk1MCkiIGdyYWRpZW50VW5pdHM9InVzZXJTcGFjZU9uVXNlIj4mI3hhOyAgICAgIDxzdG9wIG9mZnNldD0iMC4yMyIgc3RvcC1jb2xvcj0iIzVlYTBlZiIvPiYjeGE7ICAgICAgPHN0b3Agb2Zmc2V0PSIwLjkzIiBzdG9wLWNvbG9yPSIjMTI3ZmQ5Ii8+JiN4YTsgICAgPC9saW5lYXJHcmFkaWVudD4mI3hhOyAgICA8bGluZWFyR3JhZGllbnQgaWQ9ImI4MTA1MzI4LWMyYzQtNDkyMy04ZDE4LTZjODQ0ZThhMzg5ZSIgeDE9IjkuOTI3IiB5MT0iOTU3Ljk0NyIgeDI9IjkuOTI3IiB5Mj0iOTYyLjQzOCIgZ3JhZGllbnRUcmFuc2Zvcm09InRyYW5zbGF0ZSgwIC05NTApIiBncmFkaWVudFVuaXRzPSJ1c2VyU3BhY2VPblVzZSI+JiN4YTsgICAgICA8c3RvcCBvZmZzZXQ9IjAuMDIiIHN0b3AtY29sb3I9IiM1ZWEwZWYiLz4mI3hhOyAgICAgIDxzdG9wIG9mZnNldD0iMC45MyIgc3RvcC1jb2xvcj0iIzEyN2ZkOSIvPiYjeGE7ICAgIDwvbGluZWFyR3JhZGllbnQ+JiN4YTsgIDwvZGVmcz4mI3hhOyAgPGcgaWQ9ImE1MjI5ZTdhLTJjNzgtNGRiOS05OWNjLWNhN2ZiZTY0MzY4YiI+JiN4YTsgICAgPGc+JiN4YTsgICAgICA8cGF0aCBkPSJNOC41ODgsNi4wNzZoLTEuOGEyLjI0NiwyLjI0NiwwLDAsMC0uMzQ4LDQuNDYxQTIuNDA5LDIuNDA5LDAsMCwxLDYuNDY2LDkuN2ExLjQxOCwxLjQxOCwwLDAsMSwuMzI2LTIuOGgxLjhhMS40MjIsMS40MjIsMCwwLDEsMCwyLjg0NEg4LjA5NGExLjA3LDEuMDcsMCwwLDAtLjEuNDQ5LDEuMDE4LDEuMDE4LDAsMCwwLC4wNzEuMzc0aC41MjdhMi4yNDYsMi4yNDYsMCwxLDAsMC00LjQ5MVoiIGZpbGw9InVybCgjZWUzOTVkN2QtOWUxMS00MDkzLWI0NTUtOWI2Y2E5ZTE1YTYzKSIvPiYjeGE7ICAgICAgPHBhdGggZD0iTTExLjE4Miw3Ljk3N2EyLjY0NCwyLjY0NCwwLDAsMSwuMDI2LjM0NSwyLjMwOCwyLjMwOCwwLDAsMS0uMDQ5LjQ5LDEuNDE4LDEuNDE4LDAsMCwxLS4zMjUsMi44aC0xLjhhMS40MjIsMS40MjIsMCwwLDEsMC0yLjg0NGguNDk0YTEuMDQ1LDEuMDQ1LDAsMCwwLC4xLS40NDksMS4wMjgsMS4wMjgsMCwwLDAtLjA3MS0uMzc1SDkuMDM3YTIuMjQ2LDIuMjQ2LDAsMCwwLDAsNC40OTFoMS44YTIuMjQ2LDIuMjQ2LDAsMCwwLC4zNDgtNC40NjFaIiBmaWxsPSJ1cmwoI2I4MTA1MzI4LWMyYzQtNDkyMy04ZDE4LTZjODQ0ZThhMzg5ZSkiLz4mI3hhOyAgICAgIDxwYXRoIGQ9Ik01LjU4LDEzLjM4MWwtLjQxMi40MTZhLjI4Mi4yODIsMCwwLDEtLjQsMEwuMTY0LDkuMmEuNTY2LjU2NiwwLDAsMSwwLS44TC41OCw3Ljk5Mmw1LDQuOTkzYS4yNzYuMjc2LDAsMCwxLDAsLjM5MWgwWiIgZmlsbD0iIzUwZTZmZiIvPiYjeGE7ICAgICAgPHBhdGggZD0iTTUuMDgyLDMuODc2bC40Ni40NmEuMjgyLjI4MiwwLDAsMSwwLC40TC42MjUsOS42NjUuMTY0LDkuMjA5YS41NjYuNTY2LDAsMCwxLDAtLjhMNC42ODUsMy44NzZBLjI4Mi4yODIsMCwwLDEsNS4wODIsMy44NzZaIiBmaWxsPSIjMTQ5MGRmIi8+JiN4YTsgICAgICA8cGF0aCBkPSJNMTIuNDE3LDEzLjcwN2EuMjc2LjI3NiwwLDAsMS0uMDA2LS4zOTFoMGwuMDA2LDAsNS00Ljk4OC40MTYuNDE1YS41NjYuNTY2LDAsMCwxLDAsLjhsLTQuNjExLDQuNTg4YS4yNzYuMjc2LDAsMCwxLS4zOTEuMDA2aDBsLS4wMDYtLjAwNVoiIGZpbGw9IiM1MGU2ZmYiLz4mI3hhOyAgICAgIDxwYXRoIGQ9Ik0xMy4zMTEsNC4yMDVsNC41MjUsNC41MzZhLjU2My41NjMsMCwwLDEsMCwuNzkzbC0uNDYxLjQ2TDEyLjQ1NCw1LjA2MmEuMjg3LjI4NywwLDAsMSwwLS40bC40Ni0uNDU3QS4yODIuMjgyLDAsMCwxLDEzLjMxMSw0LjIwNVoiIGZpbGw9IiMxNDkwZGYiLz4mI3hhOyAgICA8L2c+JiN4YTsgIDwvZz4mI3hhOzwvc3ZnPg==;" parent="1" vertex="1">
                    <mxGeometry x="225" y="182.74999999999997" width="33.31" height="18.51" as="geometry"/>
                </mxCell>
                <mxCell id="-poeL8EhlbD7yA2cGTHf-132" style="edgeStyle=orthogonalEdgeStyle;rounded=0;orthogonalLoop=1;jettySize=auto;html=1;fillColor=#d5e8d4;strokeColor=#82b366;" parent="1" source="-poeL8EhlbD7yA2cGTHf-129" edge="1">
                    <mxGeometry relative="1" as="geometry">
                        <mxPoint x="175" y="287.82499999999993" as="targetPoint"/>
                    </mxGeometry>
                </mxCell>
                <mxCell id="-poeL8EhlbD7yA2cGTHf-129" value="" style="shape=image;verticalLabelPosition=bottom;labelBackgroundColor=#ffffff;verticalAlign=top;aspect=fixed;imageAspect=0;image=data:image/svg+xml,PHN2ZyB4bWxucz0iaHR0cDovL3d3dy53My5vcmcvMjAwMC9zdmciIHhtbG5zOnhsaW5rPSJodHRwOi8vd3d3LnczLm9yZy8xOTk5L3hsaW5rIiB2ZXJzaW9uPSIxLjEiIGlkPSJMYXllcl8xIiB4PSIwcHgiIHk9IjBweCIgd2lkdGg9IjUwLjIwMDAwNDU3NzYzNjcyIiBoZWlnaHQ9IjQxLjcwMDAwMDc2MjkzOTQ1IiB2aWV3Qm94PSIwIDMuOTk5OTk5MDQ2MzI1NjgzNiA1MC4yMDAwMDQ1Nzc2MzY3MiA0MS43MDAwMDA3NjI5Mzk0NSIgZW5hYmxlLWJhY2tncm91bmQ9Im5ldyAwIDAgNTAgNTAiIHhtbDpzcGFjZT0icHJlc2VydmUiPiYjeGE7PHBhdGggZmlsbD0iIzU5QjREOSIgZD0iTTIwLjUsMzIuNWgtOC45bDAsMGMtNC40LDAtOC0zLjYtOC04LjFzMy40LTguMSw4LTguMWMwLjgsMCwxLjcsMC4yLDIuNywwLjNsMS43LDAuNWwwLjUtMS43JiMxMDsmIzk7QzE4LjEsMTAuMiwyMy4xLDcsMjguOCw3YzYuOSwwLDEyLjIsNS4zLDEyLjIsMTIuMmMwLDEuMS0wLjIsMi4yLTAuNSwzLjNMMzkuOCwyNWwyLjctMC4zYzAuMiwwLDAuMywwLDAuNSwwYzIsMCwzLjYsMS43LDMuNiwzLjYmIzEwOyYjOTtzLTEuNCwzLjMtMy4xLDMuNmMwLDAtOC42LDAtOC45LDBjLTAuMy0yLjUtMS42LTQuNy0zLjMtNi40QzI5LjEsMjMuMywyNi4xLDIyLDIzLDIyYy0yLjIsMC00LjQsMC42LTYuMSwxLjdsMS45LDMmIzEwOyYjOTtjMS40LTAuOCwyLjgtMS4xLDQuNC0xLjFjMi4yLDAsNC40LDAuOCw1LjgsMi41YzEuNiwxLjYsMi41LDMuNiwyLjUsNS44cy0wLjgsNC40LTIuNSw1LjhjLTEuNiwxLjctMy42LDIuNS01LjgsMi41JiMxMDsmIzk7Yy0xLjYsMC0zLjEtMC41LTQuNC0xLjRsLTEuOSwzYzEuOSwxLjEsNC4xLDEuOSw2LjEsMS45YzMuMSwwLDYuMS0xLjEsOC4zLTMuNGMxLjktMS45LDMtNC40LDMuMy03YzAuNSwwLDkuMSwwLDkuMSwwaDAuMiYjMTA7JiM5O2MzLjYtMC4zLDYuMy0zLjQsNi4zLTcuMmMwLTMtMi44LTUuOC02LjEtNi40YzAuMi0wLjYsMC4yLTAuOSwwLjItMS45YzAtOC44LTYuMi0xNS44LTE2LjEtMTUuOGwwLDBjLTYuMywwLTExLjksMy42LTE0LjIsOS40JiMxMDsmIzk7Yy0wLjgsMC0xLjQtMC4zLTIuMy0wLjNDNS4yLDEzLDAsMTgsMCwyNC40YzAsNi4zLDUuMiwxMS4zLDExLjQsMTEuM2g5LjhMMjAuNSwzMi41eiIvPiYjeGE7PGNpcmNsZSBmaWxsPSIjNjgyMTdBIiBjeD0iMjIuOCIgY3k9IjMzLjgiIHI9IjUuNiIvPiYjeGE7PC9zdmc+;" parent="1" vertex="1">
                    <mxGeometry x="455.94" y="272.65" width="36.13" height="30.35" as="geometry"/>
                </mxCell>
                <mxCell id="uNowJhoPLgQHm180bY7j-86" style="edgeStyle=orthogonalEdgeStyle;rounded=0;orthogonalLoop=1;jettySize=auto;html=1;entryX=0.301;entryY=0.417;entryDx=0;entryDy=0;entryPerimeter=0;fillColor=#fff2cc;strokeColor=#d6b656;" parent="1" source="uNowJhoPLgQHm180bY7j-84" target="-poeL8EhlbD7yA2cGTHf-118" edge="1">
                    <mxGeometry relative="1" as="geometry"/>
                </mxCell>
                <mxCell id="uNowJhoPLgQHm180bY7j-84" value="" style="shape=image;imageAspect=0;aspect=fixed;verticalLabelPosition=bottom;verticalAlign=top;image=data:image/svg+xml,PHN2ZyB4bWxucz0iaHR0cDovL3d3dy53My5vcmcvMjAwMC9zdmciIHdpZHRoPSIxOC4wMDA4NjAyMTQyMzM0IiBoZWlnaHQ9IjEwLjQyMDkxODQ2NDY2MDY0NSIgdmlld0JveD0iLTAuMDAxNTU1NDk4ODA1ODI4MzkyNSAzLjc5NDMwNDEzMjQ2MTU0OCAxOC4wMDA4NjAyMTQyMzM0IDEwLjQyMDkxODQ2NDY2MDY0NSI+JiN4YTsgIDxkZWZzPiYjeGE7ICAgIDxsaW5lYXJHcmFkaWVudCBpZD0iZWUzOTVkN2QtOWUxMS00MDkzLWI0NTUtOWI2Y2E5ZTE1YTYzIiB4MT0iNy42OTkiIHkxPSI5NTYuMDc2IiB4Mj0iNy42OTkiIHkyPSI5NjAuNTY3IiBncmFkaWVudFRyYW5zZm9ybT0idHJhbnNsYXRlKDAgLTk1MCkiIGdyYWRpZW50VW5pdHM9InVzZXJTcGFjZU9uVXNlIj4mI3hhOyAgICAgIDxzdG9wIG9mZnNldD0iMC4yMyIgc3RvcC1jb2xvcj0iIzVlYTBlZiIvPiYjeGE7ICAgICAgPHN0b3Agb2Zmc2V0PSIwLjkzIiBzdG9wLWNvbG9yPSIjMTI3ZmQ5Ii8+JiN4YTsgICAgPC9saW5lYXJHcmFkaWVudD4mI3hhOyAgICA8bGluZWFyR3JhZGllbnQgaWQ9ImI4MTA1MzI4LWMyYzQtNDkyMy04ZDE4LTZjODQ0ZThhMzg5ZSIgeDE9IjkuOTI3IiB5MT0iOTU3Ljk0NyIgeDI9IjkuOTI3IiB5Mj0iOTYyLjQzOCIgZ3JhZGllbnRUcmFuc2Zvcm09InRyYW5zbGF0ZSgwIC05NTApIiBncmFkaWVudFVuaXRzPSJ1c2VyU3BhY2VPblVzZSI+JiN4YTsgICAgICA8c3RvcCBvZmZzZXQ9IjAuMDIiIHN0b3AtY29sb3I9IiM1ZWEwZWYiLz4mI3hhOyAgICAgIDxzdG9wIG9mZnNldD0iMC45MyIgc3RvcC1jb2xvcj0iIzEyN2ZkOSIvPiYjeGE7ICAgIDwvbGluZWFyR3JhZGllbnQ+JiN4YTsgIDwvZGVmcz4mI3hhOyAgPGcgaWQ9ImE1MjI5ZTdhLTJjNzgtNGRiOS05OWNjLWNhN2ZiZTY0MzY4YiI+JiN4YTsgICAgPGc+JiN4YTsgICAgICA8cGF0aCBkPSJNOC41ODgsNi4wNzZoLTEuOGEyLjI0NiwyLjI0NiwwLDAsMC0uMzQ4LDQuNDYxQTIuNDA5LDIuNDA5LDAsMCwxLDYuNDY2LDkuN2ExLjQxOCwxLjQxOCwwLDAsMSwuMzI2LTIuOGgxLjhhMS40MjIsMS40MjIsMCwwLDEsMCwyLjg0NEg4LjA5NGExLjA3LDEuMDcsMCwwLDAtLjEuNDQ5LDEuMDE4LDEuMDE4LDAsMCwwLC4wNzEuMzc0aC41MjdhMi4yNDYsMi4yNDYsMCwxLDAsMC00LjQ5MVoiIGZpbGw9InVybCgjZWUzOTVkN2QtOWUxMS00MDkzLWI0NTUtOWI2Y2E5ZTE1YTYzKSIvPiYjeGE7ICAgICAgPHBhdGggZD0iTTExLjE4Miw3Ljk3N2EyLjY0NCwyLjY0NCwwLDAsMSwuMDI2LjM0NSwyLjMwOCwyLjMwOCwwLDAsMS0uMDQ5LjQ5LDEuNDE4LDEuNDE4LDAsMCwxLS4zMjUsMi44aC0xLjhhMS40MjIsMS40MjIsMCwwLDEsMC0yLjg0NGguNDk0YTEuMDQ1LDEuMDQ1LDAsMCwwLC4xLS40NDksMS4wMjgsMS4wMjgsMCwwLDAtLjA3MS0uMzc1SDkuMDM3YTIuMjQ2LDIuMjQ2LDAsMCwwLDAsNC40OTFoMS44YTIuMjQ2LDIuMjQ2LDAsMCwwLC4zNDgtNC40NjFaIiBmaWxsPSJ1cmwoI2I4MTA1MzI4LWMyYzQtNDkyMy04ZDE4LTZjODQ0ZThhMzg5ZSkiLz4mI3hhOyAgICAgIDxwYXRoIGQ9Ik01LjU4LDEzLjM4MWwtLjQxMi40MTZhLjI4Mi4yODIsMCwwLDEtLjQsMEwuMTY0LDkuMmEuNTY2LjU2NiwwLDAsMSwwLS44TC41OCw3Ljk5Mmw1LDQuOTkzYS4yNzYuMjc2LDAsMCwxLDAsLjM5MWgwWiIgZmlsbD0iIzUwZTZmZiIvPiYjeGE7ICAgICAgPHBhdGggZD0iTTUuMDgyLDMuODc2bC40Ni40NmEuMjgyLjI4MiwwLDAsMSwwLC40TC42MjUsOS42NjUuMTY0LDkuMjA5YS41NjYuNTY2LDAsMCwxLDAtLjhMNC42ODUsMy44NzZBLjI4Mi4yODIsMCwwLDEsNS4wODIsMy44NzZaIiBmaWxsPSIjMTQ5MGRmIi8+JiN4YTsgICAgICA8cGF0aCBkPSJNMTIuNDE3LDEzLjcwN2EuMjc2LjI3NiwwLDAsMS0uMDA2LS4zOTFoMGwuMDA2LDAsNS00Ljk4OC40MTYuNDE1YS41NjYuNTY2LDAsMCwxLDAsLjhsLTQuNjExLDQuNTg4YS4yNzYuMjc2LDAsMCwxLS4zOTEuMDA2aDBsLS4wMDYtLjAwNVoiIGZpbGw9IiM1MGU2ZmYiLz4mI3hhOyAgICAgIDxwYXRoIGQ9Ik0xMy4zMTEsNC4yMDVsNC41MjUsNC41MzZhLjU2My41NjMsMCwwLDEsMCwuNzkzbC0uNDYxLjQ2TDEyLjQ1NCw1LjA2MmEuMjg3LjI4NywwLDAsMSwwLS40bC40Ni0uNDU3QS4yODIuMjgyLDAsMCwxLDEzLjMxMSw0LjIwNVoiIGZpbGw9IiMxNDkwZGYiLz4mI3hhOyAgICA8L2c+JiN4YTsgIDwvZz4mI3hhOzwvc3ZnPg==;" parent="1" vertex="1">
                    <mxGeometry x="139.38" y="130.99999999999997" width="33.31" height="18.51" as="geometry"/>
                </mxCell>
            </root>
        </mxGraphModel>
    </diagram>
</mxfile>